<svg width="144" height="63" viewBox="0 0 144 63" fill="none" xmlns="http://www.w3.org/2000/svg">
<path d="M23.1548 57.7097L24.8331 57.399C25.2688 57.3184 25.6695 57.3378 26.0351 57.4574C26.3999 57.573 26.703 57.775 26.9442 58.0633C27.1846 58.3475 27.341 58.6952 27.4133 59.1064C27.4856 59.5175 27.4578 59.9014 27.33 60.258C27.2015 60.6106 26.9863 60.9085 26.6846 61.1516C26.3821 61.3908 26.0129 61.5507 25.5772 61.6313L23.8989 61.942L23.1548 57.7097ZM25.4856 61.2487C25.8467 61.1819 26.15 61.0508 26.3954 60.8556C26.64 60.6563 26.8143 60.4138 26.9181 60.1283C27.0212 59.8386 27.043 59.5245 26.9835 59.186C26.9239 58.8474 26.7969 58.5629 26.6024 58.3326C26.4071 58.0982 26.1613 57.9335 25.8649 57.8385C25.5678 57.7396 25.2387 57.7235 24.8775 57.7904L23.6586 58.016L24.2666 61.4744L25.4856 61.2487Z" fill="white"/>
<path d="M32.7001 59.9131L32.7681 60.3001L29.8533 60.8397L29.1092 56.6074L31.9357 56.0841L32.0037 56.4711L29.613 56.9137L29.8776 58.4192L32.0093 58.0245L32.0763 58.4054L29.9446 58.8001L30.221 60.3721L32.7001 59.9131Z" fill="white"/>
<path d="M36.0247 59.7346C35.7185 59.7913 35.4152 59.7954 35.1148 59.747C34.8184 59.6978 34.5791 59.6048 34.3969 59.4679L34.5071 59.0916C34.6832 59.2172 34.9034 59.3054 35.1677 59.3564C35.4313 59.4033 35.6947 59.4024 35.9577 59.3537C36.3267 59.2854 36.5914 59.1657 36.7518 58.9944C36.9115 58.8192 36.9719 58.6208 36.9329 58.3991C36.9032 58.2298 36.8284 58.1042 36.7086 58.0223C36.5927 57.9397 36.4576 57.8857 36.3031 57.8602C36.1479 57.8306 35.9351 57.8076 35.6647 57.7911C35.3404 57.7679 35.0796 57.7371 34.8823 57.6987C34.6844 57.6562 34.5052 57.5708 34.3448 57.4423C34.1883 57.3131 34.087 57.1176 34.041 56.8556C34.0034 56.6419 34.0244 56.4383 34.1038 56.2446C34.1825 56.0469 34.3265 55.8746 34.5358 55.7276C34.7451 55.5807 35.0185 55.4759 35.3561 55.4134C35.5917 55.3698 35.8273 55.3616 36.0632 55.3887C36.3022 55.411 36.5144 55.4654 36.6998 55.5517L36.6153 55.9357C36.4221 55.8508 36.2223 55.7983 36.0161 55.7782C35.8092 55.7541 35.6115 55.7595 35.4231 55.7943C35.0619 55.8612 34.8018 55.9843 34.6428 56.1635C34.4871 56.338 34.429 56.5382 34.4687 56.7639C34.4985 56.9332 34.5716 57.0611 34.6882 57.1478C34.808 57.2296 34.9474 57.285 35.1065 57.3138C35.2688 57.3379 35.4833 57.3585 35.7498 57.3758C36.0655 57.3964 36.3224 57.4279 36.5203 57.4703C36.7215 57.508 36.9004 57.5914 37.0569 57.7206C37.2126 57.8458 37.3132 58.0373 37.3585 58.2953C37.3961 58.5089 37.3735 58.715 37.2909 58.9134C37.2114 59.1071 37.0651 59.2777 36.8519 59.4254C36.638 59.5691 36.3623 59.6721 36.0247 59.7346Z" fill="white"/>
<path d="M38.8499 54.8041L39.2857 54.7234L40.0298 58.9557L39.594 59.0364L38.8499 54.8041Z" fill="white"/>
<path d="M44.9913 55.8521L45.4094 55.7747L45.6932 57.3891C45.5314 57.598 45.3271 57.7732 45.0803 57.9146C44.8336 58.056 44.565 58.1536 44.2745 58.2073C43.8623 58.2836 43.475 58.2596 43.1127 58.1353C42.7503 58.0109 42.4462 57.8029 42.2004 57.5113C41.9538 57.2157 41.7948 56.8643 41.7232 56.4572C41.6516 56.0501 41.6813 55.6658 41.8124 55.3045C41.9427 54.9391 42.1564 54.6331 42.4536 54.3867C42.7507 54.1402 43.1074 53.9784 43.5235 53.9014C43.8376 53.8433 44.1353 53.8422 44.4168 53.8984C44.6975 53.9504 44.9459 54.0605 45.1619 54.2286L44.941 54.5629C44.557 54.2927 44.1138 54.2042 43.6113 54.2972C43.2777 54.359 42.9888 54.4915 42.7449 54.6948C42.5042 54.8934 42.331 55.1419 42.2254 55.4403C42.119 55.7346 42.0949 56.0471 42.153 56.3776C42.2112 56.7081 42.3401 56.9922 42.54 57.2299C42.7399 57.4676 42.9868 57.6383 43.2807 57.7421C43.5745 57.8458 43.8883 57.8668 44.222 57.805C44.646 57.7265 44.986 57.5512 45.2422 57.279L44.9913 55.8521Z" fill="white"/>
<path d="M50.8048 52.5909L51.549 56.8231L51.1897 56.8896L47.9361 53.946L48.5399 57.3802L48.1041 57.4609L47.36 53.2286L47.7192 53.1621L50.9788 56.1046L50.375 52.6704L50.8048 52.5909Z" fill="white"/>
<path d="M56.8305 55.4458L56.8986 55.8328L53.9837 56.3724L53.2396 52.1401L56.0661 51.6168L56.1342 52.0038L53.7434 52.4464L54.0081 53.9519L56.1398 53.5572L56.2067 53.9381L54.0751 54.3328L54.3515 55.9048L56.8305 55.4458Z" fill="white"/>
<path d="M61.827 54.9204L60.6456 53.7344C60.5418 53.7661 60.4329 53.7925 60.3191 53.8136L59.212 54.0186L59.448 55.3608L59.0123 55.4415L58.2681 51.2092L59.8109 50.9236C60.337 50.8262 60.7719 50.8788 61.1156 51.0816C61.4593 51.2843 61.6708 51.6114 61.7502 52.0628C61.8083 52.3934 61.7751 52.6888 61.6506 52.949C61.5294 53.2046 61.3264 53.4107 61.0419 53.5674L62.304 54.8321L61.827 54.9204ZM60.2403 53.4349C60.6486 53.3593 60.9444 53.2088 61.1277 52.9834C61.311 52.758 61.3733 52.4781 61.3144 52.1435C61.2542 51.8009 61.1002 51.5589 60.8524 51.4175C60.6039 51.272 60.2755 51.2371 59.8672 51.3127L58.7719 51.5155L59.145 53.6376L60.2403 53.4349Z" fill="white"/>
<path d="M69.9494 53.4853L69.2719 52.9865C68.9899 53.4341 68.5642 53.7106 67.995 53.8159C67.7281 53.8654 67.4808 53.8653 67.2532 53.8159C67.0289 53.7617 66.8436 53.6649 66.6975 53.5255C66.5507 53.382 66.4588 53.2055 66.422 52.9959C66.3773 52.742 66.4158 52.4997 66.5374 52.2691C66.659 52.0385 66.8887 51.7774 67.2266 51.486C66.9935 51.3127 66.8269 51.1604 66.7268 51.0291C66.626 50.8938 66.561 50.7435 66.532 50.5783C66.4845 50.3082 66.5404 50.0731 66.6998 49.873C66.8592 49.6728 67.0979 49.5433 67.4159 49.4844C67.7103 49.4299 67.957 49.4613 68.1559 49.5784C68.3549 49.6956 68.4774 49.8852 68.5235 50.1471C68.5603 50.3567 68.5249 50.5589 68.4173 50.7536C68.3089 50.9443 68.1037 51.1717 67.8015 51.4357L69.1426 52.4236C69.2278 52.1706 69.2722 51.8814 69.2758 51.5561L69.6365 51.6017C69.6285 51.9944 69.5639 52.3414 69.4426 52.6427L70.1409 53.1565L69.9494 53.4853ZM67.4722 49.8049C67.2681 49.8427 67.1163 49.9249 67.017 50.0515C66.9216 50.1773 66.8891 50.3269 66.9196 50.5003C66.9415 50.6252 66.9938 50.7383 67.0765 50.8395C67.1591 50.9408 67.3097 51.0711 67.5283 51.2304C67.7954 50.9978 67.975 50.8085 68.0668 50.6624C68.1587 50.5164 68.1915 50.3688 68.1653 50.2197C68.137 50.0585 68.0616 49.9413 67.9394 49.8682C67.8163 49.7911 67.6606 49.77 67.4722 49.8049ZM67.9558 53.4549C68.4112 53.3705 68.7523 53.143 68.9789 52.7723L67.5058 51.6903C67.2132 51.94 67.0176 52.1531 66.9189 52.3296C66.8242 52.5053 66.7934 52.6878 66.8267 52.8773C66.8671 53.107 66.99 53.2757 67.1954 53.3834C67.404 53.4863 67.6575 53.5101 67.9558 53.4549Z" fill="white"/>
<path d="M77.4614 52.026L76.28 50.84C76.1761 50.8717 76.0673 50.8981 75.9534 50.9192L74.8464 51.1241L75.0824 52.4664L74.6466 52.5471L73.9025 48.3148L75.4453 48.0291C75.9713 47.9318 76.4062 47.9844 76.7499 48.1872C77.0936 48.3899 77.3052 48.717 77.3846 49.1684C77.4427 49.499 77.4095 49.7944 77.285 50.0546C77.1637 50.3102 76.9608 50.5163 76.6763 50.673L77.9383 51.9377L77.4614 52.026ZM75.8747 50.5405C76.283 50.4649 76.5787 50.3144 76.7621 50.089C76.9454 49.8636 77.0076 49.5837 76.9488 49.2491C76.8886 48.9065 76.7345 48.6645 76.4867 48.5231C76.2382 48.3776 75.9098 48.3427 75.5016 48.4183L74.4063 48.621L74.7794 50.7432L75.8747 50.5405Z" fill="white"/>
<path d="M82.8382 50.631L82.9062 51.0179L79.9914 51.5576L79.2473 47.3253L82.0738 46.802L82.1418 47.189L79.7511 47.6316L80.0158 49.137L82.1474 48.7424L82.2144 49.1233L80.0827 49.518L80.3591 51.0899L82.8382 50.631Z" fill="white"/>
<path d="M86.1628 50.4525C85.8566 50.5092 85.5533 50.5133 85.2529 50.4649C84.9565 50.4157 84.7172 50.3227 84.535 50.1858L84.6452 49.8095C84.8213 49.9351 85.0415 50.0233 85.3059 50.0743C85.5695 50.1212 85.8328 50.1203 86.0958 50.0716C86.4648 50.0033 86.7296 49.8835 86.89 49.7123C87.0497 49.5371 87.11 49.3386 87.0711 49.1169C87.0413 48.9476 86.9665 48.8221 86.8467 48.7402C86.7309 48.6576 86.5957 48.6035 86.4412 48.578C86.2861 48.5485 86.0733 48.5255 85.8028 48.5089C85.4785 48.4857 85.2177 48.4549 85.0205 48.4165C84.8225 48.3741 84.6433 48.2887 84.4829 48.1602C84.3264 48.031 84.2252 47.8354 84.1791 47.5734C84.1415 47.3598 84.1625 47.1562 84.2419 46.9625C84.3207 46.7648 84.4647 46.5925 84.6739 46.4455C84.8832 46.2985 85.1566 46.1938 85.4943 46.1313C85.7298 46.0877 85.9655 46.0795 86.2013 46.1066C86.4403 46.1289 86.6525 46.1832 86.838 46.2696L86.7535 46.6536C86.5602 46.5687 86.3604 46.5162 86.1542 46.4961C85.9473 46.472 85.7497 46.4773 85.5612 46.5122C85.2001 46.5791 84.94 46.7022 84.781 46.8814C84.6252 47.0559 84.5672 47.256 84.6068 47.4818C84.6366 47.6511 84.7098 47.779 84.8263 47.8656C84.9461 47.9475 85.0856 48.0029 85.2447 48.0317C85.407 48.0557 85.6214 48.0764 85.8879 48.0936C86.2037 48.1143 86.4605 48.1458 86.6585 48.1882C86.8597 48.2259 87.0385 48.3093 87.195 48.4385C87.3508 48.5636 87.4513 48.7552 87.4967 49.0132C87.5342 49.2268 87.5117 49.4328 87.429 49.6313C87.3496 49.8249 87.2032 49.9956 86.9901 50.1433C86.7762 50.2869 86.5004 50.39 86.1628 50.4525Z" fill="white"/>
<path d="M92.579 48.8277L92.647 49.2146L89.7321 49.7543L88.988 45.522L91.8146 44.9987L91.8826 45.3856L89.4918 45.8282L89.7565 47.3337L91.8882 46.9391L91.9552 47.32L89.8235 47.7146L90.0999 49.2866L92.579 48.8277Z" fill="white"/>
<path d="M97.147 47.2141L94.8504 47.6393L94.5546 48.8615L94.1011 48.9454L95.2414 44.3643L95.6712 44.2847L98.2997 48.1681L97.8404 48.2532L97.147 47.2141ZM96.9242 46.8808L95.5352 44.7906L94.9456 47.2471L96.9242 46.8808Z" fill="white"/>
<path d="M102.886 47.3191L101.704 46.1332C101.6 46.1649 101.492 46.1913 101.378 46.2124L100.271 46.4173L100.507 47.7596L100.071 47.8402L99.3268 43.6079L100.87 43.3223C101.396 43.2249 101.831 43.2776 102.174 43.4803C102.518 43.6831 102.73 44.0102 102.809 44.4616C102.867 44.7921 102.834 45.0875 102.709 45.3478C102.588 45.6033 102.385 45.8094 102.101 45.9662L103.363 47.2308L102.886 47.3191ZM101.299 45.8336C101.707 45.7581 102.003 45.6076 102.186 45.3822C102.37 45.1568 102.432 44.8768 102.373 44.5423C102.313 44.1997 102.159 43.9576 101.911 43.8162C101.663 43.6708 101.334 43.6359 100.926 43.7114L99.8306 43.9142L100.204 46.0364L101.299 45.8336Z" fill="white"/>
<path d="M107.212 46.5556C106.804 46.6312 106.419 46.6068 106.056 46.4824C105.698 46.3573 105.396 46.149 105.15 45.8574C104.907 45.561 104.75 45.2093 104.679 44.8022C104.607 44.3951 104.635 44.0112 104.762 43.6506C104.892 43.2851 105.106 42.9792 105.403 42.7327C105.7 42.4863 106.053 42.3253 106.461 42.2497C106.767 42.193 107.059 42.1931 107.337 42.2499C107.614 42.3067 107.861 42.4192 108.077 42.5873L107.85 42.9227C107.47 42.6477 107.034 42.5557 106.543 42.6465C106.217 42.7069 105.934 42.8383 105.694 43.0409C105.454 43.2435 105.281 43.492 105.175 43.7863C105.072 44.08 105.05 44.3921 105.108 44.7226C105.167 45.0531 105.294 45.3376 105.49 45.576C105.689 45.8137 105.936 45.9844 106.23 46.0882C106.524 46.1919 106.834 46.2136 107.16 46.1533C107.654 46.0617 108.031 45.8172 108.289 45.4198L108.616 45.6527C108.471 45.8877 108.276 46.0839 108.033 46.2414C107.792 46.3942 107.518 46.4989 107.212 46.5556Z" fill="white"/>
<path d="M113.438 40.9955L114.182 45.2278L113.752 45.3074L113.409 43.3545L110.83 43.8319L111.173 45.7848L110.738 45.8655L109.993 41.6332L110.429 41.5525L110.761 43.4389L113.34 42.9615L113.008 41.0751L113.438 40.9955Z" fill="white"/>
<path d="M119.464 43.8504L119.532 44.2374L116.617 44.777L115.873 40.5447L118.7 40.0215L118.768 40.4084L116.377 40.851L116.641 42.3565L118.773 41.9619L118.84 42.3428L116.708 42.7374L116.985 44.3094L119.464 43.8504Z" fill="white"/>
<path d="M124.46 43.325L123.279 42.139C123.175 42.1707 123.066 42.1971 122.952 42.2182L121.845 42.4232L122.081 43.7654L121.646 43.8461L120.902 39.6138L122.444 39.3282C122.97 39.2308 123.405 39.2835 123.749 39.4862C124.093 39.6889 124.304 40.016 124.384 40.4675C124.442 40.798 124.409 41.0934 124.284 41.3537C124.163 41.6092 123.96 41.8153 123.675 41.972L124.937 43.2367L124.46 43.325ZM122.874 41.8395C123.282 41.7639 123.578 41.6134 123.761 41.388C123.944 41.1627 124.007 40.8827 123.948 40.5481C123.888 40.2055 123.734 39.9635 123.486 39.8221C123.237 39.6767 122.909 39.6417 122.501 39.7173L121.405 39.9201L121.778 42.0423L122.874 41.8395Z" fill="white"/>
<path d="M17.1179 49.8116C16.8558 48.38 16.4996 46.5888 16.0493 44.438L8.17652 45.7411L6.75248 51.5274L0.557927 52.5527L8.43313 23.0695L17.5152 21.5662L23.5099 48.7536L17.1179 49.8116ZM14.8499 38.5813C14.3177 35.9524 13.7691 33.3261 13.204 30.7026L12.6981 28.2634C12.0416 30.7268 11.0724 34.4453 9.7906 39.4188L14.8499 38.5813Z" fill="white"/>
<path d="M43.0529 17.3779C42.788 21.7949 42.57 26.5146 42.399 31.5371C42.2271 36.5856 42.1239 41.2993 42.0893 45.6782L33.254 47.1407L28.0073 26.8162L27.7258 48.0557L21.3832 49.1056C21.6867 44.0353 21.9133 39.3012 22.0631 34.9032C22.212 30.5313 22.3065 25.832 22.3468 20.8052L31.4289 19.3019L36.6803 40.2079L37.0064 18.3787L43.0529 17.3779Z" fill="white"/>
<path d="M56.6735 43.2642C56.4114 41.8326 56.0552 40.0414 55.6049 37.8905L47.7322 39.1936L46.3081 44.9799L40.1136 46.0053L47.9888 16.522L57.0708 15.0187L63.0655 42.2061L56.6735 43.2642ZM54.4056 32.0339C53.8734 29.4049 53.3247 26.7787 52.7597 24.1552L52.2537 21.7159C51.5973 24.1794 50.6281 27.8979 49.3463 32.8713L54.4056 32.0339Z" fill="white"/>
<path d="M70.9099 24.8383L81.4481 23.094L80.8978 39.2545L76.5542 39.9734L76.2712 33.15C75.6934 35.7039 74.7507 37.6843 73.4431 39.0911C72.1355 40.4978 70.5685 41.3524 68.7422 41.6547C67.0805 41.9297 65.6196 41.5893 64.3597 40.6334C63.1162 39.6748 62.1615 38.1638 61.4956 36.1003C60.8461 34.0342 60.571 31.5438 60.6702 28.6292C60.8288 23.971 61.8344 20.143 63.687 17.1452C65.5397 14.1474 68.3252 12.3407 72.0436 11.7252C74.166 11.3739 76.0148 11.6113 77.59 12.4374C79.1816 13.2608 80.5061 14.7235 81.5633 16.8257C80.8026 17.5468 79.314 18.9835 77.0975 21.1359L76.4619 21.7845C75.8548 20.8758 75.1318 20.245 74.2931 19.8922C73.4553 19.5133 72.5592 19.4029 71.605 19.5608C70.0255 19.8223 68.8265 20.6806 68.008 22.1358C67.1904 23.565 66.7488 25.2424 66.6833 27.1681C66.6124 29.25 66.9666 30.8604 67.7458 31.9994C68.5415 33.1356 69.7949 33.5622 71.506 33.2789C72.2464 33.1564 72.9678 32.8688 73.6704 32.4161C74.3894 31.9607 75.0016 31.2771 75.5071 30.3654L70.6946 31.162L70.9099 24.8383Z" fill="white"/>
<path d="M101.556 7.65537C101.291 12.0724 101.072 16.8051 100.9 21.8537C100.729 26.9022 100.625 31.6159 100.591 35.9948L94.791 36.9548L95.1525 26.3373L86.0705 27.8406L85.709 38.4581L79.9093 39.4181C80.2128 34.3478 80.4394 29.6136 80.5892 25.2157C80.7389 20.8177 80.834 16.1054 80.8742 11.0787L86.6739 10.1187L86.3124 20.7362L95.3944 19.2329L95.756 8.61537L101.556 7.65537Z" fill="white"/>
<path d="M115.176 33.5806C114.913 32.1491 114.557 30.3578 114.107 28.207L106.234 29.5101L104.81 35.2964L98.6156 36.3217L106.491 6.83849L115.573 5.33518L121.568 32.5226L115.176 33.5806ZM112.908 22.3504C112.375 19.7214 111.827 17.0952 111.262 14.4716L110.756 12.0324C110.099 14.4958 109.13 18.2143 107.848 23.1878L112.908 22.3504Z" fill="white"/>
<path d="M135.496 30.2172C135.234 28.7856 134.877 26.9943 134.427 24.8435L126.554 26.1466L125.13 31.9329L118.936 32.9582L126.811 3.475L135.893 1.9717L141.888 29.1591L135.496 30.2172ZM133.228 18.9869C132.695 16.3579 132.147 13.7317 131.582 11.1082L131.076 8.66892C130.419 11.1324 129.45 14.8508 128.168 19.8243L133.228 18.9869Z" fill="white"/>
</svg>
