<svg width="146" height="63" viewBox="0 0 146 63" fill="none" xmlns="http://www.w3.org/2000/svg">
<path d="M25.1559 57.7096L26.8342 57.3989C27.2699 57.3183 27.6706 57.3377 28.0361 57.4573C28.401 57.5729 28.7041 57.7748 28.9453 58.0631C29.1857 58.3474 29.3421 58.6951 29.4144 59.1063C29.4867 59.5174 29.4589 59.9013 29.3311 60.2579C29.2026 60.6105 28.9874 60.9084 28.6857 61.1515C28.3831 61.3906 28.014 61.5505 27.5783 61.6312L25.9 61.9419L25.1559 57.7096ZM27.4867 61.2486C27.8478 61.1818 28.1511 61.0507 28.3965 60.8554C28.6411 60.6562 28.8154 60.4137 28.9192 60.1281C29.0223 59.8385 29.0441 59.5244 28.9846 59.1858C28.925 58.8473 28.798 58.5628 28.6035 58.3324C28.4082 58.0981 28.1624 57.9334 27.866 57.8384C27.5689 57.7394 27.2398 57.7234 26.8786 57.7902L25.6597 58.0159L26.2677 61.4743L27.4867 61.2486Z" fill="#232323"/>
<path d="M34.7012 59.913L34.7692 60.2999L31.8544 60.8396L31.1103 56.6073L33.9368 56.084L34.0048 56.471L31.6141 56.9136L31.8787 58.419L34.0104 58.0244L34.0774 58.4053L31.9457 58.8L32.2221 60.3719L34.7012 59.913Z" fill="#232323"/>
<path d="M38.0258 59.7345C37.7196 59.7912 37.4163 59.7953 37.1159 59.7469C36.8195 59.6977 36.5802 59.6047 36.398 59.4678L36.5082 59.0915C36.6843 59.2171 36.9045 59.3053 37.1688 59.3563C37.4324 59.4032 37.6958 59.4023 37.9588 59.3536C38.3278 59.2853 38.5925 59.1655 38.7529 58.9943C38.9126 58.8191 38.973 58.6206 38.934 58.3989C38.9043 58.2296 38.8295 58.1041 38.7097 58.0222C38.5938 57.9396 38.4587 57.8855 38.3042 57.86C38.149 57.8305 37.9362 57.8075 37.6658 57.7909C37.3415 57.7677 37.0807 57.7369 36.8834 57.6985C36.6855 57.6561 36.5063 57.5707 36.3459 57.4422C36.1894 57.313 36.0881 57.1174 36.0421 56.8554C36.0045 56.6418 36.0255 56.4382 36.1049 56.2445C36.1836 56.0468 36.3276 55.8745 36.5369 55.7275C36.7462 55.5805 37.0196 55.4758 37.3572 55.4133C37.5928 55.3697 37.8284 55.3615 38.0643 55.3886C38.3033 55.4109 38.5155 55.4652 38.7009 55.5516L38.6164 55.9356C38.4232 55.8507 38.2234 55.7982 38.0172 55.7781C37.8103 55.754 37.6126 55.7593 37.4242 55.7942C37.063 55.8611 36.8029 55.9842 36.6439 56.1634C36.4882 56.3379 36.4301 56.538 36.4698 56.7638C36.4996 56.9331 36.5727 57.061 36.6893 57.1476C36.8091 57.2295 36.9485 57.2849 37.1076 57.3137C37.2699 57.3377 37.4844 57.3584 37.7509 57.3756C38.0666 57.3963 38.3235 57.4278 38.5214 57.4702C38.7226 57.5079 38.9015 57.5913 39.0579 57.7205C39.2137 57.8456 39.3143 58.0372 39.3596 58.2952C39.3972 58.5088 39.3746 58.7148 39.292 58.9133C39.2125 59.1069 39.0662 59.2776 38.853 59.4253C38.6391 59.5689 38.3634 59.672 38.0258 59.7345Z" fill="#232323"/>
<path d="M40.851 54.804L41.2868 54.7233L42.0309 58.9556L41.5951 59.0363L40.851 54.804Z" fill="#232323"/>
<path d="M46.9924 55.852L47.4105 55.7746L47.6943 57.3889C47.5325 57.5979 47.3282 57.773 47.0814 57.9144C46.8347 58.0558 46.5661 58.1534 46.2756 58.2072C45.8634 58.2835 45.4761 58.2595 45.1138 58.1351C44.7514 58.0108 44.4473 57.8028 44.2015 57.5112C43.9549 57.2155 43.7959 56.8642 43.7243 56.4571C43.6527 56.05 43.6824 55.6657 43.8135 55.3043C43.9438 54.9389 44.1575 54.633 44.4547 54.3865C44.7518 54.1401 45.1085 53.9783 45.5246 53.9013C45.8387 53.8431 46.1364 53.8421 46.4179 53.8982C46.6986 53.9503 46.947 54.0604 47.163 54.2285L46.9421 54.5628C46.5581 54.2926 46.1149 54.204 45.6124 54.2971C45.2787 54.3588 44.9899 54.4914 44.746 54.6947C44.5053 54.8933 44.3321 55.1417 44.2265 55.4401C44.1201 55.7345 44.096 56.047 44.1541 56.3775C44.2123 56.708 44.3412 56.9921 44.5411 57.2298C44.741 57.4675 44.9879 57.6382 45.2818 57.7419C45.5756 57.8457 45.8894 57.8667 46.2231 57.8049C46.6471 57.7264 46.9871 57.5511 47.2433 57.2789L46.9924 55.852Z" fill="#232323"/>
<path d="M52.8059 52.5907L53.5501 56.823L53.1908 56.8895L49.9372 53.9459L50.541 57.3801L50.1052 57.4608L49.3611 53.2285L49.7203 53.162L52.9799 56.1045L52.3761 52.6703L52.8059 52.5907Z" fill="#232323"/>
<path d="M58.8316 55.4457L58.8997 55.8326L55.9848 56.3723L55.2407 52.14L58.0672 51.6167L58.1353 52.0037L55.7445 52.4463L56.0092 53.9518L58.1409 53.5571L58.2078 53.938L56.0762 54.3327L56.3526 55.9047L58.8316 55.4457Z" fill="#232323"/>
<path d="M63.8281 54.9202L62.6467 53.7343C62.5429 53.766 62.434 53.7924 62.3202 53.8135L61.2131 54.0184L61.4491 55.3607L61.0134 55.4413L60.2692 51.2091L61.812 50.9234C62.3381 50.826 62.773 50.8787 63.1167 51.0815C63.4604 51.2842 63.6719 51.6113 63.7513 52.0627C63.8094 52.3932 63.7762 52.6886 63.6517 52.9489C63.5305 53.2044 63.3275 53.4106 63.043 53.5673L64.3051 54.8319L63.8281 54.9202ZM62.2414 53.4348C62.6497 53.3592 62.9455 53.2087 63.1288 52.9833C63.3121 52.7579 63.3744 52.4779 63.3155 52.1434C63.2553 51.8008 63.1013 51.5588 62.8535 51.4174C62.605 51.2719 62.2766 51.237 61.8683 51.3126L60.773 51.5153L61.1461 53.6375L62.2414 53.4348Z" fill="#232323"/>
<path d="M71.9505 53.4852L71.273 52.9863C70.991 53.4339 70.5653 53.7104 69.9961 53.8158C69.7292 53.8652 69.4819 53.8652 69.2543 53.8158C69.03 53.7616 68.8447 53.6648 68.6986 53.5254C68.5518 53.3819 68.4599 53.2054 68.4231 52.9958C68.3784 52.7419 68.4169 52.4996 68.5385 52.269C68.6601 52.0384 68.8898 51.7773 69.2277 51.4859C68.9946 51.3126 68.828 51.1603 68.7279 51.029C68.6271 50.8937 68.5621 50.7434 68.5331 50.5781C68.4856 50.3081 68.5415 50.073 68.7009 49.8728C68.8603 49.6727 69.099 49.5432 69.417 49.4843C69.7114 49.4298 69.9581 49.4611 70.157 49.5783C70.356 49.6954 70.4785 49.885 70.5245 50.147C70.5614 50.3566 70.526 50.5588 70.4184 50.7535C70.31 50.9442 70.1048 51.1716 69.8026 51.4356L71.1437 52.4234C71.2289 52.1704 71.2733 51.8813 71.2769 51.556L71.6376 51.6016C71.6296 51.9943 71.565 52.3413 71.4437 52.6426L72.142 53.1563L71.9505 53.4852ZM69.4733 49.8048C69.2692 49.8425 69.1174 49.9247 69.0181 50.0513C68.9227 50.1772 68.8902 50.3268 68.9207 50.5001C68.9426 50.6251 68.9949 50.7382 69.0776 50.8394C69.1602 50.9407 69.3108 51.0709 69.5294 51.2302C69.7965 50.9977 69.9761 50.8084 70.0679 50.6623C70.1598 50.5163 70.1926 50.3687 70.1664 50.2196C70.1381 50.0583 70.0627 49.9412 69.9405 49.8681C69.8174 49.791 69.6617 49.7699 69.4733 49.8048ZM69.9569 53.4547C70.4123 53.3704 70.7533 53.1429 70.98 52.7721L69.5069 51.6901C69.2143 51.9399 69.0187 52.153 68.92 52.3294C68.8253 52.5051 68.7945 52.6877 68.8278 52.8772C68.8682 53.1069 68.9911 53.2756 69.1965 53.3832C69.4051 53.4861 69.6586 53.51 69.9569 53.4547Z" fill="#232323"/>
<path d="M79.4625 52.0258L78.2811 50.8399C78.1772 50.8716 78.0684 50.898 77.9545 50.9191L76.8475 51.124L77.0835 52.4663L76.6477 52.5469L75.9036 48.3146L77.4464 48.029C77.9724 47.9316 78.4073 47.9843 78.751 48.187C79.0947 48.3898 79.3063 48.7169 79.3857 49.1683C79.4438 49.4988 79.4106 49.7942 79.2861 50.0545C79.1648 50.31 78.9619 50.5162 78.6774 50.6729L79.9394 51.9375L79.4625 52.0258ZM77.8758 50.5403C78.2841 50.4648 78.5798 50.3143 78.7632 50.0889C78.9465 49.8635 79.0087 49.5835 78.9499 49.249C78.8897 48.9064 78.7356 48.6644 78.4878 48.5229C78.2393 48.3775 77.9109 48.3426 77.5027 48.4182L76.4074 48.6209L76.7805 50.7431L77.8758 50.5403Z" fill="#232323"/>
<path d="M84.8393 50.6309L84.9073 51.0178L81.9925 51.5574L81.2484 47.3252L84.0749 46.8019L84.1429 47.1888L81.7522 47.6314L82.0169 49.1369L84.1485 48.7423L84.2155 49.1232L82.0838 49.5178L82.3602 51.0898L84.8393 50.6309Z" fill="#232323"/>
<path d="M88.1639 50.4524C87.8577 50.5091 87.5544 50.5132 87.254 50.4648C86.9576 50.4156 86.7183 50.3226 86.5361 50.1856L86.6463 49.8094C86.8224 49.9349 87.0426 50.0232 87.307 50.0741C87.5706 50.1211 87.8339 50.1202 88.0969 50.0715C88.4659 50.0032 88.7307 49.8834 88.8911 49.7122C89.0508 49.537 89.1111 49.3385 89.0722 49.1168C89.0424 48.9475 88.9676 48.8219 88.8478 48.7401C88.732 48.6575 88.5968 48.6034 88.4423 48.5779C88.2872 48.5484 88.0744 48.5253 87.8039 48.5088C87.4796 48.4856 87.2188 48.4548 87.0216 48.4164C86.8236 48.374 86.6444 48.2885 86.484 48.1601C86.3275 48.0309 86.2263 47.8353 86.1802 47.5733C86.1426 47.3597 86.1636 47.156 86.243 46.9624C86.3218 46.7647 86.4658 46.5923 86.675 46.4454C86.8843 46.2984 87.1577 46.1937 87.4954 46.1312C87.7309 46.0876 87.9666 46.0793 88.2024 46.1064C88.4414 46.1288 88.6536 46.1831 88.8391 46.2695L88.7546 46.6535C88.5613 46.5686 88.3615 46.5161 88.1553 46.496C87.9484 46.4718 87.7508 46.4772 87.5623 46.5121C87.2012 46.579 86.9411 46.702 86.7821 46.8813C86.6263 47.0558 86.5683 47.2559 86.6079 47.4816C86.6377 47.6509 86.7109 47.7789 86.8274 47.8655C86.9472 47.9474 87.0867 48.0027 87.2458 48.0316C87.4081 48.0556 87.6225 48.0763 87.889 48.0935C88.2047 48.1141 88.4616 48.1457 88.6596 48.1881C88.8608 48.2258 89.0396 48.3092 89.1961 48.4384C89.3518 48.5635 89.4524 48.7551 89.4978 49.0131C89.5353 49.2267 89.5128 49.4327 89.4301 49.6311C89.3507 49.8248 89.2043 49.9955 88.9912 50.1432C88.7773 50.2868 88.5015 50.3899 88.1639 50.4524Z" fill="#232323"/>
<path d="M94.5801 48.8276L94.6481 49.2145L91.7332 49.7541L90.9891 45.5218L93.8157 44.9986L93.8837 45.3855L91.4929 45.8281L91.7576 47.3336L93.8893 46.939L93.9562 47.3199L91.8246 47.7145L92.101 49.2865L94.5801 48.8276Z" fill="#232323"/>
<path d="M99.1481 47.214L96.8515 47.6392L96.5557 48.8614L96.1022 48.9453L97.2425 44.3642L97.6723 44.2846L100.301 48.168L99.8415 48.2531L99.1481 47.214ZM98.9253 46.8807L97.5363 44.7905L96.9467 47.247L98.9253 46.8807Z" fill="#232323"/>
<path d="M104.887 47.319L103.705 46.1331C103.602 46.1648 103.493 46.1912 103.379 46.2122L102.272 46.4172L102.508 47.7594L102.072 47.8401L101.328 43.6078L102.871 43.3222C103.397 43.2248 103.832 43.2775 104.175 43.4802C104.519 43.6829 104.731 44.01 104.81 44.4615C104.868 44.792 104.835 45.0874 104.71 45.3477C104.589 45.6032 104.386 45.8093 104.102 45.9661L105.364 47.2307L104.887 47.319ZM103.3 45.8335C103.708 45.7579 104.004 45.6074 104.188 45.3821C104.371 45.1567 104.433 44.8767 104.374 44.5422C104.314 44.1995 104.16 43.9575 103.912 43.8161C103.664 43.6707 103.335 43.6357 102.927 43.7113L101.832 43.9141L102.205 46.0363L103.3 45.8335Z" fill="#232323"/>
<path d="M109.213 46.5555C108.805 46.6311 108.42 46.6067 108.057 46.4823C107.699 46.3572 107.397 46.1489 107.151 45.8573C106.908 45.5609 106.751 45.2092 106.68 44.8021C106.608 44.395 106.636 44.0111 106.763 43.6504C106.893 43.285 107.107 42.9791 107.404 42.7326C107.701 42.4862 108.054 42.3251 108.462 42.2496C108.769 42.1929 109.06 42.1929 109.338 42.2498C109.615 42.3066 109.862 42.4191 110.078 42.5872L109.851 42.9226C109.471 42.6476 109.035 42.5556 108.544 42.6464C108.218 42.7067 107.936 42.8382 107.696 43.0408C107.456 43.2434 107.282 43.4919 107.176 43.7862C107.074 44.0799 107.051 44.392 107.11 44.7225C107.168 45.053 107.295 45.3375 107.491 45.5759C107.691 45.8136 107.937 45.9843 108.231 46.088C108.525 46.1918 108.835 46.2135 109.161 46.1532C109.655 46.0616 110.032 45.8171 110.29 45.4196L110.617 45.6526C110.472 45.8875 110.278 46.0838 110.034 46.2413C109.793 46.3941 109.52 46.4988 109.213 46.5555Z" fill="#232323"/>
<path d="M115.439 40.9954L116.183 45.2276L115.754 45.3072L115.41 43.3543L112.831 43.8318L113.174 45.7847L112.739 45.8654L111.995 41.6331L112.43 41.5524L112.762 43.4388L115.341 42.9613L115.009 41.0749L115.439 40.9954Z" fill="#232323"/>
<path d="M121.465 43.8503L121.533 44.2373L118.618 44.7769L117.874 40.5446L120.701 40.0213L120.769 40.4083L118.378 40.8509L118.643 42.3564L120.774 41.9617L120.841 42.3426L118.71 42.7373L118.986 44.3093L121.465 43.8503Z" fill="#232323"/>
<path d="M126.461 43.3249L125.28 42.1389C125.176 42.1706 125.067 42.197 124.954 42.2181L123.846 42.423L124.082 43.7653L123.647 43.846L122.903 39.6137L124.445 39.3281C124.971 39.2307 125.406 39.2833 125.75 39.4861C126.094 39.6888 126.305 40.0159 126.385 40.4673C126.443 40.7979 126.41 41.0933 126.285 41.3535C126.164 41.6091 125.961 41.8152 125.676 41.9719L126.938 43.2366L126.461 43.3249ZM124.875 41.8394C125.283 41.7638 125.579 41.6133 125.762 41.3879C125.945 41.1625 126.008 40.8826 125.949 40.548C125.889 40.2054 125.735 39.9634 125.487 39.822C125.238 39.6765 124.91 39.6416 124.502 39.7172L123.406 39.92L123.78 42.0421L124.875 41.8394Z" fill="#232323"/>
<path d="M19.1193 49.8116C18.8572 48.38 18.501 46.5888 18.0507 44.438L10.178 45.7411L8.75395 51.5274L2.55939 52.5527L10.4346 23.0695L19.5167 21.5662L25.5113 48.7536L19.1193 49.8116ZM16.8514 38.5813C16.3192 35.9524 15.7706 33.3261 15.2055 30.7026L14.6996 28.2634C14.0431 30.7268 13.0739 34.4453 11.7921 39.4188L16.8514 38.5813Z" fill="#232323"/>
<path d="M45.0544 17.3779C44.7895 21.7949 44.5715 26.5146 44.4005 31.5371C44.2286 36.5856 44.1253 41.2993 44.0908 45.6782L35.2555 47.1407L30.0088 26.8162L29.7273 48.0557L23.3847 49.1056C23.6882 44.0353 23.9148 39.3012 24.0646 34.9032C24.2134 30.5313 24.308 25.832 24.3483 20.8052L33.4303 19.3019L38.6818 40.2079L39.0079 18.3787L45.0544 17.3779Z" fill="#232323"/>
<path d="M58.675 43.2642C58.4129 41.8326 58.0567 40.0414 57.6064 37.8905L49.7336 39.1936L48.3096 44.9799L42.115 46.0053L49.9903 16.522L59.0723 15.0187L65.067 42.2061L58.675 43.2642ZM56.407 32.0339C55.8748 29.4049 55.3262 26.7787 54.7611 24.1552L54.2552 21.7159C53.5987 24.1794 52.6296 27.8979 51.3477 32.8713L56.407 32.0339Z" fill="#232323"/>
<path d="M72.9114 24.8383L83.4495 23.094L82.8993 39.2545L78.5557 39.9734L78.2727 33.15C77.6949 35.7039 76.7522 37.6843 75.4446 39.0911C74.1369 40.4978 72.57 41.3524 70.7437 41.6547C69.0819 41.9297 67.6211 41.5893 66.3612 40.6334C65.1177 39.6748 64.163 38.1638 63.4971 36.1003C62.8476 34.0342 62.5724 31.5438 62.6717 28.6292C62.8303 23.971 63.8359 20.143 65.6885 17.1452C67.5411 14.1474 70.3266 12.3407 74.045 11.7252C76.1675 11.3739 78.0163 11.6113 79.5914 12.4374C81.1831 13.2608 82.5075 14.7235 83.5648 16.8257C82.804 17.5468 81.3154 18.9835 79.0989 21.1359L78.4633 21.7845C77.8562 20.8758 77.1333 20.245 76.2946 19.8922C75.4568 19.5133 74.5607 19.4029 73.6064 19.5608C72.0269 19.8223 70.828 20.6806 70.0095 22.1358C69.1919 23.565 68.7503 25.2424 68.6847 27.1681C68.6138 29.25 68.968 30.8604 69.7472 31.9994C70.5429 33.1356 71.7963 33.5622 73.5074 33.2789C74.2478 33.1564 74.9693 32.8688 75.6718 32.4161C76.3908 31.9607 77.0031 31.2771 77.5086 30.3654L72.6961 31.162L72.9114 24.8383Z" fill="#232323"/>
<path d="M103.557 7.65538C103.292 12.0724 103.074 16.8051 102.902 21.8537C102.73 26.9022 102.627 31.6159 102.592 35.9948L96.7925 36.9548L97.154 26.3373L88.072 27.8406L87.7104 38.4581L81.9108 39.4181C82.2143 34.3478 82.4409 29.6136 82.5907 25.2157C82.7404 20.8177 82.8354 16.1054 82.8757 11.0787L88.6754 10.1187L88.3139 20.7362L97.3959 19.2329L97.7574 8.61537L103.557 7.65538Z" fill="#232323"/>
<path d="M117.177 33.5806C116.915 32.1491 116.559 30.3578 116.108 28.207L108.236 29.5101L106.812 35.2964L100.617 36.3217L108.492 6.83849L117.574 5.33518L123.569 32.5226L117.177 33.5806ZM114.909 22.3504C114.377 19.7214 113.828 17.0952 113.263 14.4716L112.757 12.0324C112.101 14.4958 111.132 18.2143 109.85 23.1878L114.909 22.3504Z" fill="#232323"/>
<path d="M137.497 30.2172C137.235 28.7856 136.879 26.9943 136.429 24.8435L128.556 26.1466L127.132 31.9329L120.937 32.9582L128.812 3.475L137.894 1.9717L143.889 29.1591L137.497 30.2172ZM135.229 18.9869C134.697 16.3579 134.148 13.7317 133.583 11.1082L133.077 8.66892C132.421 11.1324 131.452 14.8508 130.17 19.8243L135.229 18.9869Z" fill="#232323"/>
</svg>
