<svg width="1400" height="900" viewBox="0 0 1400 900" fill="none" xmlns="http://www.w3.org/2000/svg">
<rect width="1400" height="900" fill="#FCDC4D"/>
<circle cx="1200.5" cy="668.5" r="137.5" fill="#FFC002"/>
<path d="M55.46 849.13L55.46 847.366C55.46 846.451 55.1707 845.7 54.592 845.112C54.004 844.515 53.1593 844.216 52.058 844.216C50.9473 844.216 50.098 844.51 49.51 845.098C48.9127 845.686 48.614 846.437 48.614 847.352L48.614 849.13L55.46 849.13ZM57 847.31L57 850.81L47.074 850.81L47.074 847.296C47.074 845.896 47.5173 844.743 48.404 843.838C49.2907 842.923 50.5087 842.466 52.058 842.466C53.598 842.466 54.8067 842.923 55.684 843.838C56.5613 844.753 57 845.91 57 847.31ZM57 839.656L57 841.266L50.182 841.266L50.182 839.656L57 839.656ZM48.53 841.21C48.3247 841.416 48.0773 841.518 47.788 841.518C47.4987 841.518 47.2513 841.416 47.046 841.21C46.8313 841.005 46.724 840.758 46.724 840.468C46.724 840.17 46.8267 839.918 47.032 839.712C47.2373 839.507 47.4893 839.404 47.788 839.404C48.0773 839.404 48.3247 839.507 48.53 839.712C48.7353 839.918 48.838 840.17 48.838 840.468C48.838 840.758 48.7353 841.005 48.53 841.21ZM55.152 838.583L54.76 837.169C55.0867 837.141 55.362 837.006 55.586 836.763C55.81 836.521 55.922 836.194 55.922 835.783C55.922 835.466 55.8473 835.219 55.698 835.041C55.5487 834.855 55.362 834.761 55.138 834.761C54.746 834.761 54.494 835.027 54.382 835.559L54.158 836.567C54.0273 837.155 53.7847 837.608 53.43 837.925C53.0753 838.243 52.6553 838.401 52.17 838.401C51.5727 838.401 51.0593 838.159 50.63 837.673C50.1913 837.188 49.972 836.595 49.972 835.895C49.972 835.447 50.0373 835.051 50.168 834.705C50.2987 834.36 50.4713 834.094 50.686 833.907C50.8913 833.711 51.092 833.562 51.288 833.459C51.484 833.357 51.68 833.291 51.876 833.263L52.268 834.635C52.0067 834.673 51.7733 834.794 51.568 834.999C51.3533 835.195 51.246 835.494 51.246 835.895C51.246 836.175 51.3253 836.409 51.484 836.595C51.6333 836.782 51.8153 836.875 52.03 836.875C52.4127 836.875 52.6507 836.647 52.744 836.189L52.954 835.153C53.094 834.519 53.346 834.033 53.71 833.697C54.074 833.361 54.5127 833.193 55.026 833.193C55.5953 833.193 56.104 833.422 56.552 833.879C56.9907 834.327 57.21 834.957 57.21 835.769C57.21 836.236 57.14 836.656 57 837.029C56.86 837.393 56.6827 837.683 56.468 837.897C56.244 838.103 56.0247 838.266 55.81 838.387C55.586 838.499 55.3667 838.565 55.152 838.583ZM51.47 829.076C51.47 829.599 51.6613 830.042 52.044 830.406C52.4173 830.77 52.9307 830.952 53.584 830.952C54.2467 830.952 54.7693 830.77 55.152 830.406C55.5347 830.033 55.726 829.58 55.726 829.048C55.726 828.572 55.6 828.194 55.348 827.914C55.0867 827.625 54.7927 827.433 54.466 827.34L54.984 825.912C55.5907 826.099 56.1133 826.463 56.552 827.004C56.9907 827.536 57.21 828.217 57.21 829.048C57.21 830.047 56.8647 830.887 56.174 831.568C55.4833 832.24 54.62 832.576 53.584 832.576C52.5387 832.576 51.6753 832.245 50.994 831.582C50.3127 830.91 49.972 830.079 49.972 829.09C49.972 828.241 50.1913 827.55 50.63 827.018C51.0687 826.477 51.596 826.127 52.212 825.968L52.744 827.424C52.3893 827.517 52.0907 827.699 51.848 827.97C51.596 828.231 51.47 828.6 51.47 829.076ZM55.18 823.32C55.5627 822.947 55.754 822.494 55.754 821.962C55.754 821.43 55.5627 820.982 55.18 820.618C54.7973 820.245 54.2653 820.058 53.584 820.058C52.912 820.058 52.3893 820.245 52.016 820.618C51.6333 820.982 51.442 821.43 51.442 821.962C51.442 822.494 51.6333 822.947 52.016 823.32C52.3893 823.684 52.912 823.866 53.584 823.866C54.256 823.866 54.788 823.684 55.18 823.32ZM49.972 821.962C49.972 820.935 50.3127 820.091 50.994 819.428C51.6753 818.756 52.5387 818.42 53.584 818.42C54.6293 818.42 55.4973 818.756 56.188 819.428C56.8693 820.091 57.21 820.935 57.21 821.962C57.21 822.979 56.8693 823.824 56.188 824.496C55.4973 825.159 54.6293 825.49 53.584 825.49C52.5387 825.49 51.6753 825.159 50.994 824.496C50.3127 823.824 49.972 822.979 49.972 821.962ZM50.182 811.316L57 813.99L57 815.614L50.182 818.386L50.182 816.594L55.054 814.788L50.182 813.024L50.182 811.316ZM52.842 809.611L52.842 806.265C52.4127 806.284 52.0533 806.438 51.764 806.727C51.4747 807.007 51.33 807.413 51.33 807.945C51.33 808.431 51.484 808.823 51.792 809.121C52.0907 809.42 52.4407 809.583 52.842 809.611ZM54.62 806.083L55.054 804.711C55.6793 804.907 56.1973 805.276 56.608 805.817C57.0093 806.349 57.21 807.007 57.21 807.791C57.21 808.762 56.8787 809.588 56.216 810.269C55.5533 810.941 54.6667 811.277 53.556 811.277C52.5107 811.277 51.652 810.951 50.98 810.297C50.308 809.635 49.972 808.855 49.972 807.959C49.972 806.914 50.294 806.097 50.938 805.509C51.5727 804.921 52.4313 804.627 53.514 804.627C53.8033 804.627 53.976 804.641 54.032 804.669L54.032 809.653C54.5453 809.635 54.97 809.448 55.306 809.093C55.642 808.729 55.81 808.295 55.81 807.791C55.81 806.914 55.4133 806.345 54.62 806.083ZM50.14 799.505L51.792 799.505C51.764 799.692 51.75 799.869 51.75 800.037C51.75 801.26 52.4173 801.871 53.752 801.871L57 801.871L57 803.495L50.182 803.495L50.182 801.913L51.274 801.913C50.91 801.755 50.6253 801.498 50.42 801.143C50.2053 800.789 50.098 800.387 50.098 799.939C50.098 799.79 50.112 799.645 50.14 799.505ZM56.762 799.549C56.538 799.764 56.2673 799.871 55.95 799.871C55.6327 799.871 55.362 799.764 55.138 799.549C54.914 799.325 54.802 799.055 54.802 798.737C54.802 798.42 54.914 798.149 55.138 797.925C55.362 797.701 55.6327 797.589 55.95 797.589C56.2673 797.589 56.538 797.701 56.762 797.925C56.9767 798.149 57.084 798.42 57.084 798.737C57.084 799.055 56.9767 799.325 56.762 799.549ZM55.46 728.259L55.46 726.495C55.46 725.58 55.1707 724.829 54.592 724.241C54.004 723.643 53.1593 723.345 52.058 723.345C50.9473 723.345 50.098 723.639 49.51 724.227C48.9127 724.815 48.614 725.566 48.614 726.481L48.614 728.259L55.46 728.259ZM57 726.439L57 729.939L47.074 729.939L47.074 726.425C47.074 725.025 47.5173 723.872 48.404 722.967C49.2907 722.052 50.5087 721.595 52.058 721.595C53.598 721.595 54.8067 722.052 55.684 722.967C56.5613 723.881 57 725.039 57 726.439ZM52.842 719.234L52.842 715.888C52.4127 715.906 52.0533 716.06 51.764 716.35C51.4747 716.63 51.33 717.036 51.33 717.568C51.33 718.053 51.484 718.445 51.792 718.744C52.0907 719.042 52.4407 719.206 52.842 719.234ZM54.62 715.706L55.054 714.334C55.6793 714.53 56.1973 714.898 56.608 715.44C57.0093 715.972 57.21 716.63 57.21 717.414C57.21 718.384 56.8787 719.21 56.216 719.892C55.5533 720.564 54.6667 720.9 53.556 720.9C52.5107 720.9 51.652 720.573 50.98 719.92C50.308 719.257 49.972 718.478 49.972 717.582C49.972 716.536 50.294 715.72 50.938 715.132C51.5727 714.544 52.4313 714.25 53.514 714.25C53.8033 714.25 53.976 714.264 54.032 714.292L54.032 719.276C54.5453 719.257 54.97 719.07 55.306 718.716C55.642 718.352 55.81 717.918 55.81 717.414C55.81 716.536 55.4133 715.967 54.62 715.706ZM50.182 707.095L57 709.769L57 711.393L50.182 714.165L50.182 712.373L55.054 710.567L50.182 708.803L50.182 707.095ZM52.842 705.39L52.842 702.044C52.4127 702.063 52.0533 702.217 51.764 702.506C51.4747 702.786 51.33 703.192 51.33 703.724C51.33 704.209 51.484 704.601 51.792 704.9C52.0907 705.199 52.4407 705.362 52.842 705.39ZM54.62 701.862L55.054 700.49C55.6793 700.686 56.1973 701.055 56.608 701.596C57.0093 702.128 57.21 702.786 57.21 703.57C57.21 704.541 56.8787 705.367 56.216 706.048C55.5533 706.72 54.6667 707.056 53.556 707.056C52.5107 707.056 51.652 706.729 50.98 706.076C50.308 705.413 49.972 704.634 49.972 703.738C49.972 702.693 50.294 701.876 50.938 701.288C51.5727 700.7 52.4313 700.406 53.514 700.406C53.8033 700.406 53.976 700.42 54.032 700.448L54.032 705.432C54.5453 705.413 54.97 705.227 55.306 704.872C55.642 704.508 55.81 704.074 55.81 703.57C55.81 702.693 55.4133 702.123 54.62 701.862ZM57 697.65L57 699.274L46.864 699.274L46.864 697.65L57 697.65ZM55.18 694.337C55.5627 693.964 55.754 693.511 55.754 692.979C55.754 692.447 55.5627 691.999 55.18 691.635C54.7973 691.262 54.2653 691.075 53.584 691.075C52.912 691.075 52.3893 691.262 52.016 691.635C51.6333 691.999 51.442 692.447 51.442 692.979C51.442 693.511 51.6333 693.964 52.016 694.337C52.3893 694.701 52.912 694.883 53.584 694.883C54.256 694.883 54.788 694.701 55.18 694.337ZM49.972 692.979C49.972 691.953 50.3127 691.108 50.994 690.445C51.6753 689.773 52.5387 689.437 53.584 689.437C54.6293 689.437 55.4973 689.773 56.188 690.445C56.8693 691.108 57.21 691.953 57.21 692.979C57.21 693.997 56.8693 694.841 56.188 695.513C55.4973 696.176 54.6293 696.507 53.584 696.507C52.5387 696.507 51.6753 696.176 50.994 695.513C50.3127 694.841 49.972 693.997 49.972 692.979ZM59.66 686.678L59.66 688.288L50.182 688.288L50.182 686.72L51.106 686.72C50.798 686.543 50.5413 686.263 50.336 685.88C50.1307 685.497 50.028 685.054 50.028 684.55C50.028 683.57 50.364 682.8 51.036 682.24C51.6987 681.68 52.548 681.4 53.584 681.4C54.62 681.4 55.4787 681.694 56.16 682.282C56.832 682.87 57.168 683.645 57.168 684.606C57.168 685.073 57.0793 685.488 56.902 685.852C56.7247 686.216 56.5007 686.491 56.23 686.678L59.66 686.678ZM53.584 683.024C52.9493 683.024 52.4407 683.192 52.058 683.528C51.666 683.864 51.47 684.307 51.47 684.858C51.47 685.399 51.666 685.843 52.058 686.188C52.4407 686.524 52.9493 686.692 53.584 686.692C54.228 686.692 54.746 686.524 55.138 686.188C55.53 685.843 55.726 685.399 55.726 684.858C55.726 684.317 55.53 683.878 55.138 683.542C54.746 683.197 54.228 683.024 53.584 683.024ZM56.762 680.281C56.538 680.496 56.2673 680.603 55.95 680.603C55.6327 680.603 55.362 680.496 55.138 680.281C54.914 680.057 54.802 679.787 54.802 679.469C54.802 679.152 54.914 678.881 55.138 678.657C55.362 678.433 55.6327 678.321 55.95 678.321C56.2673 678.321 56.538 678.433 56.762 678.657C56.9767 678.881 57.084 679.152 57.084 679.469C57.084 679.787 56.9767 680.057 56.762 680.281ZM55.46 671.896L55.46 670.132C55.46 669.217 55.1707 668.466 54.592 667.878C54.004 667.281 53.1593 666.982 52.058 666.982C50.9473 666.982 50.098 667.276 49.51 667.864C48.9127 668.452 48.614 669.203 48.614 670.118L48.614 671.896L55.46 671.896ZM57 670.076L57 673.576L47.074 673.576L47.074 670.062C47.074 668.662 47.5173 667.509 48.404 666.604C49.2907 665.689 50.5087 665.232 52.058 665.232C53.598 665.232 54.8067 665.689 55.684 666.604C56.5613 667.519 57 668.676 57 670.076ZM52.842 662.871L52.842 659.525C52.4127 659.544 52.0533 659.698 51.764 659.987C51.4747 660.267 51.33 660.673 51.33 661.205C51.33 661.69 51.484 662.082 51.792 662.381C52.0907 662.68 52.4407 662.843 52.842 662.871ZM54.62 659.343L55.054 657.971C55.6793 658.167 56.1973 658.536 56.608 659.077C57.0093 659.609 57.21 660.267 57.21 661.051C57.21 662.022 56.8787 662.848 56.216 663.529C55.5533 664.201 54.6667 664.537 53.556 664.537C52.5107 664.537 51.652 664.21 50.98 663.557C50.308 662.894 49.972 662.115 49.972 661.219C49.972 660.174 50.294 659.357 50.938 658.769C51.5727 658.181 52.4313 657.887 53.514 657.887C53.8033 657.887 53.976 657.901 54.032 657.929L54.032 662.913C54.5453 662.894 54.97 662.708 55.306 662.353C55.642 661.989 55.81 661.555 55.81 661.051C55.81 660.174 55.4133 659.604 54.62 659.343ZM57 655.131L57 656.755L46.864 656.755L46.864 655.131L57 655.131ZM57 651.846L57 653.456L50.182 653.456L50.182 651.846L57 651.846ZM48.53 653.4C48.3247 653.606 48.0773 653.708 47.788 653.708C47.4987 653.708 47.2513 653.606 47.046 653.4C46.8313 653.195 46.724 652.948 46.724 652.658C46.724 652.36 46.8267 652.108 47.032 651.902C47.2373 651.697 47.4893 651.594 47.788 651.594C48.0773 651.594 48.3247 651.697 48.53 651.902C48.7353 652.108 48.838 652.36 48.838 652.658C48.838 652.948 48.7353 653.195 48.53 653.4ZM50.182 644.011L57 646.685L57 648.309L50.182 651.081L50.182 649.289L55.054 647.483L50.182 645.719L50.182 644.011ZM52.842 642.307L52.842 638.961C52.4127 638.98 52.0533 639.134 51.764 639.423C51.4747 639.703 51.33 640.109 51.33 640.641C51.33 641.126 51.484 641.518 51.792 641.817C52.0907 642.116 52.4407 642.279 52.842 642.307ZM54.62 638.779L55.054 637.407C55.6793 637.603 56.1973 637.972 56.608 638.513C57.0093 639.045 57.21 639.703 57.21 640.487C57.21 641.458 56.8787 642.284 56.216 642.965C55.5533 643.637 54.6667 643.973 53.556 643.973C52.5107 643.973 51.652 643.646 50.98 642.993C50.308 642.33 49.972 641.551 49.972 640.655C49.972 639.61 50.294 638.793 50.938 638.205C51.5727 637.617 52.4313 637.323 53.514 637.323C53.8033 637.323 53.976 637.337 54.032 637.365L54.032 642.349C54.5453 642.33 54.97 642.144 55.306 641.789C55.642 641.425 55.81 640.991 55.81 640.487C55.81 639.61 55.4133 639.04 54.62 638.779ZM50.14 632.201L51.792 632.201C51.764 632.388 51.75 632.565 51.75 632.733C51.75 633.956 52.4173 634.567 53.752 634.567L57 634.567L57 636.191L50.182 636.191L50.182 634.609L51.274 634.609C50.91 634.45 50.6253 634.194 50.42 633.839C50.2053 633.484 50.098 633.083 50.098 632.635C50.098 632.486 50.112 632.341 50.14 632.201Z" fill="#FFBF00"/>
<path d="M55.46 788.111L55.46 786.347C55.46 785.433 55.1707 784.681 54.592 784.093C54.004 783.496 53.1593 783.197 52.058 783.197C50.9473 783.197 50.098 783.491 49.51 784.079C48.9127 784.667 48.614 785.419 48.614 786.333L48.614 788.111L55.46 788.111ZM57 786.291L57 789.791L47.074 789.791L47.074 786.277C47.074 784.877 47.5173 783.725 48.404 782.819C49.2907 781.905 50.5087 781.447 52.058 781.447C53.598 781.447 54.8067 781.905 55.684 782.819C56.5613 783.734 57 784.891 57 786.291ZM52.842 779.086L52.842 775.74C52.4127 775.759 52.0533 775.913 51.764 776.202C51.4747 776.482 51.33 776.888 51.33 777.42C51.33 777.906 51.484 778.298 51.792 778.596C52.0907 778.895 52.4407 779.058 52.842 779.086ZM54.62 775.558L55.054 774.186C55.6793 774.382 56.1973 774.751 56.608 775.292C57.0093 775.824 57.21 776.482 57.21 777.266C57.21 778.237 56.8787 779.063 56.216 779.744C55.5533 780.416 54.6667 780.752 53.556 780.752C52.5107 780.752 51.652 780.426 50.98 779.772C50.308 779.11 49.972 778.33 49.972 777.434C49.972 776.389 50.294 775.572 50.938 774.984C51.5727 774.396 52.4313 774.102 53.514 774.102C53.8033 774.102 53.976 774.116 54.032 774.144L54.032 779.128C54.5453 779.11 54.97 778.923 55.306 778.568C55.642 778.204 55.81 777.77 55.81 777.266C55.81 776.389 55.4133 775.82 54.62 775.558ZM46.794 770.213C46.794 769.83 46.8407 769.545 46.934 769.359L48.32 769.359C48.2733 769.527 48.25 769.723 48.25 769.947C48.25 770.208 48.3293 770.441 48.488 770.647C48.6467 770.852 48.9127 770.955 49.286 770.955L50.182 770.955L50.182 766.419L57 766.419L57 768.015L51.596 768.015L51.596 770.955L57 770.955L57 772.593L51.596 772.593L51.596 773.783L50.182 773.783L50.182 772.593L49.244 772.593C48.488 772.593 47.8907 772.373 47.452 771.935C47.0133 771.496 46.794 770.922 46.794 770.213ZM47.774 768.267C47.4753 768.267 47.2233 768.164 47.018 767.959C46.8127 767.753 46.71 767.506 46.71 767.217C46.71 766.918 46.8173 766.666 47.032 766.461C47.2373 766.255 47.4847 766.153 47.774 766.153C48.0633 766.153 48.3107 766.26 48.516 766.475C48.7213 766.68 48.824 766.927 48.824 767.217C48.824 767.506 48.7213 767.753 48.516 767.959C48.3107 768.164 48.0633 768.267 47.774 768.267ZM53.066 763.099L57 763.099L57 764.723L50.182 764.723L50.182 763.141L51.092 763.141C50.7187 762.926 50.4433 762.641 50.266 762.287C50.0793 761.923 49.986 761.535 49.986 761.125C49.986 760.322 50.238 759.711 50.742 759.291C51.246 758.871 51.8947 758.661 52.688 758.661L57 758.661L57 760.285L52.968 760.285C52.5107 760.285 52.1467 760.397 51.876 760.621C51.596 760.845 51.456 761.199 51.456 761.685C51.456 762.133 51.61 762.483 51.918 762.735C52.2167 762.977 52.5993 763.099 53.066 763.099ZM52.842 755.97L52.842 752.624C52.4127 752.642 52.0533 752.796 51.764 753.086C51.4747 753.366 51.33 753.772 51.33 754.304C51.33 754.789 51.484 755.181 51.792 755.48C52.0907 755.778 52.4407 755.942 52.842 755.97ZM54.62 752.442L55.054 751.07C55.6793 751.266 56.1973 751.634 56.608 752.176C57.0093 752.708 57.21 753.366 57.21 754.15C57.21 755.12 56.8787 755.946 56.216 756.628C55.5533 757.3 54.6667 757.636 53.556 757.636C52.5107 757.636 51.652 757.309 50.98 756.656C50.308 755.993 49.972 755.214 49.972 754.318C49.972 753.272 50.294 752.456 50.938 751.868C51.5727 751.28 52.4313 750.986 53.514 750.986C53.8033 750.986 53.976 751 54.032 751.028L54.032 756.012C54.5453 755.993 54.97 755.806 55.306 755.452C55.642 755.088 55.81 754.654 55.81 754.15C55.81 753.272 55.4133 752.703 54.62 752.442ZM47.004 741.467L57.07 746.353L57.07 747.851L47.004 742.965L47.004 741.467ZM47.004 736.815L57.07 741.701L57.07 743.199L47.004 738.313L47.004 736.815Z" fill="#FF4444"/>
<path d="M211.212 149.045C216.811 142.274 227.189 142.274 232.788 149.045L235.34 152.13C237.482 154.719 240.483 156.452 243.796 157.012L247.744 157.679C256.407 159.143 261.596 168.131 258.533 176.365L257.136 180.118C255.965 183.267 255.965 186.733 257.136 189.882L258.533 193.635C261.596 201.869 256.407 210.857 247.744 212.321L243.796 212.988C240.483 213.548 237.482 215.281 235.34 217.87L232.788 220.955C227.189 227.726 216.811 227.726 211.212 220.955L208.66 217.87C206.518 215.281 203.517 213.548 200.204 212.988L196.256 212.321C187.593 210.857 182.404 201.869 185.467 193.635L186.864 189.882C188.035 186.733 188.035 183.267 186.864 180.118L185.467 176.365C182.404 168.131 187.593 159.143 196.256 157.679L200.204 157.012C203.517 156.452 206.518 154.719 208.66 152.13L211.212 149.045Z" fill="#FF685F"/>
<path d="M286.833 744.087C288.038 739.645 293.589 738.158 296.853 741.402L310.718 755.18C311.456 755.913 312.372 756.442 313.376 756.715L332.241 761.833C336.683 763.038 338.17 768.588 334.926 771.853L321.147 785.717C320.414 786.455 319.885 787.371 319.613 788.376L314.495 807.24C313.29 811.682 307.739 813.169 304.475 809.925L290.61 796.147C289.872 795.413 288.956 794.884 287.952 794.612L269.087 789.494C264.645 788.289 263.158 782.738 266.402 779.474L280.181 765.61C280.914 764.871 281.443 763.955 281.715 762.951L286.833 744.087Z" fill="#FF9700"/>
<path d="M1283.94 163.387C1285.72 161.912 1288.43 162.914 1288.82 165.191L1302.23 243.801C1302.62 246.077 1300.4 247.921 1298.23 247.119L1223.45 219.431C1221.28 218.629 1220.79 215.784 1222.57 214.309L1283.94 163.387Z" fill="#A882DD"/>
<path fill-rule="evenodd" clip-rule="evenodd" d="M39.6288 577.017L51.5931 565.053L39.944 554.209C39.4955 553.791 39.18 553.284 38.9995 552.741C38.0715 551.367 38.2154 549.486 39.4311 548.27L51.6701 536.031L39.9445 525.116C38.5172 523.787 38.4373 521.553 39.766 520.125C41.0947 518.698 43.3289 518.618 44.7562 519.947L58.712 532.938C59.5614 533.729 59.9337 534.841 59.8158 535.912C59.9554 536.964 59.621 538.067 58.8125 538.876L46.7716 550.916L58.7602 562.077C59.8689 563.109 60.1646 564.687 59.6188 566.009C59.5162 566.743 59.1829 567.45 58.6189 568.014L46.1408 580.492L55.753 589.44C57.2506 590.834 57.3345 593.179 55.9404 594.676L55.8066 594.82C54.4125 596.318 52.0683 596.401 50.5707 595.007L38.1795 583.472C36.6819 582.078 36.598 579.734 37.9921 578.236L38.1259 578.093C38.5183 577.671 38.9859 577.362 39.4887 577.165C39.5337 577.115 39.5804 577.066 39.6288 577.017Z" fill="#FF4454"/>
<path fill-rule="evenodd" clip-rule="evenodd" d="M40.7445 519.017L53.2316 507.053L41.0649 496.201C40.5967 495.784 40.2682 495.276 40.0813 494.732C39.1195 493.36 39.2717 491.483 40.5379 490.27L53.312 478.031L41.0658 467.108C39.5806 465.784 39.5009 463.553 40.8877 462.125C42.2745 460.698 44.6027 460.615 46.0878 461.94L60.6701 474.946C61.5557 475.736 61.9416 476.848 61.8147 477.92C61.9576 478.97 61.6082 480.069 60.7664 480.876L48.1992 492.917L60.72 504.084C61.8738 505.113 62.1794 506.689 61.6081 508.011C61.5007 508.743 61.1529 509.45 60.5646 510.014L47.5412 522.492L57.6392 531.499C59.1662 532.86 59.2482 535.154 57.8224 536.622L57.5767 536.874C56.1509 538.342 53.7573 538.427 52.2303 537.066L39.1667 525.414C37.6398 524.052 37.5578 521.758 38.9836 520.291L39.2292 520.038C39.6348 519.621 40.1187 519.315 40.6387 519.123C40.6731 519.087 40.7083 519.052 40.7445 519.017Z" fill="#FF4454"/>
<path d="M1131 854.379C1133.57 854.856 1203.7 844.743 1206.13 842.661C1207.06 841.881 1206.18 831.572 1204.76 819.149C1204.76 819.019 1204.76 818.889 1204.76 818.759C1204.47 816.201 1195.51 773.794 1195.51 773.794L1148.57 780.417L1159.41 824.786L1159.53 825.545C1159.53 825.545 1134.41 841.425 1132 843.973C1129.58 846.52 1128.43 853.924 1131 854.379Z" fill="#F7A9A0"/>
<path d="M1206.13 842.663C1203.7 844.755 1133.57 854.868 1131 854.392C1128.43 853.915 1129.57 846.565 1131.98 844.007C1134.4 841.448 1159.53 825.578 1159.53 825.578L1159.39 824.82L1158.15 819.692L1203.59 812.82C1203.95 814.63 1204.68 818.37 1204.68 818.749C1204.68 818.879 1204.68 819.009 1204.73 819.129C1206.18 831.616 1207.06 841.893 1206.13 842.663Z" fill="#FF4444"/>
<path d="M1130.99 854.38C1132.31 854.619 1151.39 852.071 1170.01 849.253C1173.75 848.689 1177.47 848.169 1181.01 847.551C1194.27 845.448 1205.2 843.453 1206.13 842.651C1207.06 841.849 1206.22 831.865 1204.83 819.67C1204.83 819.497 1204.83 819.323 1204.83 819.15C1204.82 819.02 1204.82 818.889 1204.83 818.76H1204.77L1159.51 824.776L1159.63 825.546C1159.63 825.546 1134.5 841.426 1132.08 843.974C1129.66 846.521 1128.42 853.925 1130.99 854.38Z" fill="#A6A6A6"/>
<path d="M1131.4 851.552C1143.18 849.557 1190.89 842.63 1202.68 841.546C1202.78 841.546 1202.79 841.611 1202.68 841.622C1191.05 843.855 1143.29 850.403 1131.41 851.747C1131.17 851.779 1131.15 851.595 1131.4 851.552Z" fill="#263238"/>
<path d="M1154.38 825.654C1158.9 824.114 1164.7 824.006 1168.73 826.803C1168.88 826.911 1168.73 827.139 1168.57 827.106C1163.92 826.313 1159.19 826.022 1154.48 826.239C1154.41 826.236 1154.34 826.209 1154.29 826.163C1154.24 826.117 1154.2 826.054 1154.19 825.986C1154.18 825.917 1154.19 825.847 1154.23 825.787C1154.26 825.726 1154.31 825.679 1154.38 825.654Z" fill="#263238"/>
<path d="M1151.31 828.158C1155.83 826.619 1161.63 826.51 1165.66 829.318C1165.82 829.426 1165.66 829.643 1165.5 829.622C1160.85 828.825 1156.13 828.531 1151.41 828.744C1151.34 828.74 1151.27 828.713 1151.22 828.667C1151.17 828.621 1151.14 828.559 1151.12 828.49C1151.11 828.422 1151.13 828.351 1151.16 828.291C1151.19 828.231 1151.25 828.184 1151.31 828.158Z" fill="#263238"/>
<path d="M1148.24 830.662C1152.76 829.123 1158.56 829.026 1162.6 831.822C1162.75 831.931 1162.6 832.147 1162.43 832.126C1157.78 831.335 1153.06 831.04 1148.34 831.248C1148.27 831.244 1148.21 831.218 1148.15 831.171C1148.1 831.125 1148.07 831.063 1148.06 830.994C1148.04 830.926 1148.06 830.856 1148.09 830.795C1148.12 830.735 1148.18 830.688 1148.24 830.662Z" fill="#263238"/>
<path d="M1152.63 816.94L1205.38 809.666C1205.38 809.666 1192.24 719.693 1192.64 717.601C1193.15 714.934 1224.08 588.723 1224.08 588.723H1180.83C1180.83 588.723 1145.25 705.796 1143.89 717.091C1141.64 735.346 1152.63 816.94 1152.63 816.94Z" fill="#37474F"/>
<path d="M1155.12 806.186C1164.14 804.343 1196.95 800.387 1200.56 800.527C1200.57 800.534 1200.59 800.545 1200.6 800.559C1200.61 800.574 1200.61 800.591 1200.61 800.609C1200.61 800.626 1200.61 800.644 1200.6 800.658C1200.59 800.673 1200.57 800.684 1200.56 800.69C1197.1 801.72 1168.85 805.514 1155.12 806.414C1155.09 806.406 1155.07 806.391 1155.06 806.37C1155.04 806.35 1155.03 806.325 1155.03 806.3C1155.03 806.274 1155.04 806.25 1155.06 806.229C1155.07 806.209 1155.09 806.194 1155.12 806.186Z" fill="#263238"/>
<path d="M1214.23 598.412C1213.14 601.512 1212.28 604.656 1211.32 607.778C1210.37 610.9 1209.52 614.054 1208.59 617.187C1206.75 623.388 1204.99 629.621 1203.23 635.843C1199.66 648.407 1196.27 661.025 1192.94 673.653C1191.29 679.912 1189.66 686.174 1188.05 692.439C1186.44 698.716 1184.74 704.992 1183.3 711.312C1182.56 714.277 1182.24 717.331 1182.36 720.385C1182.62 723.513 1183.04 726.625 1183.64 729.708C1184.68 736.154 1185.72 742.6 1186.77 749.046C1188.87 762.054 1191.04 775.063 1193.27 788.071C1193.54 789.664 1193.87 791.247 1194.17 792.829C1194.17 792.916 1194.35 792.895 1194.34 792.829C1192.6 779.897 1190.43 767.019 1188.38 754.141C1187.38 747.774 1186.36 741.415 1185.32 735.063C1184.78 731.735 1184.23 728.418 1183.7 725.079C1183.14 721.924 1183.02 718.705 1183.36 715.518C1183.86 712.399 1184.54 709.312 1185.4 706.271C1186.18 703.171 1186.96 700.06 1187.76 696.96C1189.35 690.694 1190.96 684.432 1192.61 678.174C1195.91 665.599 1199.28 653.043 1202.72 640.504C1206.16 627.966 1209.62 615.507 1213.12 603.128C1213.56 601.577 1213.98 600.038 1214.37 598.488C1214.39 598.358 1214.25 598.325 1214.23 598.412Z" fill="#263238"/>
<path d="M1176.26 866.131C1178.75 866.923 1249.6 865.622 1252.27 863.855C1253.29 863.204 1253.7 852.863 1253.84 840.364V839.974C1253.84 837.394 1252.43 794.196 1252.43 794.196L1206.11 794.912L1208.13 840.288V841.069C1208.13 841.069 1181.23 853.698 1178.5 855.942C1175.77 858.185 1173.76 865.351 1176.26 866.131Z" fill="#F7A9A0"/>
<path d="M1253.89 835.018C1253.89 836.699 1253.89 838.346 1253.89 839.972V840.363C1253.75 852.861 1253.34 863.203 1252.31 863.853C1249.65 865.62 1178.79 866.921 1176.3 866.13C1173.8 865.338 1175.86 858.195 1178.57 855.951C1181.28 853.707 1208.2 841.078 1208.2 841.078V840.298L1207.99 835.474L1253.89 835.018Z" fill="#FF4444"/>
<path d="M1176.26 866.131C1178.75 866.923 1249.6 865.622 1252.27 863.855C1253.29 863.205 1253.7 852.863 1253.84 840.365V839.974L1208.13 840.299V841.08C1208.13 841.08 1181.23 853.709 1178.5 855.953C1175.77 858.196 1173.76 865.351 1176.26 866.131Z" fill="#A6A6A6"/>
<path d="M1177.01 863.367C1188.94 862.857 1237.15 861.914 1249 862.283C1249.09 862.283 1249.1 862.348 1249 862.359C1237.18 863.128 1188.97 863.681 1177.02 863.529C1176.75 863.562 1176.75 863.378 1177.01 863.367Z" fill="#263238"/>
<path d="M1203.03 840.525C1207.71 839.56 1213.48 840.178 1217.12 843.463C1217.26 843.582 1217.12 843.788 1216.93 843.745C1212.41 842.373 1207.76 841.493 1203.05 841.121C1202.98 841.111 1202.92 841.076 1202.87 841.023C1202.82 840.971 1202.8 840.903 1202.79 840.832C1202.79 840.762 1202.81 840.692 1202.86 840.636C1202.9 840.58 1202.96 840.541 1203.03 840.525Z" fill="#263238"/>
<path d="M1199.68 842.628C1204.36 841.663 1210.12 842.281 1213.77 845.565C1213.92 845.696 1213.77 845.891 1213.59 845.847C1209.07 844.482 1204.42 843.603 1199.71 843.224C1199.64 843.215 1199.58 843.182 1199.53 843.13C1199.48 843.078 1199.45 843.01 1199.45 842.939C1199.44 842.869 1199.47 842.799 1199.51 842.742C1199.55 842.685 1199.61 842.644 1199.68 842.628Z" fill="#263238"/>
<path d="M1196.32 844.743C1201 843.779 1206.77 844.386 1210.41 847.67C1210.55 847.8 1210.41 847.995 1210.22 847.952C1205.7 846.585 1201.05 845.705 1196.34 845.329C1196.26 845.332 1196.19 845.304 1196.13 845.251C1196.07 845.198 1196.04 845.125 1196.04 845.047C1196.04 844.969 1196.06 844.894 1196.12 844.837C1196.17 844.78 1196.24 844.746 1196.32 844.743Z" fill="#263238"/>
<path d="M1182.2 588.723C1182.2 588.723 1183.19 609.417 1187.93 625.807C1188.31 627.162 1188.72 628.495 1189.17 629.774C1189.17 629.774 1191.04 629.774 1198.57 634.371L1204.84 832.615L1255.88 832.073C1255.88 832.073 1247.73 727.01 1247.8 720.278C1247.9 709.438 1241.96 636.203 1242.57 634.349C1248.92 615.433 1238.42 588.723 1238.42 588.723H1182.2Z" fill="#37474F"/>
<path d="M1206.6 823.172C1220.97 822.305 1248.82 822.088 1252.4 822.641C1252.42 822.641 1252.43 822.649 1252.45 822.663C1252.46 822.677 1252.47 822.697 1252.47 822.717C1252.47 822.737 1252.46 822.756 1252.45 822.77C1252.43 822.785 1252.42 822.793 1252.4 822.793C1248.84 823.432 1215.01 824.083 1206.61 823.4C1206.58 823.393 1206.56 823.379 1206.54 823.36C1206.53 823.34 1206.52 823.315 1206.52 823.29C1206.52 823.264 1206.52 823.239 1206.54 823.218C1206.55 823.197 1206.57 823.181 1206.6 823.172Z" fill="#263238"/>
<path d="M1203.42 740.3C1202.8 717.579 1202.03 694.862 1201.1 672.149C1200.58 659.325 1200.02 646.512 1199.29 633.71C1199.29 633.618 1199.25 633.529 1199.19 633.464C1199.12 633.399 1199.03 633.363 1198.94 633.363C1198.85 633.363 1198.76 633.399 1198.7 633.464C1198.63 633.529 1198.6 633.618 1198.6 633.71C1199.15 656.56 1200.05 679.39 1200.76 702.23C1201.48 725.07 1202.3 747.672 1203.08 770.392C1203.52 783.205 1203.91 796.029 1204.44 808.842C1204.44 808.88 1204.45 808.916 1204.48 808.942C1204.51 808.968 1204.54 808.983 1204.58 808.983C1204.62 808.983 1204.65 808.968 1204.68 808.942C1204.71 808.916 1204.72 808.88 1204.72 808.842C1204.62 785.991 1204.04 763.14 1203.42 740.3Z" fill="#263238"/>
<path d="M1243.31 771.994C1242.23 757.089 1241.14 742.195 1240.01 727.301C1238.87 712.406 1237.78 697.49 1236.68 682.596C1236.12 675.138 1235.59 667.691 1235.01 660.244L1234.13 649.067C1233.7 645.393 1233.48 641.698 1233.47 638C1233.61 633.956 1235.31 630.412 1236.25 626.509C1237.11 622.833 1237.49 619.063 1237.4 615.29C1237.31 607.506 1235.56 599.843 1233.95 592.265C1233.86 591.853 1233.21 592.038 1233.31 592.46C1235.14 599.423 1236.29 606.545 1236.75 613.729C1236.92 617.301 1236.67 620.881 1236.01 624.395C1235.34 627.767 1233.94 630.899 1233.14 634.227C1232.35 637.555 1232.78 641.219 1233.05 644.699C1233.34 648.428 1233.59 652.157 1233.85 655.875C1234.37 663.181 1234.93 670.477 1235.47 677.783C1237.64 707.431 1239.81 737.089 1242.16 766.737C1243.46 783.42 1244.57 800.135 1246.18 816.796C1246.18 816.916 1246.39 816.916 1246.38 816.796C1245.61 801.837 1244.37 786.932 1243.31 771.994Z" fill="#263238"/>
<path d="M1232.86 611.236C1231.99 610.9 1231.04 610.814 1230.15 610.553C1229.22 610.292 1228.3 609.97 1227.41 609.589C1225.71 608.849 1224.12 607.89 1222.67 606.738C1221.3 605.525 1220.24 603.991 1219.6 602.271C1219.21 601.35 1218.86 600.418 1218.52 599.496L1217.96 598.131C1217.88 597.946 1217.39 596.982 1217.31 596.678C1217.32 596.694 1217.35 596.703 1217.37 596.703C1217.4 596.703 1217.42 596.694 1217.44 596.678V596.624C1217.45 596.608 1217.46 596.589 1217.46 596.57C1217.46 596.55 1217.45 596.531 1217.44 596.515C1217.38 596.407 1217.37 596.396 1217.25 596.364C1217.23 596.36 1217.2 596.365 1217.18 596.376C1217.15 596.388 1217.13 596.406 1217.12 596.429C1216.95 596.732 1217.12 597.025 1217.2 597.35C1217.36 597.957 1217.51 598.564 1217.66 599.171C1217.95 600.255 1218.23 601.285 1218.55 602.337C1219.07 604.31 1220.14 606.096 1221.63 607.486C1223.18 608.793 1224.96 609.807 1226.88 610.477C1227.86 610.843 1228.88 611.122 1229.91 611.312C1230.86 611.542 1231.85 611.601 1232.82 611.486C1233.04 611.496 1232.98 611.28 1232.86 611.236Z" fill="#263238"/>
<path d="M1191.82 622.641C1191.7 620.852 1191.56 619.074 1191.41 617.286C1191.05 613.22 1190.63 609.145 1189.91 605.123C1189.91 604.809 1189.41 604.928 1189.45 605.231C1189.72 608.386 1190.08 611.54 1190.37 614.695C1190.66 617.849 1191.05 620.993 1191.11 624.136C1191.11 625.08 1191.05 626.684 1189.89 626.944C1188.33 627.302 1187.59 625.253 1187.21 624.126C1186.32 621.321 1185.67 618.445 1185.26 615.529C1184.74 612.212 1184.47 608.852 1184.18 605.524C1184.18 605.394 1183.96 605.416 1183.96 605.524C1183.96 612.147 1184.04 619.074 1186.51 625.329C1186.69 625.972 1187.04 626.554 1187.52 627.014C1188 627.474 1188.6 627.795 1189.25 627.941H1189.32C1189.31 627.977 1189.31 628.015 1189.32 628.05C1189.32 628.234 1189.39 628.418 1189.43 628.603C1189.46 628.787 1189.48 628.917 1189.51 629.069C1189.58 629.394 1189.63 629.719 1189.71 630.033C1189.71 630.065 1189.72 630.095 1189.74 630.123C1189.75 630.15 1189.77 630.175 1189.8 630.194C1189.82 630.214 1189.85 630.228 1189.88 630.237C1189.91 630.246 1189.94 630.248 1189.97 630.245C1190 630.241 1190.03 630.232 1190.06 630.216C1190.09 630.201 1190.11 630.181 1190.13 630.156C1190.15 630.131 1190.17 630.103 1190.18 630.073C1190.19 630.042 1190.19 630.011 1190.18 629.979C1190.23 629.966 1190.26 629.939 1190.29 629.904C1190.31 629.869 1190.32 629.827 1190.33 629.784C1190.3 629.137 1190.15 628.501 1189.89 627.909C1190.28 627.834 1190.64 627.663 1190.94 627.411C1191.24 627.158 1191.47 626.833 1191.6 626.467C1191.98 625.226 1192.05 623.915 1191.82 622.641Z" fill="#263238"/>
<path d="M1187.04 628.537C1192.11 630.66 1197 633.217 1201.63 636.179C1201.82 636.298 1201.63 636.58 1201.48 636.482C1196.56 634.087 1191.53 631.789 1186.75 629.133C1186.68 629.087 1186.63 629.019 1186.61 628.941C1186.59 628.864 1186.6 628.781 1186.64 628.709C1186.67 628.637 1186.73 628.58 1186.81 628.549C1186.88 628.517 1186.96 628.513 1187.04 628.537Z" fill="#263238"/>
<path d="M1186.49 561.936C1189.22 564.098 1192.19 565.942 1195.34 567.432C1190.54 559.323 1191.27 541.014 1191.85 543.583C1194.66 556.071 1202.51 569.741 1205.5 570.423H1205.56C1212.99 571.282 1220.5 569.695 1226.94 565.903C1220.75 556.732 1221 538.109 1221.42 539.247C1225.97 551.388 1235.37 558.489 1236.99 558.467C1243.02 552.7 1246.21 546.944 1245.35 546.358C1239.1 542.109 1233.77 531.182 1228.97 519.573C1224.22 508.158 1221.82 497.296 1215.14 487.106C1209.02 477.773 1196.82 476.006 1189.9 480.776C1171.76 493.296 1182.62 558.9 1186.49 561.936Z" fill="#263238"/>
<path d="M1205.35 481.286C1210.38 482.468 1214.51 487.075 1217.14 491.335C1220.65 496.993 1222.95 503.411 1225.82 509.394C1231.4 521.205 1238.79 532.071 1247.72 541.6C1247.75 541.643 1247.77 541.695 1247.76 541.746C1247.76 541.798 1247.74 541.847 1247.7 541.885C1247.67 541.923 1247.62 541.948 1247.57 541.955C1247.52 541.963 1247.46 541.952 1247.42 541.926C1237.66 534.576 1230.98 524.029 1225.5 513.178C1222.69 507.638 1220.49 501.839 1217.85 496.224C1216.46 493.122 1214.66 490.223 1212.49 487.606C1210.38 485.312 1207.83 483.469 1204.99 482.186C1204.87 482.138 1204.78 482.045 1204.73 481.927C1204.68 481.81 1204.67 481.676 1204.72 481.557C1204.77 481.438 1204.86 481.342 1204.98 481.291C1205.1 481.24 1205.23 481.239 1205.35 481.286Z" fill="#263238"/>
<path d="M1269.99 717.276L1198.76 730.002L1196.19 655.596L1246.64 646.577L1269.99 717.276Z" fill="#EBEBEB"/>
<path d="M1246.64 646.577L1251.69 720.55L1270 717.276L1246.64 646.577Z" fill="#DBDBDB"/>
<path d="M1210.29 658.52H1207.67C1207.67 658.455 1207.67 651.268 1207.67 643.994C1207.67 636.135 1214.35 631.095 1220.68 630.748C1225.46 630.487 1231.34 632.981 1232.24 640.84C1233.2 649.241 1233.42 653.252 1233.43 653.414L1230.8 653.555C1230.8 653.555 1230.59 649.447 1229.63 641.132C1228.95 635.095 1224.63 633.165 1220.82 633.371C1215.67 633.642 1210.29 637.707 1210.25 644.016C1210.25 651.279 1210.29 658.455 1210.29 658.52Z" fill="#263238"/>
<path d="M1252.56 719.823C1253.84 718.511 1255.18 717.286 1256.53 716.061C1257.87 714.836 1259.26 713.665 1260.66 712.495L1260.85 712.343L1261.07 712.451C1262.43 713.134 1263.8 713.828 1265.13 714.565C1266.47 715.302 1267.82 716.039 1269.13 716.853C1267.69 716.3 1266.28 715.693 1264.89 715.064C1263.51 714.435 1262.11 713.796 1260.73 713.134L1261.14 713.08C1259.76 714.262 1258.36 715.411 1256.93 716.549C1255.5 717.687 1254.05 718.782 1252.56 719.823Z" fill="white"/>
<path d="M1260.89 712.786C1259.76 708.223 1258.73 703.626 1257.64 699.041C1256.56 694.456 1255.62 689.849 1254.6 685.242C1253.58 680.634 1252.66 676.038 1251.73 671.42L1250.36 664.494C1249.92 662.174 1249.47 659.865 1249.07 657.545C1249.64 659.821 1250.15 662.12 1250.73 664.407L1252.31 671.29C1253.39 675.887 1254.34 680.483 1255.35 685.09C1256.37 689.697 1257.3 694.293 1258.22 698.911C1259.14 703.529 1260.07 708.147 1260.89 712.786Z" fill="white"/>
<path d="M1212.39 657.794C1212.53 658.469 1212.47 659.172 1212.22 659.815C1211.96 660.457 1211.53 661.009 1210.96 661.402C1210.39 661.794 1209.72 662.01 1209.03 662.02C1208.34 662.031 1207.66 661.836 1207.08 661.461C1206.5 661.086 1206.04 660.548 1205.77 659.914C1205.49 659.279 1205.42 658.578 1205.54 657.899C1205.66 657.22 1205.99 656.593 1206.47 656.098C1206.95 655.602 1207.57 655.261 1208.24 655.117C1209.15 654.924 1210.09 655.097 1210.87 655.599C1211.64 656.101 1212.19 656.89 1212.39 657.794Z" fill="#263238"/>
<path d="M1235.31 652.819C1235.46 653.493 1235.4 654.196 1235.15 654.838C1234.9 655.48 1234.46 656.032 1233.89 656.424C1233.32 656.816 1232.65 657.031 1231.96 657.04C1231.27 657.05 1230.59 656.854 1230.01 656.478C1229.44 656.101 1228.98 655.561 1228.71 654.926C1228.44 654.292 1228.36 653.591 1228.49 652.913C1228.62 652.234 1228.95 651.61 1229.43 651.118C1229.92 650.627 1230.54 650.291 1231.21 650.152C1232.11 649.966 1233.04 650.141 1233.81 650.641C1234.58 651.141 1235.12 651.923 1235.31 652.819Z" fill="#263238"/>
<path d="M1261.7 738.619H1178.11L1190.29 653.47H1249.51L1261.7 738.619Z" fill="#FF4444"/>
<path opacity="0.1" d="M1249.5 653.47L1240.22 738.619H1261.7L1249.5 653.47Z" fill="black"/>
<path d="M1206.98 659.346L1204.36 658.793C1204.36 658.717 1205.89 651.563 1207.51 644.343C1209.26 636.538 1216.94 632.95 1223.34 633.98C1228.15 634.761 1233.47 638.501 1232.67 646.511C1231.81 655.075 1231.16 659.108 1231.14 659.281L1228.5 658.847C1228.5 658.847 1229.17 654.717 1230.01 646.24C1230.63 640.094 1226.76 637.243 1222.92 636.614C1217.74 635.78 1211.52 638.663 1210.11 644.929C1208.45 652.127 1206.99 659.259 1206.98 659.346Z" fill="#263238"/>
<path d="M1241.35 737.969C1243.06 736.744 1244.85 735.627 1246.63 734.5C1248.41 733.373 1250.22 732.332 1252.05 731.248L1252.31 731.096L1252.54 731.27C1253.95 732.354 1255.36 733.438 1256.73 734.522C1258.11 735.606 1259.49 736.744 1260.81 737.925C1259.29 737.004 1257.81 736.028 1256.35 735.031C1254.9 734.034 1253.45 733.026 1252.02 731.985H1252.49C1250.69 733.04 1248.85 734.066 1247 735.064C1245.12 736.104 1243.27 737.091 1241.35 737.969Z" fill="white"/>
<path d="M1252.27 731.671C1251.9 726.251 1251.63 720.831 1251.37 715.411C1251.11 709.991 1250.93 704.57 1250.71 699.15C1250.48 693.73 1250.37 688.31 1250.26 682.89L1250.11 674.728C1250.11 672.007 1250.03 669.308 1250.04 666.565C1250.24 669.286 1250.37 671.985 1250.54 674.717L1250.94 682.869C1251.19 688.289 1251.38 693.709 1251.59 699.129C1251.81 704.549 1251.94 709.969 1252.05 715.389C1252.16 720.809 1252.27 726.229 1252.27 731.671Z" fill="white"/>
<path d="M1205.66 662.609C1207.62 662.609 1209.21 661.022 1209.21 659.064C1209.21 657.107 1207.62 655.52 1205.66 655.52C1203.71 655.52 1202.12 657.107 1202.12 659.064C1202.12 661.022 1203.71 662.609 1205.66 662.609Z" fill="#263238"/>
<path d="M1229.55 662.609C1231.5 662.609 1233.09 661.022 1233.09 659.064C1233.09 657.107 1231.5 655.52 1229.55 655.52C1227.59 655.52 1226 657.107 1226 659.064C1226 661.022 1227.59 662.609 1229.55 662.609Z" fill="#263238"/>
<path d="M1140.74 498.825L1150.8 530.131C1151.19 531.053 1150.8 531.833 1149.86 531.898L1133.44 532.982C1132.93 532.974 1132.44 532.824 1132.02 532.55C1131.6 532.276 1131.26 531.889 1131.05 531.432L1121 500.115C1120.6 499.205 1121 498.413 1121.93 498.359L1138.36 497.275C1138.86 497.281 1139.35 497.429 1139.77 497.704C1140.2 497.978 1140.53 498.367 1140.74 498.825Z" fill="#A6A6A6"/>
<path d="M1138.79 498.934L1148.83 530.261C1148.94 530.433 1149 530.631 1149.01 530.835C1149.02 531.039 1148.97 531.241 1148.87 531.421C1148.78 531.601 1148.64 531.752 1148.46 531.858C1148.29 531.965 1148.09 532.024 1147.89 532.028L1131.46 533.112C1130.96 533.108 1130.47 532.961 1130.05 532.688C1129.63 532.416 1129.29 532.029 1129.08 531.573L1119.03 500.256C1118.63 499.345 1119.03 498.554 1119.96 498.5L1136.38 497.416C1136.89 497.415 1137.38 497.557 1137.81 497.825C1138.23 498.094 1138.58 498.478 1138.79 498.934Z" fill="#DBDBDB"/>
<path d="M1134.39 500.668C1134.41 500.944 1134.52 501.207 1134.69 501.424C1134.86 501.641 1135.1 501.801 1135.36 501.886C1135.62 501.97 1135.91 501.974 1136.17 501.897C1136.44 501.82 1136.68 501.666 1136.85 501.454C1137.03 501.242 1137.14 500.982 1137.17 500.706C1137.2 500.431 1137.15 500.153 1137.02 499.907C1136.9 499.662 1136.7 499.459 1136.45 499.327C1136.21 499.194 1135.93 499.136 1135.66 499.161C1135.48 499.174 1135.3 499.224 1135.13 499.308C1134.97 499.391 1134.83 499.507 1134.71 499.647C1134.59 499.788 1134.5 499.95 1134.45 500.125C1134.39 500.301 1134.37 500.485 1134.39 500.668Z" fill="#455A64"/>
<path d="M1196.76 543.625C1188.92 564.081 1169.92 591.322 1161.31 592.026C1157.21 592.384 1149.95 593.891 1144.22 589.566C1131.71 580.135 1120.46 561.165 1117.63 550.043C1116.63 546.086 1135.5 535.951 1138.62 539.04C1145.91 546.184 1154.88 560.612 1156.03 560.438C1160.42 559.777 1176.62 544.178 1187.96 533.143C1201.7 519.788 1199.89 535.474 1196.76 543.625Z" fill="#F7A9A0"/>
<path d="M1115.65 529.36C1117.11 521.078 1118.77 519.17 1116.3 511.517C1114.67 506.498 1117.19 503.3 1121.1 507.181C1127.52 513.458 1127.87 524.525 1126.88 528.428L1115.65 529.36Z" fill="#F7A9A0"/>
<path d="M1118.85 553.458C1118.85 553.458 1114.38 542.39 1115.07 533.404C1115.56 527.182 1118.11 513.783 1134.81 505.588C1138.78 503.648 1145.8 503.691 1140.48 509.209C1136.7 513.133 1133.12 514.477 1131.34 517.165C1131.34 517.165 1140.27 518.249 1142.05 522.325C1143.62 525.862 1144.94 529.506 1145.99 533.23C1145.35 533.574 1144.69 533.878 1144.02 534.141C1144.02 534.141 1145.33 538.087 1142.82 543.897L1118.85 553.458Z" fill="#F7A9A0"/>
<path d="M1116.48 527.54C1118.81 525.253 1123.83 520.483 1129.31 518.012C1135.38 515.269 1147.81 511.627 1149.78 516.126C1151.24 519.378 1146.62 521.231 1146.62 521.231C1146.62 521.231 1152.04 520.809 1152.73 524.082C1153.33 527.063 1149.66 528.245 1149.66 528.245C1149.66 528.245 1153.02 528.559 1153.05 531.497C1153.05 535.074 1146.04 533.838 1142.93 537.502C1142.24 538.359 1116.48 527.54 1116.48 527.54Z" fill="#F7A9A0"/>
<path d="M1131.13 524.917C1135.75 522.128 1141.11 520.816 1146.5 521.156C1146.64 521.156 1146.71 521.275 1146.57 521.297C1141.31 521.892 1136.13 523.126 1131.16 524.971L1131.13 524.917Z" fill="#263238"/>
<path d="M1134.08 530.965C1136.44 529.642 1143.59 527.29 1149.64 528.125C1149.78 528.125 1149.84 528.255 1149.71 528.266C1144.42 528.594 1139.18 529.518 1134.1 531.019C1134.1 531.019 1134.05 530.976 1134.08 530.965Z" fill="#263238"/>
<path d="M1145.2 545.871L1122.56 572.115C1122.56 572.115 1141.95 591.074 1148.26 592.57C1153.39 593.778 1158.75 593.549 1163.76 591.909C1168.17 590.64 1189.86 565.502 1196.99 544.949C1204.13 524.396 1196.47 523.41 1184.3 535.854C1172.13 548.299 1157.06 560.548 1156.33 559.703C1155.61 558.857 1145.2 545.871 1145.2 545.871Z" fill="#FF4444"/>
<path opacity="0.1" d="M1145.2 545.871L1122.56 572.115C1122.56 572.115 1141.95 591.074 1148.26 592.57C1153.39 593.778 1158.75 593.549 1163.76 591.909C1168.17 590.64 1189.86 565.502 1196.99 544.949C1204.13 524.396 1196.47 523.41 1184.3 535.854C1172.13 548.299 1157.06 560.548 1156.33 559.703C1155.61 558.857 1145.2 545.871 1145.2 545.871Z" fill="black"/>
<path d="M1149.31 553.026C1148.39 553.861 1140.83 562.403 1139.15 564.322C1137.47 566.24 1131.05 574.078 1129.39 576.04C1129.33 576.126 1129.39 576.246 1129.52 576.159C1130.4 575.205 1131.36 574.316 1132.23 573.362C1133.11 572.408 1138.15 566.685 1139.82 564.777C1141.49 562.869 1148.78 554.186 1149.47 553.135C1149.52 553.026 1149.38 553.026 1149.31 553.026Z" fill="#263238"/>
<path d="M1176.1 579.692L1171.91 616.104C1171.91 616.104 1231.02 615.215 1245.62 613.741C1245.62 613.741 1231.63 546.316 1215.34 529.665C1207.2 521.34 1198 522.251 1192.23 528.419C1190.78 529.98 1173.66 554.066 1172.06 563.107C1170.7 571.107 1176.1 579.692 1176.1 579.692Z" fill="#FF4444"/>
<path d="M1173.76 573.773C1173.09 571.71 1172.72 569.558 1172.68 567.388C1172.82 562.963 1173.93 558.624 1175.93 554.673C1177.01 552.407 1178.31 550.261 1179.37 547.995C1179.37 547.93 1179.3 547.887 1179.27 547.941C1178.24 549.456 1177.31 551.031 1176.47 552.656C1176.48 552.601 1176.5 552.546 1176.53 552.494C1176.8 551.616 1177.07 550.759 1177.38 549.903C1177.38 549.816 1177.26 549.751 1177.22 549.838C1176.87 550.673 1176.54 551.507 1176.23 552.364C1176.04 552.903 1175.88 553.453 1175.76 554.011C1174.71 556.004 1173.82 558.077 1173.1 560.212C1171.62 564.437 1171.52 569.022 1172.82 573.307C1173.18 574.423 1173.63 575.51 1174.16 576.559C1174.74 577.729 1175.46 578.813 1176.08 579.952C1176.08 580.049 1176.28 579.952 1176.22 579.865C1175.2 577.921 1174.38 575.881 1173.76 573.773Z" fill="#263238"/>
<path d="M1205.74 528.646C1205.25 529.73 1198.4 536.115 1193.23 534.89C1191.55 534.478 1193.34 525.134 1193.34 525.134V524.418L1193.01 514.402L1205.67 509.286L1207.49 508.635C1207.49 508.635 1207.4 511.389 1207.26 514.803C1207.26 514.966 1207.26 515.128 1207.26 515.291C1207.26 515.454 1207.26 515.67 1207.26 515.855C1207.26 516.364 1207.26 516.885 1207.26 517.405C1207.26 517.925 1207.26 518.185 1207.18 518.597C1207.11 519.009 1207.12 519.421 1207.09 519.833C1206.84 522.798 1206.39 525.742 1205.74 528.646Z" fill="#F7A9A0"/>
<path d="M1207.24 514.856C1205.75 517.377 1203.73 519.544 1201.32 521.204C1198.9 522.865 1196.16 523.98 1193.27 524.471L1192.95 514.455L1205.61 509.339L1207.42 508.688C1207.42 508.688 1207.37 511.442 1207.24 514.856Z" fill="#263238"/>
<path d="M1181.15 499.03C1178.75 516.472 1188.92 519.876 1192.68 520.396C1196.09 520.862 1207.78 522.022 1211.97 504.927C1216.17 487.832 1208.82 481.198 1201.08 479.724C1193.34 478.25 1183.52 481.599 1181.15 499.03Z" fill="#F7A9A0"/>
<path d="M1185.87 495.421C1186.28 495.414 1186.68 495.385 1187.08 495.334C1187.52 495.366 1187.95 495.251 1188.31 495.009C1188.41 494.911 1188.47 494.784 1188.49 494.646C1188.51 494.508 1188.48 494.369 1188.41 494.25C1188.23 494.035 1188.01 493.87 1187.75 493.771C1187.49 493.672 1187.22 493.643 1186.94 493.686C1186.38 493.688 1185.83 493.9 1185.42 494.282C1185.33 494.375 1185.26 494.493 1185.24 494.62C1185.21 494.747 1185.23 494.878 1185.27 494.999C1185.32 495.119 1185.4 495.223 1185.51 495.297C1185.62 495.372 1185.74 495.415 1185.87 495.421Z" fill="#263238"/>
<path d="M1197.35 497.135C1196.95 497.026 1196.59 496.864 1196.2 496.723C1195.78 496.633 1195.4 496.408 1195.12 496.083C1195.05 495.962 1195.02 495.823 1195.04 495.685C1195.06 495.548 1195.13 495.421 1195.23 495.324C1195.45 495.163 1195.71 495.063 1195.99 495.037C1196.26 495.01 1196.54 495.057 1196.79 495.173C1197.33 495.328 1197.8 495.684 1198.1 496.17C1198.16 496.284 1198.18 496.412 1198.17 496.54C1198.16 496.668 1198.11 496.79 1198.03 496.892C1197.95 496.993 1197.85 497.07 1197.73 497.113C1197.61 497.156 1197.48 497.164 1197.35 497.135Z" fill="#263238"/>
<path d="M1194.41 501.209C1194.41 501.209 1194.5 501.274 1194.49 501.328C1194.26 502.499 1194.19 503.887 1195.2 504.461C1195.2 504.461 1195.2 504.537 1195.2 504.526C1193.9 504.125 1194.01 502.282 1194.41 501.209Z" fill="#263238"/>
<path d="M1195.67 500.147C1197.6 500.31 1197.13 504.147 1195.34 503.996C1193.56 503.844 1194.05 500.007 1195.67 500.147Z" fill="#263238"/>
<path d="M1196.41 500.44C1196.71 500.7 1196.99 501.123 1197.39 501.209C1197.79 501.296 1198.26 500.96 1198.61 500.613H1198.67C1198.6 501.35 1198.22 502.077 1197.41 502.087C1196.61 502.098 1196.24 501.383 1196.15 500.624C1196.14 500.526 1196.28 500.331 1196.41 500.44Z" fill="#263238"/>
<path d="M1187.57 500.082C1187.57 500.082 1187.47 500.082 1187.46 500.18C1187.37 501.372 1187.05 502.727 1185.92 502.998V503.063C1187.27 503.031 1187.67 501.231 1187.57 500.082Z" fill="#263238"/>
<path d="M1186.65 498.716C1184.75 498.347 1184.16 502.174 1185.91 502.51C1187.67 502.846 1188.24 499.019 1186.65 498.716Z" fill="#263238"/>
<path d="M1185.82 498.824C1185.48 498.976 1185.12 499.301 1184.73 499.268C1184.34 499.236 1184.06 498.77 1183.85 498.336C1183.85 498.336 1183.85 498.336 1183.79 498.336C1183.66 499.062 1183.79 499.854 1184.46 500.103C1185.13 500.352 1185.64 499.778 1185.94 499.084C1186.02 499.008 1185.95 498.824 1185.82 498.824Z" fill="#263238"/>
<path d="M1192.85 510.747C1192.54 511.008 1192.22 511.365 1191.77 511.376C1191.33 511.33 1190.9 511.193 1190.51 510.975C1190.51 510.975 1190.42 510.975 1190.44 510.975C1190.6 511.223 1190.82 511.424 1191.08 511.56C1191.34 511.695 1191.63 511.759 1191.92 511.745C1192.17 511.697 1192.39 511.578 1192.57 511.403C1192.76 511.227 1192.88 511.004 1192.94 510.758C1192.93 510.746 1192.91 510.738 1192.9 510.736C1192.88 510.734 1192.86 510.738 1192.85 510.747Z" fill="#263238"/>
<path d="M1188.46 505.73C1188.46 505.73 1187.97 507.475 1187.87 508.31C1187.87 508.385 1188.05 508.451 1188.33 508.505C1189.03 508.73 1189.78 508.76 1190.5 508.59C1191.22 508.42 1191.87 508.057 1192.4 507.54C1192.41 507.533 1192.41 507.524 1192.42 507.514C1192.43 507.504 1192.43 507.493 1192.43 507.481C1192.43 507.469 1192.43 507.458 1192.43 507.446C1192.42 507.435 1192.42 507.425 1192.41 507.415C1192.41 507.406 1192.4 507.398 1192.39 507.392C1192.38 507.387 1192.37 507.383 1192.35 507.381C1192.34 507.38 1192.33 507.381 1192.32 507.384C1192.31 507.387 1192.3 507.392 1192.29 507.399C1191.12 507.989 1189.8 508.183 1188.52 507.952C1188.52 507.713 1189.45 505.003 1189.32 504.971C1188.66 504.942 1188 505 1187.36 505.144C1188.26 501.491 1189.74 498.011 1190.61 494.304C1190.61 494.277 1190.61 494.249 1190.59 494.225C1190.58 494.201 1190.56 494.183 1190.53 494.173C1190.51 494.162 1190.48 494.161 1190.45 494.169C1190.43 494.178 1190.41 494.195 1190.39 494.217C1188.69 497.903 1187.36 501.749 1186.42 505.697C1186.3 506.228 1188.1 505.827 1188.46 505.73Z" fill="#263238"/>
<path d="M1210.45 504.993C1206.11 504.678 1205.39 491.377 1205.32 489.751C1205.32 490.835 1205.25 496.256 1204.83 496.44C1204.37 496.408 1203.92 496.306 1203.49 496.136C1203.51 495.481 1203.48 494.825 1203.4 494.174C1203.4 493.871 1203.26 494.825 1203.05 495.995L1202.26 495.746C1202.36 494.354 1202.28 492.954 1202.01 491.583C1201.9 491.063 1201.68 493.372 1201.11 495.388C1197.48 494.17 1193.72 493.355 1189.9 492.96C1188.82 492.884 1187.9 492.863 1187.07 492.863C1187.13 491.258 1187.38 489.545 1187.25 489.914C1186.89 490.876 1186.63 491.871 1186.47 492.884C1186.01 492.884 1185.6 492.884 1185.23 492.884C1185.23 490.597 1186.43 487.009 1186.04 487.551C1184.9 489.22 1184.08 491.093 1183.64 493.069C1182.07 493.318 1181.63 493.6 1181.6 493.199C1182.26 488.745 1184.47 484.669 1187.85 481.697C1193.44 476.83 1204.23 475.974 1209.99 484.017C1209.99 484.017 1214.86 487.464 1215.41 492.689C1215.96 497.914 1212.93 505.177 1210.45 504.993Z" fill="#263238"/>
<path d="M1209.01 505.882C1209.01 505.882 1213.13 500.592 1215.52 502.088C1217.9 503.584 1214.65 511.389 1211.67 512.321C1211.3 512.467 1210.9 512.536 1210.5 512.524C1210.09 512.513 1209.7 512.42 1209.33 512.252C1208.97 512.084 1208.64 511.844 1208.37 511.547C1208.1 511.249 1207.9 510.901 1207.77 510.521L1209.01 505.882Z" fill="#F7A9A0"/>
<path d="M1214.55 504.298V504.374C1212.46 505.1 1211.3 506.954 1210.43 508.883C1210.56 508.684 1210.73 508.516 1210.93 508.389C1211.13 508.262 1211.36 508.181 1211.59 508.15C1211.83 508.119 1212.07 508.139 1212.3 508.21C1212.52 508.28 1212.73 508.399 1212.91 508.558C1212.96 508.558 1212.91 508.677 1212.85 508.667C1212.5 508.532 1212.11 508.511 1211.74 508.606C1211.38 508.702 1211.05 508.908 1210.8 509.198C1210.38 509.684 1210.02 510.214 1209.72 510.78C1209.61 510.954 1209.29 510.846 1209.36 510.64V510.585C1209.53 507.973 1211.7 504.417 1214.55 504.298Z" fill="#263238"/>
<path d="M1218.52 529.622C1238.8 546.196 1255.2 571.541 1256.07 577.958C1257.02 585.026 1254.55 610.684 1247.87 623.714C1246.1 627.15 1219.88 611.508 1221.61 607.757C1224.95 600.538 1229.9 580.755 1229.2 576.82C1228.54 573.177 1218.21 551.248 1211.14 539.736C1204.59 529.177 1209.08 521.915 1218.52 529.622Z" fill="#F7A9A0"/>
<path d="M1201.43 638.933C1201.97 639.701 1202.73 640.284 1203.62 640.604C1204.5 640.924 1205.46 640.965 1206.37 640.722C1206.4 642.317 1206.99 643.851 1208.04 645.058C1209.98 647.096 1214.02 644.939 1214.02 644.939C1214.4 646.601 1215.27 648.111 1216.51 649.275C1218.57 651.031 1222.96 649.437 1222.96 649.437C1224.15 650.759 1225.77 651.61 1227.53 651.833C1232.25 652.234 1236.61 646.413 1239.45 642.792C1242.29 639.172 1246.79 626.153 1247.91 623.768L1224.61 605.567C1224.61 605.567 1207.38 618.37 1204.69 623.128C1202.39 627.107 1199.46 635.92 1201.43 638.933Z" fill="#F7A9A0"/>
<path d="M1206.12 640.266C1207.51 635.431 1210.24 631.258 1212.74 626.933C1212.8 626.835 1212.95 626.933 1212.88 627.02C1210.36 631.291 1208.7 636.006 1206.38 640.364C1206.28 640.483 1206.09 640.396 1206.12 640.266Z" fill="#263238"/>
<path d="M1213.78 644.625C1214.2 643.554 1214.76 642.544 1215.44 641.622C1216.1 640.603 1216.79 639.584 1217.48 638.587C1218.87 636.592 1220.3 634.619 1221.82 632.69C1221.88 632.603 1222.03 632.69 1221.97 632.776C1220.58 634.782 1219.24 636.798 1217.94 638.847C1217.28 639.931 1216.65 640.906 1216.02 641.947C1215.47 642.962 1214.83 643.918 1214.09 644.798C1214.06 644.838 1214.03 644.868 1213.98 644.88C1213.94 644.892 1213.89 644.886 1213.85 644.863C1213.81 644.84 1213.78 644.802 1213.77 644.757C1213.75 644.713 1213.76 644.665 1213.78 644.625Z" fill="#263238"/>
<path d="M1223.02 649.305C1223.43 648.34 1224 647.452 1224.71 646.682C1225.37 645.782 1226.01 644.882 1226.66 643.972C1227.94 642.161 1229.23 640.351 1230.44 638.497C1230.51 638.411 1230.65 638.497 1230.6 638.584C1229.36 640.481 1228.16 642.389 1226.91 644.264C1226.3 645.189 1225.69 646.111 1225.06 647.029C1224.57 647.914 1223.92 648.706 1223.16 649.37C1223.15 649.389 1223.14 649.403 1223.12 649.41C1223.1 649.418 1223.08 649.417 1223.06 649.408C1223.04 649.399 1223.02 649.384 1223.02 649.364C1223.01 649.345 1223.01 649.324 1223.02 649.305Z" fill="#263238"/>
<path d="M1208.76 537.588C1212.68 548.623 1228.47 574.867 1228.37 577.393C1228.28 579.919 1220.57 606.239 1220.57 606.239L1251.89 625.252C1251.89 625.252 1258.87 589.415 1256.22 576.949C1254.22 567.366 1232.15 539.55 1221.42 530.987C1210.68 522.423 1203.76 523.453 1208.76 537.588Z" fill="#FF4444"/>
<path opacity="0.1" d="M1208.76 537.588C1212.68 548.623 1228.47 574.867 1228.37 577.393C1228.28 579.919 1220.57 606.239 1220.57 606.239L1251.89 625.252C1251.89 625.252 1258.87 589.415 1256.22 576.949C1254.22 567.366 1232.15 539.55 1221.42 530.987C1210.68 522.423 1203.76 523.453 1208.76 537.588Z" fill="black"/>
<path d="M1228.41 575.864C1227.9 574.016 1227.12 572.255 1226.09 570.64C1224.1 566.986 1222.13 563.322 1220.05 559.724C1218.89 557.729 1214.23 550.087 1212.85 547.637C1212.72 547.409 1212.4 547.637 1212.52 547.843C1213.26 549.339 1215.47 553.317 1217.02 556.081C1216.79 555.789 1216.55 555.485 1216.29 555.203C1215.82 554.683 1215.34 554.119 1214.82 553.675C1214.24 553.193 1213.71 552.655 1213.23 552.07C1213.18 551.984 1213.02 552.07 1213.09 552.157C1213.96 553.288 1214.89 554.374 1215.88 555.409C1216.35 555.962 1216.83 556.493 1217.28 557.079C1217.6 557.447 1217.89 557.837 1218.22 558.163C1218.29 558.304 1218.37 558.423 1218.42 558.531C1220.46 562.054 1222.38 565.653 1224.3 569.241C1225.31 570.957 1226.22 572.731 1227.03 574.553C1227.39 575.395 1227.55 576.306 1227.52 577.22C1227.41 578.308 1227.18 579.38 1226.83 580.417C1225.75 584.331 1224.73 588.255 1223.71 592.179C1223.13 594.444 1222.54 596.721 1222 598.997C1221.46 601.274 1220.83 603.55 1220.5 605.87C1220.5 606.022 1220.71 606.152 1220.78 605.978C1221.51 604.021 1222.14 602.028 1222.67 600.005C1223.27 597.967 1223.85 595.926 1224.4 593.881C1225.48 589.751 1226.56 585.61 1227.65 581.458C1228.15 579.648 1228.76 577.762 1228.41 575.864Z" fill="#263238"/>
<path d="M1251.57 617.035C1243.08 611.045 1234.26 605.522 1225.16 600.493C1225.15 600.489 1225.13 600.49 1225.11 600.497C1225.09 600.504 1225.08 600.516 1225.07 600.532C1225.06 600.547 1225.06 600.566 1225.06 600.584C1225.06 600.603 1225.07 600.62 1225.08 600.634C1233.56 606.645 1242.36 612.193 1251.44 617.252C1251.47 617.261 1251.5 617.26 1251.53 617.249C1251.55 617.239 1251.58 617.22 1251.59 617.195C1251.61 617.17 1251.61 617.14 1251.61 617.111C1251.61 617.082 1251.59 617.056 1251.57 617.035Z" fill="#263238"/>
<path d="M318.125 456L305.747 438.805L300.482 444.574V456H293.761V416.289H300.482V435.332L317.565 416.289H326.415L310.34 433.82L326.583 456H318.125ZM332.267 439.365H345.653C345.579 437.647 344.962 436.21 343.805 435.052C342.685 433.895 341.06 433.316 338.932 433.316C336.99 433.316 335.422 433.932 334.227 435.164C333.032 436.359 332.379 437.759 332.267 439.365ZM346.381 446.478L351.87 448.215C351.086 450.716 349.611 452.789 347.446 454.432C345.317 456.037 342.685 456.84 339.548 456.84C335.665 456.84 332.36 455.515 329.634 452.863C326.946 450.212 325.602 446.665 325.602 442.222C325.602 438.039 326.909 434.604 329.522 431.916C332.173 429.227 335.291 427.883 338.876 427.883C343.058 427.883 346.325 429.171 348.678 431.748C351.03 434.287 352.206 437.722 352.206 442.054C352.206 443.211 352.15 443.902 352.038 444.126H332.099C332.173 446.18 332.92 447.879 334.339 449.223C335.795 450.567 337.532 451.239 339.548 451.239C343.058 451.239 345.336 449.652 346.381 446.478ZM364.587 467.034H357.642L364.195 452.751L352.545 428.723H359.882L367.723 445.974L375.061 428.723H381.95L364.587 467.034ZM426.311 422.618H413.372V456H406.651V422.618H393.769V416.289H426.311V422.618ZM423.144 448.607C423.144 446.292 423.891 444.443 425.384 443.062C426.915 441.643 428.913 440.747 431.377 440.373L438.379 439.309C439.723 439.122 440.395 438.469 440.395 437.349C440.395 436.116 439.966 435.127 439.107 434.38C438.248 433.596 436.96 433.204 435.242 433.204C433.599 433.204 432.292 433.671 431.321 434.604C430.351 435.5 429.79 436.677 429.641 438.133L423.704 436.789C423.965 434.324 425.142 432.233 427.233 430.515C429.324 428.76 431.975 427.883 435.186 427.883C439.144 427.883 442.057 428.835 443.924 430.739C445.828 432.644 446.78 435.09 446.78 438.077V451.631C446.78 453.424 446.892 454.88 447.116 456H441.067C440.88 455.44 440.787 454.282 440.787 452.527C438.995 455.403 436.194 456.84 432.386 456.84C429.622 456.84 427.382 456.037 425.664 454.432C423.984 452.789 423.144 450.847 423.144 448.607ZM433.618 451.743C435.634 451.743 437.258 451.202 438.491 450.119C439.76 448.999 440.395 447.188 440.395 444.686V443.454L433.282 444.518C430.855 444.929 429.641 446.161 429.641 448.215C429.641 449.185 429.996 450.026 430.705 450.735C431.415 451.407 432.386 451.743 433.618 451.743ZM478.495 428.723L467.293 440.261L478.719 456H470.765L462.756 444.854L459.395 448.383V456H452.954V415.449H459.395V439.757L469.869 428.723H478.495ZM484.964 439.365H498.35C498.276 437.647 497.66 436.21 496.502 435.052C495.382 433.895 493.758 433.316 491.629 433.316C489.688 433.316 488.119 433.932 486.924 435.164C485.73 436.359 485.076 437.759 484.964 439.365ZM499.079 446.478L504.568 448.215C503.783 450.716 502.309 452.789 500.143 454.432C498.014 456.037 495.382 456.84 492.245 456.84C488.362 456.84 485.057 455.515 482.332 452.863C479.643 450.212 478.299 446.665 478.299 442.222C478.299 438.039 479.606 434.604 482.22 431.916C484.871 429.227 487.989 427.883 491.573 427.883C495.755 427.883 499.023 429.171 501.375 431.748C503.727 434.287 504.904 437.722 504.904 442.054C504.904 443.211 504.848 443.902 504.736 444.126H484.796C484.871 446.18 485.618 447.879 487.036 449.223C488.493 450.567 490.229 451.239 492.245 451.239C495.755 451.239 498.033 449.652 499.079 446.478ZM507.752 448.607C507.752 446.292 508.499 444.443 509.992 443.062C511.523 441.643 513.521 440.747 515.985 440.373L522.987 439.309C524.331 439.122 525.003 438.469 525.003 437.349C525.003 436.116 524.574 435.127 523.715 434.38C522.856 433.596 521.568 433.204 519.85 433.204C518.207 433.204 516.9 433.671 515.929 434.604C514.958 435.5 514.398 436.677 514.249 438.133L508.312 436.789C508.573 434.324 509.75 432.233 511.841 430.515C513.932 428.76 516.583 427.883 519.794 427.883C523.752 427.883 526.665 428.835 528.532 430.739C530.436 432.644 531.388 435.09 531.388 438.077V451.631C531.388 453.424 531.5 454.88 531.724 456H525.675C525.488 455.44 525.395 454.282 525.395 452.527C523.603 455.403 520.802 456.84 516.994 456.84C514.23 456.84 511.99 456.037 510.272 454.432C508.592 452.789 507.752 450.847 507.752 448.607ZM518.226 451.743C520.242 451.743 521.866 451.202 523.099 450.119C524.368 448.999 525.003 447.188 525.003 444.686V443.454L517.89 444.518C515.463 444.929 514.249 446.161 514.249 448.215C514.249 449.185 514.604 450.026 515.313 450.735C516.023 451.407 516.994 451.743 518.226 451.743ZM552.857 428.723H559.578L566.019 447.598L571.452 428.723H578.061L569.323 456H562.826L556.049 436.396L549.44 456H542.775L533.925 428.723H540.87L546.415 447.598L552.857 428.723ZM579.491 448.607C579.491 446.292 580.237 444.443 581.731 443.062C583.262 441.643 585.26 440.747 587.724 440.373L594.725 439.309C596.07 439.122 596.742 438.469 596.742 437.349C596.742 436.116 596.312 435.127 595.453 434.38C594.595 433.596 593.306 433.204 591.589 433.204C589.946 433.204 588.639 433.671 587.668 434.604C586.697 435.5 586.137 436.677 585.988 438.133L580.051 436.789C580.312 434.324 581.488 432.233 583.579 430.515C585.67 428.76 588.322 427.883 591.533 427.883C595.491 427.883 598.403 428.835 600.27 430.739C602.175 432.644 603.127 435.09 603.127 438.077V451.631C603.127 453.424 603.239 454.88 603.463 456H597.414C597.227 455.44 597.134 454.282 597.134 452.527C595.341 455.403 592.541 456.84 588.732 456.84C585.969 456.84 583.729 456.037 582.011 454.432C580.331 452.789 579.491 450.847 579.491 448.607ZM589.964 451.743C591.981 451.743 593.605 451.202 594.837 450.119C596.107 448.999 596.742 447.188 596.742 444.686V443.454L589.628 444.518C587.201 444.929 585.988 446.161 585.988 448.215C585.988 449.185 586.342 450.026 587.052 450.735C587.761 451.407 588.732 451.743 589.964 451.743ZM616.934 467.034H609.989L616.542 452.751L604.892 428.723H612.229L620.07 445.974L627.408 428.723H634.297L616.934 467.034ZM634.53 448.607L640.187 447.038C640.299 448.345 640.84 449.447 641.811 450.343C642.782 451.239 644.089 451.687 645.732 451.687C647.001 451.687 647.991 451.389 648.7 450.791C649.447 450.194 649.82 449.447 649.82 448.551C649.82 446.982 648.756 445.974 646.628 445.526L642.595 444.63C640.243 444.107 638.432 443.136 637.162 441.717C635.893 440.299 635.258 438.618 635.258 436.677C635.258 434.287 636.229 432.233 638.17 430.515C640.112 428.76 642.483 427.883 645.284 427.883C647.076 427.883 648.663 428.144 650.044 428.667C651.426 429.19 652.49 429.881 653.237 430.739C654.021 431.561 654.619 432.364 655.029 433.148C655.44 433.932 655.701 434.716 655.813 435.5L650.324 437.069C650.175 436.023 649.69 435.09 648.868 434.268C648.084 433.409 646.889 432.98 645.284 432.98C644.163 432.98 643.23 433.297 642.483 433.932C641.736 434.529 641.363 435.258 641.363 436.116C641.363 437.647 642.278 438.6 644.107 438.973L648.252 439.813C650.791 440.373 652.733 441.381 654.077 442.838C655.421 444.294 656.093 446.049 656.093 448.103C656.093 450.38 655.179 452.415 653.349 454.208C651.557 455.963 649.036 456.84 645.788 456.84C643.921 456.84 642.24 456.56 640.747 456C639.29 455.44 638.133 454.73 637.274 453.872C636.453 452.975 635.799 452.098 635.314 451.239C634.866 450.343 634.604 449.466 634.53 448.607ZM685.167 420.994C684.084 420.994 683.132 421.311 682.311 421.946C681.526 422.543 681.134 423.608 681.134 425.138V428.723H687.463V434.38H681.134V456H674.581V434.38H669.82V428.723H674.581V424.97C674.581 421.946 675.459 419.556 677.214 417.801C678.969 416.046 681.265 415.169 684.103 415.169C685.634 415.169 686.773 415.355 687.519 415.729V421.274C686.847 421.087 686.063 420.994 685.167 420.994ZM706.933 428.555V435.164C706.186 435.052 705.477 434.996 704.805 434.996C699.913 434.996 697.467 437.666 697.467 443.006V456H690.97V428.723H697.299V433.092C697.934 431.636 698.961 430.497 700.38 429.675C701.799 428.816 703.404 428.387 705.197 428.387C705.794 428.387 706.373 428.443 706.933 428.555ZM716.956 448.719C718.45 450.25 720.261 451.015 722.389 451.015C724.518 451.015 726.31 450.25 727.766 448.719C729.26 447.188 730.007 445.059 730.007 442.334C730.007 439.645 729.26 437.554 727.766 436.06C726.31 434.529 724.518 433.764 722.389 433.764C720.261 433.764 718.45 434.529 716.956 436.06C715.5 437.554 714.772 439.645 714.772 442.334C714.772 445.022 715.5 447.15 716.956 448.719ZM722.389 427.883C726.497 427.883 729.876 429.246 732.527 431.972C735.215 434.698 736.56 438.151 736.56 442.334C736.56 446.516 735.215 449.988 732.527 452.751C729.876 455.477 726.497 456.84 722.389 456.84C718.319 456.84 714.94 455.477 712.251 452.751C709.6 449.988 708.275 446.516 708.275 442.334C708.275 438.151 709.6 434.698 712.251 431.972C714.94 429.246 718.319 427.883 722.389 427.883ZM747.599 456H741.158V428.723H747.375V432.196C748.122 430.852 749.242 429.806 750.736 429.059C752.267 428.312 753.835 427.939 755.441 427.939C757.27 427.939 758.913 428.35 760.37 429.171C761.826 429.993 762.909 431.188 763.618 432.756C765.523 429.545 768.472 427.939 772.468 427.939C775.156 427.939 777.434 428.816 779.301 430.571C781.168 432.326 782.102 434.903 782.102 438.301V456H775.828V439.365C775.828 437.685 775.38 436.34 774.484 435.332C773.625 434.287 772.318 433.764 770.563 433.764C768.883 433.764 767.52 434.343 766.475 435.5C765.429 436.658 764.906 438.095 764.906 439.813V456H758.521V439.365C758.521 437.685 758.073 436.34 757.177 435.332C756.318 434.287 755.011 433.764 753.256 433.764C751.539 433.764 750.157 434.343 749.112 435.5C748.103 436.621 747.599 438.058 747.599 439.813V456ZM300.482 505.548H307.483C309.612 505.548 311.273 505.007 312.468 503.924C313.7 502.804 314.317 501.31 314.317 499.443C314.317 497.539 313.7 496.026 312.468 494.906C311.273 493.786 309.612 493.226 307.483 493.226H300.482V505.548ZM308.491 511.485H300.482V527H293.761V487.289H308.491C312.263 487.289 315.306 488.428 317.621 490.706C319.974 492.983 321.15 495.877 321.15 499.387C321.15 502.934 319.974 505.847 317.621 508.125C315.306 510.365 312.263 511.485 308.491 511.485ZM340.466 499.555V506.164C339.719 506.052 339.009 505.996 338.337 505.996C333.446 505.996 331 508.666 331 514.006V527H324.503V499.723H330.832V504.092C331.467 502.636 332.494 501.497 333.913 500.675C335.331 499.816 336.937 499.387 338.729 499.387C339.327 499.387 339.906 499.443 340.466 499.555ZM350.65 527H344.209V499.723H350.65V527ZM344.433 493.114C343.612 492.292 343.201 491.303 343.201 490.145C343.201 488.988 343.612 487.998 344.433 487.177C345.255 486.318 346.244 485.889 347.402 485.889C348.597 485.889 349.605 486.299 350.426 487.121C351.248 487.942 351.659 488.951 351.659 490.145C351.659 491.303 351.248 492.292 350.426 493.114C349.605 493.935 348.597 494.346 347.402 494.346C346.244 494.346 345.255 493.935 344.433 493.114ZM363.793 527H357.352V499.723H363.569V503.196C364.316 501.852 365.436 500.806 366.93 500.059C368.461 499.312 370.029 498.939 371.634 498.939C373.464 498.939 375.107 499.35 376.563 500.171C378.02 500.993 379.102 502.188 379.812 503.756C381.716 500.545 384.666 498.939 388.661 498.939C391.35 498.939 393.628 499.816 395.495 501.571C397.362 503.326 398.295 505.903 398.295 509.301V527H392.022V510.365C392.022 508.685 391.574 507.34 390.678 506.332C389.819 505.287 388.512 504.764 386.757 504.764C385.077 504.764 383.714 505.343 382.668 506.5C381.623 507.658 381.1 509.095 381.1 510.813V527H374.715V510.365C374.715 508.685 374.267 507.34 373.371 506.332C372.512 505.287 371.205 504.764 369.45 504.764C367.732 504.764 366.351 505.343 365.305 506.5C364.297 507.621 363.793 509.058 363.793 510.813V527ZM402.891 519.607C402.891 517.292 403.637 515.443 405.131 514.062C406.662 512.643 408.66 511.747 411.124 511.373L418.125 510.309C419.47 510.122 420.142 509.469 420.142 508.349C420.142 507.116 419.712 506.127 418.853 505.38C417.995 504.596 416.706 504.204 414.989 504.204C413.346 504.204 412.039 504.671 411.068 505.604C410.097 506.5 409.537 507.677 409.388 509.133L403.451 507.789C403.712 505.324 404.888 503.233 406.979 501.515C409.07 499.76 411.722 498.883 414.933 498.883C418.891 498.883 421.803 499.835 423.67 501.739C425.575 503.644 426.527 506.09 426.527 509.077V522.631C426.527 524.424 426.639 525.88 426.863 527H420.814C420.627 526.44 420.534 525.282 420.534 523.527C418.741 526.403 415.941 527.84 412.132 527.84C409.369 527.84 407.129 527.037 405.411 525.432C403.731 523.789 402.891 521.847 402.891 519.607ZM413.365 522.743C415.381 522.743 417.005 522.202 418.237 521.119C419.507 519.999 420.142 518.188 420.142 515.686V514.454L413.028 515.518C410.601 515.929 409.388 517.161 409.388 519.215C409.388 520.185 409.743 521.026 410.452 521.735C411.161 522.407 412.132 522.743 413.365 522.743ZM448.663 499.555V506.164C447.917 506.052 447.207 505.996 446.535 505.996C441.644 505.996 439.198 508.666 439.198 514.006V527H432.701V499.723H439.03V504.092C439.665 502.636 440.691 501.497 442.11 500.675C443.529 499.816 445.135 499.387 446.927 499.387C447.525 499.387 448.103 499.443 448.663 499.555ZM461.681 538.034H454.736L461.289 523.751L449.639 499.723H456.976L464.818 516.974L472.155 499.723H479.044L461.681 538.034ZM518.866 527L514.385 522.295C511.025 525.917 507.403 527.728 503.519 527.728C499.897 527.728 497.022 526.701 494.894 524.648C492.765 522.557 491.701 520.111 491.701 517.31C491.701 514.958 492.261 512.979 493.381 511.373C494.502 509.768 496.238 508.087 498.59 506.332L498.982 506.052L498.31 505.324C495.286 502.225 493.773 499.312 493.773 496.587C493.773 493.487 494.838 491.023 496.966 489.193C499.132 487.364 501.615 486.449 504.415 486.449C507.552 486.449 510.147 487.364 512.201 489.193C514.254 490.986 515.281 493.357 515.281 496.307C515.281 499.443 513.414 502.43 509.68 505.268L507.944 506.556L514.553 513.446L524.019 503.252V511.653L518.586 517.646L527.547 527H518.866ZM503.631 521.847C505.722 521.847 507.925 520.596 510.24 518.094L510.296 518.038L502.959 510.253L501.615 511.261C499.449 512.867 498.366 514.734 498.366 516.862C498.366 518.169 498.852 519.327 499.823 520.335C500.793 521.343 502.063 521.847 503.631 521.847ZM500.159 496.195C500.159 497.613 501.036 499.275 502.791 501.179L503.911 502.412L506.208 500.731C508 499.387 508.896 497.875 508.896 496.195C508.896 495 508.467 493.991 507.608 493.17C506.786 492.348 505.741 491.938 504.471 491.938C503.314 491.938 502.306 492.311 501.447 493.058C500.588 493.805 500.159 494.85 500.159 496.195ZM566.699 496.587L560.65 498.491C560.389 496.96 559.623 495.56 558.354 494.29C557.084 493.021 555.255 492.386 552.865 492.386C550.886 492.386 549.243 492.946 547.936 494.066C546.666 495.186 546.032 496.531 546.032 498.099C546.032 500.825 547.581 502.524 550.68 503.196L556.393 504.372C559.829 505.044 562.48 506.407 564.347 508.461C566.214 510.514 567.147 512.96 567.147 515.798C567.147 519.084 565.878 521.922 563.339 524.312C560.837 526.664 557.42 527.84 553.089 527.84C548.421 527.84 544.781 526.627 542.167 524.2C539.553 521.735 538.078 518.879 537.742 515.63L544.015 513.838C544.239 516.078 545.135 517.964 546.704 519.495C548.272 521.026 550.4 521.791 553.089 521.791C555.404 521.791 557.178 521.287 558.41 520.279C559.679 519.233 560.314 517.908 560.314 516.302C560.314 514.995 559.847 513.875 558.914 512.941C557.98 511.971 556.674 511.299 554.993 510.925L549.392 509.749C546.293 509.114 543.829 507.826 541.999 505.884C540.207 503.943 539.31 501.515 539.31 498.603C539.31 495.28 540.636 492.423 543.287 490.033C545.938 487.644 549.112 486.449 552.809 486.449C557.028 486.449 560.258 487.476 562.499 489.529C564.739 491.546 566.139 493.898 566.699 496.587ZM576.042 510.365H589.428C589.353 508.647 588.737 507.21 587.58 506.052C586.459 504.895 584.835 504.316 582.707 504.316C580.765 504.316 579.197 504.932 578.002 506.164C576.807 507.359 576.154 508.759 576.042 510.365ZM590.156 517.478L595.645 519.215C594.861 521.716 593.386 523.789 591.22 525.432C589.092 527.037 586.459 527.84 583.323 527.84C579.44 527.84 576.135 526.515 573.409 523.863C570.721 521.212 569.376 517.665 569.376 513.222C569.376 509.039 570.683 505.604 573.297 502.916C575.948 500.227 579.066 498.883 582.651 498.883C586.833 498.883 590.1 500.171 592.453 502.748C594.805 505.287 595.981 508.722 595.981 513.054C595.981 514.211 595.925 514.902 595.813 515.126H575.874C575.948 517.18 576.695 518.879 578.114 520.223C579.57 521.567 581.307 522.239 583.323 522.239C586.833 522.239 589.111 520.652 590.156 517.478ZM612.384 504.876C610.293 504.876 608.519 505.642 607.063 507.172C605.607 508.666 604.878 510.72 604.878 513.334C604.878 515.985 605.607 518.076 607.063 519.607C608.556 521.138 610.367 521.903 612.496 521.903C614.4 521.903 615.912 521.399 617.033 520.391C618.19 519.345 618.956 518.169 619.329 516.862L625.042 518.935C624.295 521.362 622.839 523.453 620.673 525.208C618.545 526.963 615.819 527.84 612.496 527.84C608.5 527.84 605.14 526.459 602.414 523.695C599.726 520.932 598.381 517.478 598.381 513.334C598.381 509.151 599.707 505.698 602.358 502.972C605.046 500.246 608.37 498.883 612.328 498.883C615.726 498.883 618.489 499.76 620.617 501.515C622.783 503.27 624.183 505.38 624.818 507.845L618.993 509.973C618.62 508.554 617.891 507.359 616.809 506.388C615.763 505.38 614.288 504.876 612.384 504.876ZM635.411 519.719C636.905 521.25 638.716 522.015 640.844 522.015C642.973 522.015 644.765 521.25 646.221 519.719C647.715 518.188 648.462 516.059 648.462 513.334C648.462 510.645 647.715 508.554 646.221 507.06C644.765 505.529 642.973 504.764 640.844 504.764C638.716 504.764 636.905 505.529 635.411 507.06C633.955 508.554 633.227 510.645 633.227 513.334C633.227 516.022 633.955 518.15 635.411 519.719ZM640.844 498.883C644.952 498.883 648.331 500.246 650.982 502.972C653.671 505.698 655.015 509.151 655.015 513.334C655.015 517.516 653.671 520.988 650.982 523.751C648.331 526.477 644.952 527.84 640.844 527.84C636.774 527.84 633.395 526.477 630.706 523.751C628.055 520.988 626.73 517.516 626.73 513.334C626.73 509.151 628.055 505.698 630.706 502.972C633.395 500.246 636.774 498.883 640.844 498.883ZM666.111 511.261V527H659.613V499.723H665.942V503.364C666.801 501.87 667.94 500.769 669.359 500.059C670.815 499.312 672.365 498.939 674.008 498.939C677.219 498.939 679.665 499.947 681.345 501.964C683.026 503.98 683.866 506.575 683.866 509.749V527H677.369V510.869C677.369 509.039 676.92 507.583 676.024 506.5C675.128 505.38 673.709 504.82 671.768 504.82C669.975 504.82 668.575 505.436 667.567 506.668C666.596 507.863 666.111 509.394 666.111 511.261ZM694.464 513.278C694.464 515.891 695.136 518.001 696.48 519.607C697.824 521.175 699.598 521.959 701.801 521.959C703.93 521.959 705.666 521.156 707.01 519.551C708.354 517.945 709.026 515.835 709.026 513.222C709.026 510.645 708.373 508.591 707.066 507.06C705.759 505.529 704.023 504.764 701.857 504.764C699.691 504.764 697.918 505.548 696.536 507.116C695.155 508.647 694.464 510.701 694.464 513.278ZM715.3 486.449V522.015C715.3 523.845 715.393 525.506 715.58 527H709.362C709.176 525.954 709.082 524.778 709.082 523.471C708.41 524.704 707.365 525.712 705.946 526.496C704.527 527.28 702.903 527.672 701.073 527.672C697.19 527.672 694.034 526.309 691.607 523.583C689.18 520.858 687.967 517.422 687.967 513.278C687.967 509.282 689.18 505.903 691.607 503.14C694.072 500.377 697.19 498.995 700.961 498.995C703.127 498.995 704.863 499.387 706.17 500.171C707.514 500.955 708.448 501.87 708.97 502.916V486.449H715.3ZM720.319 519.607C720.319 517.292 721.065 515.443 722.559 514.062C724.09 512.643 726.088 511.747 728.552 511.373L735.553 510.309C736.898 510.122 737.57 509.469 737.57 508.349C737.57 507.116 737.14 506.127 736.281 505.38C735.423 504.596 734.134 504.204 732.417 504.204C730.774 504.204 729.467 504.671 728.496 505.604C727.525 506.5 726.965 507.677 726.816 509.133L720.879 507.789C721.14 505.324 722.316 503.233 724.407 501.515C726.498 499.76 729.149 498.883 732.361 498.883C736.319 498.883 739.231 499.835 741.098 501.739C743.003 503.644 743.955 506.09 743.955 509.077V522.631C743.955 524.424 744.067 525.88 744.291 527H738.242C738.055 526.44 737.962 525.282 737.962 523.527C736.169 526.403 733.369 527.84 729.56 527.84C726.797 527.84 724.557 527.037 722.839 525.432C721.159 523.789 720.319 521.847 720.319 519.607ZM730.792 522.743C732.809 522.743 734.433 522.202 735.665 521.119C736.935 519.999 737.57 518.188 737.57 515.686V514.454L730.456 515.518C728.029 515.929 726.816 517.161 726.816 519.215C726.816 520.185 727.17 521.026 727.88 521.735C728.589 522.407 729.56 522.743 730.792 522.743ZM766.091 499.555V506.164C765.345 506.052 764.635 505.996 763.963 505.996C759.072 505.996 756.626 508.666 756.626 514.006V527H750.129V499.723H756.458V504.092C757.092 502.636 758.119 501.497 759.538 500.675C760.957 499.816 762.563 499.387 764.355 499.387C764.953 499.387 765.531 499.443 766.091 499.555ZM779.109 538.034H772.164L778.717 523.751L767.067 499.723H774.404L782.246 516.974L789.583 499.723H796.472L779.109 538.034ZM832.375 527L824.03 511.317H819.101V527H812.324V487.289H827.558C831.292 487.289 834.298 488.446 836.576 490.762C838.854 493.039 839.993 495.896 839.993 499.331C839.993 502.169 839.19 504.596 837.584 506.612C835.979 508.629 833.794 509.973 831.031 510.645L839.993 527H832.375ZM819.101 505.38H826.326C828.38 505.38 830.023 504.839 831.255 503.756C832.525 502.636 833.159 501.161 833.159 499.331C833.159 497.464 832.525 495.989 831.255 494.906C830.023 493.786 828.38 493.226 826.326 493.226H819.101V505.38ZM848.532 510.365H861.919C861.844 508.647 861.228 507.21 860.07 506.052C858.95 504.895 857.326 504.316 855.198 504.316C853.256 504.316 851.688 504.932 850.493 506.164C849.298 507.359 848.644 508.759 848.532 510.365ZM862.647 517.478L868.136 519.215C867.352 521.716 865.877 523.789 863.711 525.432C861.583 527.037 858.95 527.84 855.814 527.84C851.93 527.84 848.626 526.515 845.9 523.863C843.211 521.212 841.867 517.665 841.867 513.222C841.867 509.039 843.174 505.604 845.788 502.916C848.439 500.227 851.557 498.883 855.142 498.883C859.324 498.883 862.591 500.171 864.943 502.748C867.296 505.287 868.472 508.722 868.472 513.054C868.472 514.211 868.416 514.902 868.304 515.126H848.364C848.439 517.18 849.186 518.879 850.605 520.223C852.061 521.567 853.797 522.239 855.814 522.239C859.324 522.239 861.601 520.652 862.647 517.478ZM870.592 519.607L876.249 518.038C876.361 519.345 876.903 520.447 877.873 521.343C878.844 522.239 880.151 522.687 881.794 522.687C883.064 522.687 884.053 522.389 884.763 521.791C885.509 521.194 885.883 520.447 885.883 519.551C885.883 517.982 884.819 516.974 882.69 516.526L878.658 515.63C876.305 515.107 874.494 514.136 873.225 512.717C871.955 511.299 871.32 509.618 871.32 507.677C871.32 505.287 872.291 503.233 874.233 501.515C876.174 499.76 878.545 498.883 881.346 498.883C883.138 498.883 884.725 499.144 886.107 499.667C887.488 500.19 888.553 500.881 889.299 501.739C890.084 502.561 890.681 503.364 891.092 504.148C891.502 504.932 891.764 505.716 891.876 506.5L886.387 508.069C886.238 507.023 885.752 506.09 884.931 505.268C884.146 504.409 882.952 503.98 881.346 503.98C880.226 503.98 879.292 504.297 878.545 504.932C877.799 505.529 877.425 506.258 877.425 507.116C877.425 508.647 878.34 509.6 880.17 509.973L884.315 510.813C886.854 511.373 888.795 512.381 890.14 513.838C891.484 515.294 892.156 517.049 892.156 519.103C892.156 521.38 891.241 523.415 889.411 525.208C887.619 526.963 885.099 527.84 881.85 527.84C879.983 527.84 878.303 527.56 876.809 527C875.353 526.44 874.195 525.73 873.337 524.872C872.515 523.975 871.862 523.098 871.376 522.239C870.928 521.343 870.667 520.466 870.592 519.607ZM901.291 510.365H914.678C914.603 508.647 913.987 507.21 912.829 506.052C911.709 504.895 910.085 504.316 907.956 504.316C906.015 504.316 904.446 504.932 903.252 506.164C902.057 507.359 901.403 508.759 901.291 510.365ZM915.406 517.478L920.895 519.215C920.111 521.716 918.636 523.789 916.47 525.432C914.342 527.037 911.709 527.84 908.573 527.84C904.689 527.84 901.385 526.515 898.659 523.863C895.97 521.212 894.626 517.665 894.626 513.222C894.626 509.039 895.933 505.604 898.547 502.916C901.198 500.227 904.316 498.883 907.9 498.883C912.082 498.883 915.35 500.171 917.702 502.748C920.055 505.287 921.231 508.722 921.231 513.054C921.231 514.211 921.175 514.902 921.063 515.126H901.123C901.198 517.18 901.945 518.879 903.364 520.223C904.82 521.567 906.556 522.239 908.573 522.239C912.082 522.239 914.36 520.652 915.406 517.478ZM924.079 519.607C924.079 517.292 924.826 515.443 926.319 514.062C927.85 512.643 929.848 511.747 932.312 511.373L939.314 510.309C940.658 510.122 941.33 509.469 941.33 508.349C941.33 507.116 940.901 506.127 940.042 505.38C939.183 504.596 937.895 504.204 936.177 504.204C934.534 504.204 933.227 504.671 932.256 505.604C931.286 506.5 930.726 507.677 930.576 509.133L924.639 507.789C924.9 505.324 926.077 503.233 928.168 501.515C930.259 499.76 932.91 498.883 936.121 498.883C940.079 498.883 942.992 499.835 944.859 501.739C946.763 503.644 947.715 506.09 947.715 509.077V522.631C947.715 524.424 947.827 525.88 948.051 527H942.002C941.815 526.44 941.722 525.282 941.722 523.527C939.93 526.403 937.129 527.84 933.321 527.84C930.557 527.84 928.317 527.037 926.599 525.432C924.919 523.789 924.079 521.847 924.079 519.607ZM934.553 522.743C936.569 522.743 938.194 522.202 939.426 521.119C940.695 519.999 941.33 518.188 941.33 515.686V514.454L934.217 515.518C931.79 515.929 930.576 517.161 930.576 519.215C930.576 520.185 930.931 521.026 931.64 521.735C932.35 522.407 933.321 522.743 934.553 522.743ZM969.852 499.555V506.164C969.105 506.052 968.396 505.996 967.723 505.996C962.832 505.996 960.386 508.666 960.386 514.006V527H953.889V499.723H960.218V504.092C960.853 502.636 961.88 501.497 963.299 500.675C964.718 499.816 966.323 499.387 968.116 499.387C968.713 499.387 969.292 499.443 969.852 499.555ZM985.196 504.876C983.105 504.876 981.331 505.642 979.875 507.172C978.419 508.666 977.691 510.72 977.691 513.334C977.691 515.985 978.419 518.076 979.875 519.607C981.369 521.138 983.18 521.903 985.308 521.903C987.212 521.903 988.725 521.399 989.845 520.391C991.002 519.345 991.768 518.169 992.141 516.862L997.854 518.935C997.107 521.362 995.651 523.453 993.485 525.208C991.357 526.963 988.631 527.84 985.308 527.84C981.313 527.84 977.952 526.459 975.226 523.695C972.538 520.932 971.193 517.478 971.193 513.334C971.193 509.151 972.519 505.698 975.17 502.972C977.859 500.246 981.182 498.883 985.14 498.883C988.538 498.883 991.301 499.76 993.429 501.515C995.595 503.27 996.995 505.38 997.63 507.845L991.805 509.973C991.432 508.554 990.704 507.359 989.621 506.388C988.575 505.38 987.1 504.876 985.196 504.876ZM1008.44 510.981V527H1001.94V486.449H1008.44V502.356C1010.2 500.078 1012.79 498.939 1016.23 498.939C1019.44 498.939 1021.9 499.947 1023.62 501.964C1025.34 503.98 1026.2 506.575 1026.2 509.749V527H1019.7V510.869C1019.7 509.039 1019.25 507.583 1018.35 506.5C1017.46 505.38 1016.04 504.82 1014.1 504.82C1012.38 504.82 1011.02 505.399 1010.01 506.556C1009.04 507.714 1008.52 509.189 1008.44 510.981Z" fill="#2E2E2E"/>
<path d="M306.221 364L300.116 353.072H296.122V364H292.391V337.283H302.453C304.914 337.283 306.887 338.049 308.369 339.582C309.876 341.089 310.63 342.973 310.63 345.234C310.63 347.169 310.052 348.827 308.896 350.208C307.741 351.565 306.158 352.432 304.148 352.808L310.517 364H306.221ZM296.122 349.756H301.774C303.282 349.756 304.5 349.354 305.429 348.55C306.359 347.721 306.824 346.616 306.824 345.234C306.824 343.827 306.359 342.71 305.429 341.881C304.5 341.026 303.282 340.599 301.774 340.599H296.122V349.756ZM315.777 353.072H325.688C325.638 351.716 325.185 350.61 324.331 349.756C323.477 348.877 322.271 348.437 320.714 348.437C319.307 348.437 318.151 348.902 317.247 349.831C316.343 350.736 315.853 351.816 315.777 353.072ZM326.215 357.782L329.268 358.838C328.74 360.521 327.76 361.902 326.328 362.983C324.896 364.038 323.163 364.565 321.128 364.565C318.591 364.565 316.431 363.699 314.647 361.965C312.888 360.207 312.009 357.845 312.009 354.881C312.009 352.118 312.863 349.831 314.572 348.023C316.28 346.214 318.315 345.31 320.676 345.31C323.414 345.31 325.55 346.176 327.082 347.91C328.614 349.618 329.381 351.917 329.381 354.806C329.381 355.258 329.356 355.635 329.305 355.936H315.664C315.689 357.544 316.217 358.863 317.247 359.893C318.302 360.923 319.596 361.438 321.128 361.438C323.716 361.438 325.411 360.219 326.215 357.782ZM331.076 359.29L334.279 358.159C334.405 359.139 334.832 359.955 335.56 360.609C336.289 361.237 337.268 361.551 338.499 361.551C339.454 361.551 340.208 361.325 340.76 360.872C341.313 360.395 341.589 359.817 341.589 359.139C341.589 357.933 340.811 357.154 339.253 356.803L336.163 356.124C334.756 355.823 333.651 355.22 332.847 354.316C332.043 353.411 331.641 352.319 331.641 351.037C331.641 349.48 332.269 348.136 333.525 347.005C334.807 345.875 336.326 345.31 338.085 345.31C339.241 345.31 340.271 345.485 341.175 345.837C342.079 346.164 342.783 346.603 343.285 347.156C343.788 347.709 344.164 348.224 344.416 348.701C344.667 349.178 344.855 349.668 344.981 350.171L341.853 351.339C341.803 351.037 341.715 350.748 341.589 350.472C341.464 350.171 341.263 349.844 340.986 349.492C340.735 349.141 340.358 348.864 339.856 348.663C339.354 348.437 338.763 348.324 338.085 348.324C337.206 348.324 336.477 348.563 335.899 349.04C335.347 349.517 335.07 350.083 335.07 350.736C335.07 351.891 335.761 352.62 337.143 352.921L340.082 353.562C341.69 353.914 342.921 354.567 343.775 355.521C344.654 356.451 345.094 357.594 345.094 358.951C345.094 360.383 344.503 361.676 343.323 362.832C342.167 363.987 340.547 364.565 338.462 364.565C336.226 364.565 334.48 364.013 333.224 362.907C331.968 361.777 331.252 360.571 331.076 359.29ZM350.794 353.072H360.704C360.654 351.716 360.202 350.61 359.348 349.756C358.494 348.877 357.288 348.437 355.73 348.437C354.323 348.437 353.168 348.902 352.263 349.831C351.359 350.736 350.869 351.816 350.794 353.072ZM361.232 357.782L364.284 358.838C363.757 360.521 362.777 361.902 361.345 362.983C359.913 364.038 358.18 364.565 356.145 364.565C353.607 364.565 351.447 363.699 349.663 361.965C347.905 360.207 347.026 357.845 347.026 354.881C347.026 352.118 347.88 349.831 349.588 348.023C351.296 346.214 353.331 345.31 355.693 345.31C358.431 345.31 360.566 346.176 362.099 347.91C363.631 349.618 364.397 351.917 364.397 354.806C364.397 355.258 364.372 355.635 364.322 355.936H350.681C350.706 357.544 351.233 358.863 352.263 359.893C353.319 360.923 354.612 361.438 356.145 361.438C358.732 361.438 360.428 360.219 361.232 357.782ZM366.658 359.139C366.658 357.581 367.16 356.338 368.165 355.408C369.17 354.454 370.501 353.863 372.159 353.637L377.058 352.921C377.988 352.796 378.452 352.344 378.452 351.565C378.452 350.61 378.126 349.831 377.473 349.229C376.819 348.626 375.84 348.324 374.533 348.324C373.328 348.324 372.373 348.663 371.67 349.342C370.966 349.995 370.552 350.874 370.426 351.979L367.035 351.188C367.21 349.455 368.002 348.048 369.409 346.968C370.815 345.862 372.499 345.31 374.458 345.31C377.02 345.31 378.917 345.938 380.148 347.194C381.379 348.425 381.994 350.007 381.994 351.942V361.023C381.994 362.103 382.07 363.096 382.221 364H378.754C378.628 363.246 378.565 362.43 378.565 361.551C378.063 362.355 377.322 363.058 376.342 363.661C375.388 364.264 374.182 364.565 372.725 364.565C370.941 364.565 369.484 364.038 368.354 362.983C367.223 361.902 366.658 360.621 366.658 359.139ZM373.215 361.588C374.797 361.588 376.066 361.161 377.02 360.307C377.975 359.453 378.452 358.096 378.452 356.237V355.408L372.913 356.237C372.109 356.363 371.469 356.652 370.991 357.104C370.514 357.556 370.275 358.172 370.275 358.951C370.275 359.654 370.539 360.269 371.067 360.797C371.619 361.325 372.335 361.588 373.215 361.588ZM396.443 345.686V349.455C395.916 349.379 395.401 349.342 394.898 349.342C391.582 349.342 389.924 351.201 389.924 354.919V364H386.382V345.875H389.849V349.04C390.954 346.729 392.763 345.573 395.275 345.573C395.677 345.573 396.066 345.611 396.443 345.686ZM406.516 348.588C404.983 348.588 403.677 349.141 402.597 350.246C401.542 351.351 401.014 352.909 401.014 354.919C401.014 356.903 401.542 358.461 402.597 359.591C403.677 360.722 404.996 361.287 406.554 361.287C408.061 361.287 409.204 360.91 409.983 360.156C410.787 359.403 411.327 358.536 411.603 357.556L414.731 358.913C414.228 360.42 413.274 361.739 411.867 362.87C410.485 364 408.714 364.565 406.554 364.565C403.916 364.565 401.73 363.648 399.997 361.814C398.263 359.981 397.397 357.682 397.397 354.919C397.397 352.105 398.263 349.806 399.997 348.023C401.73 346.214 403.903 345.31 406.516 345.31C408.727 345.31 410.51 345.875 411.867 347.005C413.248 348.136 414.153 349.492 414.58 351.075L411.377 352.432C411.101 351.376 410.573 350.472 409.794 349.718C409.015 348.965 407.923 348.588 406.516 348.588ZM421.298 353.336V364H417.756V336.718H421.298V347.985C422.503 346.227 424.337 345.347 426.799 345.347C428.884 345.347 430.48 346.013 431.585 347.344C432.715 348.676 433.281 350.397 433.281 352.507V364H429.738V353.11C429.738 350.07 428.332 348.55 425.518 348.55C424.212 348.55 423.194 349.002 422.466 349.907C421.737 350.786 421.348 351.929 421.298 353.336Z" fill="#FF4444"/>
<rect x="474" y="350" width="589" height="6" fill="#FFC002"/>
</svg>
