<svg width="1400" height="146" viewBox="0 0 1400 146" fill="none" xmlns="http://www.w3.org/2000/svg">
<rect width="1400" height="146" fill="#FCDC4D"/>
<path d="M120.56 64.472H125.792C127.424 64.472 128.72 64.04 129.68 63.176C130.64 62.28 131.12 61.096 131.12 59.624C131.12 58.12 130.64 56.936 129.68 56.072C128.752 55.176 127.456 54.728 125.792 54.728H120.56V64.472ZM126.608 70.184H120.512V83H113.888V48.968H126.608C129.936 48.968 132.624 49.96 134.672 51.944C136.752 53.928 137.792 56.472 137.792 59.576C137.792 62.68 136.752 65.224 134.672 67.208C132.624 69.192 129.936 70.184 126.608 70.184ZM155.395 59.288V65.72C154.755 65.592 154.115 65.528 153.475 65.528C151.651 65.528 150.179 66.056 149.059 67.112C147.939 68.136 147.379 69.832 147.379 72.2V83H140.995V59.384H147.187V62.888C148.339 60.424 150.579 59.192 153.907 59.192C154.259 59.192 154.755 59.224 155.395 59.288ZM165.027 76.136C166.211 77.32 167.635 77.912 169.299 77.912C170.963 77.912 172.371 77.32 173.523 76.136C174.707 74.952 175.299 73.304 175.299 71.192C175.299 69.08 174.707 67.432 173.523 66.248C172.371 65.064 170.963 64.472 169.299 64.472C167.635 64.472 166.211 65.064 165.027 66.248C163.875 67.432 163.299 69.08 163.299 71.192C163.299 73.304 163.875 74.952 165.027 76.136ZM160.419 62.216C162.787 59.848 165.747 58.664 169.299 58.664C172.851 58.664 175.795 59.848 178.131 62.216C180.499 64.584 181.683 67.576 181.683 71.192C181.683 74.808 180.499 77.8 178.131 80.168C175.795 82.536 172.851 83.72 169.299 83.72C165.747 83.72 162.787 82.536 160.419 80.168C158.083 77.8 156.915 74.808 156.915 71.192C156.915 67.576 158.083 64.584 160.419 62.216ZM193.541 52.328V59.384H198.293V65.048H193.541V74.936C193.541 75.928 193.765 76.632 194.213 77.048C194.661 77.464 195.365 77.672 196.325 77.672C197.189 77.672 197.845 77.608 198.293 77.48V82.76C197.365 83.144 196.165 83.336 194.693 83.336C192.389 83.336 190.565 82.696 189.221 81.416C187.877 80.104 187.205 78.312 187.205 76.04V65.048H182.933V59.384H184.133C185.317 59.384 186.213 59.048 186.821 58.376C187.461 57.672 187.781 56.76 187.781 55.64V52.328H193.541ZM208.857 76.136C210.041 77.32 211.465 77.912 213.129 77.912C214.793 77.912 216.201 77.32 217.353 76.136C218.537 74.952 219.129 73.304 219.129 71.192C219.129 69.08 218.537 67.432 217.353 66.248C216.201 65.064 214.793 64.472 213.129 64.472C211.465 64.472 210.041 65.064 208.857 66.248C207.705 67.432 207.129 69.08 207.129 71.192C207.129 73.304 207.705 74.952 208.857 76.136ZM204.249 62.216C206.617 59.848 209.577 58.664 213.129 58.664C216.681 58.664 219.625 59.848 221.961 62.216C224.329 64.584 225.513 67.576 225.513 71.192C225.513 74.808 224.329 77.8 221.961 80.168C219.625 82.536 216.681 83.72 213.129 83.72C209.577 83.72 206.617 82.536 204.249 80.168C201.913 77.8 200.745 74.808 200.745 71.192C200.745 67.576 201.913 64.584 204.249 62.216ZM237.371 52.328V59.384H242.123V65.048H237.371V74.936C237.371 75.928 237.595 76.632 238.043 77.048C238.491 77.464 239.195 77.672 240.155 77.672C241.019 77.672 241.675 77.608 242.123 77.48V82.76C241.195 83.144 239.995 83.336 238.523 83.336C236.219 83.336 234.395 82.696 233.051 81.416C231.707 80.104 231.035 78.312 231.035 76.04V65.048H226.763V59.384H227.963C229.147 59.384 230.043 59.048 230.651 58.376C231.291 57.672 231.611 56.76 231.611 55.64V52.328H237.371ZM255.261 92.312H248.493L254.061 80.024L244.029 59.384H251.181L257.469 73.208L263.277 59.384H270.093L255.261 92.312ZM279.384 92.12H273V59.384H279.192V62.264C279.768 61.304 280.696 60.504 281.976 59.864C283.256 59.192 284.744 58.856 286.44 58.856C289.8 58.856 292.457 60.008 294.408 62.312C296.36 64.584 297.336 67.528 297.336 71.144C297.336 74.76 296.296 77.736 294.216 80.072C292.168 82.408 289.497 83.576 286.2 83.576C283.064 83.576 280.792 82.616 279.384 80.696V92.12ZM289.369 76.088C290.489 74.872 291.049 73.24 291.049 71.192C291.049 69.144 290.489 67.528 289.369 66.344C288.28 65.16 286.888 64.568 285.192 64.568C283.496 64.568 282.088 65.176 280.968 66.392C279.848 67.576 279.288 69.176 279.288 71.192C279.288 73.208 279.848 74.824 280.968 76.04C282.088 77.256 283.496 77.864 285.192 77.864C286.888 77.864 288.28 77.272 289.369 76.088ZM306.087 68.504H316.647C316.583 67.192 316.103 66.088 315.207 65.192C314.343 64.296 313.063 63.848 311.367 63.848C309.831 63.848 308.583 64.328 307.623 65.288C306.663 66.248 306.151 67.32 306.087 68.504ZM317.271 74.648L322.599 76.232C321.959 78.408 320.695 80.2 318.807 81.608C316.951 83.016 314.631 83.72 311.847 83.72C308.455 83.72 305.575 82.584 303.207 80.312C300.839 78.008 299.655 74.936 299.655 71.096C299.655 67.448 300.807 64.472 303.111 62.168C305.415 59.832 308.135 58.664 311.271 58.664C314.919 58.664 317.767 59.752 319.815 61.928C321.895 64.104 322.935 67.096 322.935 70.904C322.935 71.16 322.919 71.448 322.887 71.768C322.887 72.088 322.887 72.344 322.887 72.536L322.839 72.872H305.943C306.007 74.408 306.615 75.688 307.767 76.712C308.919 77.736 310.295 78.248 311.895 78.248C314.615 78.248 316.407 77.048 317.271 74.648Z" fill="#2E2E2E"/>
</svg>
