<svg width="1400" height="180" viewBox="0 0 1400 180" fill="none" xmlns="http://www.w3.org/2000/svg">
<rect width="1400" height="180" fill="#FCDC4D"/>
<path d="M152.856 104H146.328V80.144L136.536 104H131.016L121.224 80.336V104H114.888V69.968H123.624L133.848 94.544L143.832 69.968H152.856V104ZM165.393 97.136C166.577 98.32 168.001 98.912 169.665 98.912C171.329 98.912 172.737 98.32 173.889 97.136C175.073 95.952 175.665 94.304 175.665 92.192C175.665 90.08 175.073 88.432 173.889 87.248C172.737 86.064 171.329 85.472 169.665 85.472C168.001 85.472 166.577 86.064 165.393 87.248C164.241 88.432 163.665 90.08 163.665 92.192C163.665 94.304 164.241 95.952 165.393 97.136ZM160.785 83.216C163.153 80.848 166.113 79.664 169.665 79.664C173.217 79.664 176.161 80.848 178.497 83.216C180.865 85.584 182.049 88.576 182.049 92.192C182.049 95.808 180.865 98.8 178.497 101.168C176.161 103.536 173.217 104.72 169.665 104.72C166.113 104.72 163.153 103.536 160.785 101.168C158.449 98.8 157.281 95.808 157.281 92.192C157.281 88.576 158.449 85.584 160.785 83.216ZM196.737 85.568C195.041 85.568 193.617 86.16 192.465 87.344C191.313 88.528 190.737 90.144 190.737 92.192C190.737 94.24 191.313 95.872 192.465 97.088C193.649 98.272 195.089 98.864 196.785 98.864C198.289 98.864 199.489 98.48 200.385 97.712C201.281 96.912 201.889 95.968 202.209 94.88L207.825 96.752C207.249 98.928 206.001 100.8 204.081 102.368C202.161 103.936 199.729 104.72 196.785 104.72C193.265 104.72 190.305 103.536 187.905 101.168C185.537 98.768 184.353 95.776 184.353 92.192C184.353 88.576 185.521 85.584 187.857 83.216C190.225 80.848 193.137 79.664 196.593 79.664C199.601 79.664 202.065 80.448 203.985 82.016C205.905 83.552 207.137 85.424 207.681 87.632L201.969 89.552C201.201 86.896 199.457 85.568 196.737 85.568ZM234.455 80.384L224.999 90.32L234.647 104H226.823L220.583 94.976L217.943 97.76V104H211.559V69.248H217.943V89.168L226.103 80.384H234.455ZM252.633 104C252.505 103.36 252.441 102.512 252.441 101.456C251.833 102.512 250.921 103.312 249.705 103.856C248.521 104.368 247.257 104.624 245.913 104.624C243.129 104.624 240.937 103.744 239.337 101.984C237.737 100.192 236.937 97.968 236.937 95.312V80.384H243.321V94.016C243.321 95.424 243.689 96.576 244.425 97.472C245.161 98.336 246.233 98.768 247.641 98.768C249.017 98.768 250.105 98.352 250.905 97.52C251.705 96.656 252.105 95.52 252.105 94.112V80.384H258.489V99.728C258.489 101.232 258.569 102.656 258.729 104H252.633ZM270.726 113.12H264.342V80.384H270.534V83.264C271.11 82.304 272.038 81.504 273.318 80.864C274.598 80.192 276.086 79.856 277.782 79.856C281.142 79.856 283.798 81.008 285.75 83.312C287.702 85.584 288.678 88.528 288.678 92.144C288.678 95.76 287.638 98.736 285.558 101.072C283.51 103.408 280.838 104.576 277.542 104.576C274.406 104.576 272.134 103.616 270.726 101.696V113.12ZM280.71 97.088C281.83 95.872 282.39 94.24 282.39 92.192C282.39 90.144 281.83 88.528 280.71 87.344C279.622 86.16 278.23 85.568 276.534 85.568C274.838 85.568 273.43 86.176 272.31 87.392C271.19 88.576 270.63 90.176 270.63 92.192C270.63 94.208 271.19 95.824 272.31 97.04C273.43 98.256 274.838 98.864 276.534 98.864C278.23 98.864 279.622 98.272 280.71 97.088ZM290.757 97.424L296.229 96.224C296.293 97.248 296.693 98.112 297.429 98.816C298.197 99.488 299.237 99.824 300.549 99.824C301.541 99.824 302.309 99.6 302.853 99.152C303.397 98.704 303.669 98.144 303.669 97.472C303.669 96.288 302.821 95.52 301.125 95.168L298.005 94.448C295.797 93.968 294.133 93.104 293.013 91.856C291.925 90.608 291.381 89.12 291.381 87.392C291.381 85.248 292.213 83.424 293.877 81.92C295.573 80.416 297.685 79.664 300.213 79.664C301.813 79.664 303.221 79.904 304.437 80.384C305.653 80.832 306.597 81.424 307.269 82.16C307.941 82.864 308.453 83.584 308.805 84.32C309.157 85.056 309.381 85.776 309.477 86.48L304.149 87.68C304.021 86.848 303.637 86.112 302.997 85.472C302.389 84.832 301.477 84.512 300.261 84.512C299.429 84.512 298.709 84.736 298.101 85.184C297.525 85.632 297.237 86.192 297.237 86.864C297.237 88.016 297.957 88.72 299.397 88.976L302.757 89.696C305.029 90.176 306.757 91.056 307.941 92.336C309.157 93.616 309.765 95.152 309.765 96.944C309.765 99.056 308.965 100.88 307.365 102.416C305.765 103.952 303.509 104.72 300.597 104.72C298.933 104.72 297.445 104.48 296.133 104C294.821 103.488 293.797 102.848 293.061 102.08C292.357 101.28 291.813 100.496 291.429 99.728C291.077 98.928 290.853 98.16 290.757 97.424Z" fill="#2E2E2E"/>
</svg>
