<svg width="1400" height="180" viewBox="0 0 1400 180" fill="none" xmlns="http://www.w3.org/2000/svg">
<rect width="1400" height="180" fill="#FCDC4D"/>
<path d="M121.56 104H114.888V69.968H136.392V76.256H121.512V84.656H134.76V90.752H121.56V104ZM143.51 89.504H154.07C154.006 88.192 153.526 87.088 152.63 86.192C151.766 85.296 150.486 84.848 148.79 84.848C147.254 84.848 146.006 85.328 145.046 86.288C144.086 87.248 143.574 88.32 143.51 89.504ZM154.694 95.648L160.022 97.232C159.382 99.408 158.118 101.2 156.23 102.608C154.374 104.016 152.054 104.72 149.27 104.72C145.878 104.72 142.998 103.584 140.63 101.312C138.262 99.008 137.078 95.936 137.078 92.096C137.078 88.448 138.23 85.472 140.534 83.168C142.838 80.832 145.558 79.664 148.694 79.664C152.342 79.664 155.19 80.752 157.238 82.928C159.318 85.104 160.358 88.096 160.358 91.904C160.358 92.16 160.342 92.448 160.31 92.768C160.31 93.088 160.31 93.344 160.31 93.536L160.262 93.872H143.366C143.43 95.408 144.038 96.688 145.19 97.712C146.342 98.736 147.718 99.248 149.318 99.248C152.038 99.248 153.83 98.048 154.694 95.648ZM162.986 97.568C162.986 95.552 163.642 93.936 164.954 92.72C166.266 91.504 167.962 90.736 170.042 90.416L175.85 89.552C177.034 89.392 177.626 88.832 177.626 87.872C177.626 86.976 177.274 86.24 176.57 85.664C175.898 85.088 174.922 84.8 173.642 84.8C172.298 84.8 171.226 85.168 170.426 85.904C169.658 86.64 169.226 87.552 169.13 88.64L163.466 87.44C163.69 85.392 164.698 83.584 166.49 82.016C168.282 80.448 170.65 79.664 173.594 79.664C177.114 79.664 179.706 80.512 181.37 82.208C183.034 83.872 183.866 86.016 183.866 88.64V100.256C183.866 101.664 183.962 102.912 184.154 104H178.298C178.138 103.296 178.058 102.352 178.058 101.168C176.554 103.504 174.234 104.672 171.098 104.672C168.666 104.672 166.698 103.968 165.194 102.56C163.722 101.152 162.986 99.488 162.986 97.568ZM172.442 99.92C173.946 99.92 175.178 99.504 176.138 98.672C177.13 97.808 177.626 96.4 177.626 94.448V93.392L172.298 94.208C170.346 94.496 169.37 95.488 169.37 97.184C169.37 97.952 169.642 98.608 170.186 99.152C170.73 99.664 171.482 99.92 172.442 99.92ZM197.072 73.328V80.384H201.824V86.048H197.072V95.936C197.072 96.928 197.296 97.632 197.744 98.048C198.192 98.464 198.896 98.672 199.856 98.672C200.72 98.672 201.376 98.608 201.824 98.48V103.76C200.896 104.144 199.696 104.336 198.224 104.336C195.92 104.336 194.096 103.696 192.752 102.416C191.408 101.104 190.736 99.312 190.736 97.04V86.048H186.464V80.384H187.664C188.848 80.384 189.744 80.048 190.352 79.376C190.992 78.672 191.312 77.76 191.312 76.64V73.328H197.072ZM221.883 104C221.755 103.36 221.691 102.512 221.691 101.456C221.083 102.512 220.171 103.312 218.955 103.856C217.771 104.368 216.507 104.624 215.163 104.624C212.379 104.624 210.187 103.744 208.587 101.984C206.987 100.192 206.187 97.968 206.187 95.312V80.384H212.571V94.016C212.571 95.424 212.939 96.576 213.675 97.472C214.411 98.336 215.483 98.768 216.891 98.768C218.267 98.768 219.355 98.352 220.155 97.52C220.955 96.656 221.355 95.52 221.355 94.112V80.384H227.739V99.728C227.739 101.232 227.819 102.656 227.979 104H221.883ZM247.992 80.288V86.72C247.352 86.592 246.712 86.528 246.072 86.528C244.248 86.528 242.776 87.056 241.656 88.112C240.536 89.136 239.976 90.832 239.976 93.2V104H233.592V80.384H239.784V83.888C240.936 81.424 243.176 80.192 246.504 80.192C246.856 80.192 247.352 80.224 247.992 80.288ZM255.945 89.504H266.505C266.441 88.192 265.961 87.088 265.065 86.192C264.201 85.296 262.921 84.848 261.225 84.848C259.689 84.848 258.441 85.328 257.481 86.288C256.521 87.248 256.009 88.32 255.945 89.504ZM267.129 95.648L272.457 97.232C271.817 99.408 270.553 101.2 268.665 102.608C266.809 104.016 264.489 104.72 261.705 104.72C258.313 104.72 255.433 103.584 253.065 101.312C250.697 99.008 249.513 95.936 249.513 92.096C249.513 88.448 250.665 85.472 252.969 83.168C255.273 80.832 257.993 79.664 261.129 79.664C264.777 79.664 267.625 80.752 269.673 82.928C271.753 85.104 272.793 88.096 272.793 91.904C272.793 92.16 272.777 92.448 272.745 92.768C272.745 93.088 272.745 93.344 272.745 93.536L272.697 93.872H255.801C255.865 95.408 256.473 96.688 257.625 97.712C258.777 98.736 260.153 99.248 261.753 99.248C264.473 99.248 266.265 98.048 267.129 95.648ZM274.844 97.424L280.316 96.224C280.38 97.248 280.78 98.112 281.516 98.816C282.284 99.488 283.324 99.824 284.636 99.824C285.628 99.824 286.396 99.6 286.94 99.152C287.484 98.704 287.756 98.144 287.756 97.472C287.756 96.288 286.908 95.52 285.212 95.168L282.092 94.448C279.884 93.968 278.22 93.104 277.1 91.856C276.012 90.608 275.468 89.12 275.468 87.392C275.468 85.248 276.3 83.424 277.964 81.92C279.66 80.416 281.772 79.664 284.3 79.664C285.9 79.664 287.308 79.904 288.524 80.384C289.74 80.832 290.684 81.424 291.356 82.16C292.028 82.864 292.54 83.584 292.892 84.32C293.244 85.056 293.468 85.776 293.564 86.48L288.236 87.68C288.108 86.848 287.724 86.112 287.084 85.472C286.476 84.832 285.564 84.512 284.348 84.512C283.516 84.512 282.796 84.736 282.188 85.184C281.612 85.632 281.324 86.192 281.324 86.864C281.324 88.016 282.044 88.72 283.484 88.976L286.844 89.696C289.116 90.176 290.844 91.056 292.028 92.336C293.244 93.616 293.852 95.152 293.852 96.944C293.852 99.056 293.052 100.88 291.452 102.416C289.852 103.952 287.596 104.72 284.684 104.72C283.02 104.72 281.532 104.48 280.22 104C278.908 103.488 277.884 102.848 277.148 102.08C276.444 101.28 275.9 100.496 275.516 99.728C275.164 98.928 274.94 98.16 274.844 97.424Z" fill="#2E2E2E"/>
</svg>
