<svg width="1400" height="180" viewBox="0 0 1400 180" fill="none" xmlns="http://www.w3.org/2000/svg">
<rect width="1400" height="180" fill="#FCDC4D"/>
<path d="M143.016 104H136.344V89.888H121.512V104H114.888V69.968H121.512V83.648H136.344V69.968H143.016V104ZM155.738 104H149.354V80.384H155.738V104ZM148.586 72.656C148.586 71.568 148.97 70.64 149.738 69.872C150.506 69.072 151.434 68.672 152.522 68.672C153.61 68.672 154.538 69.056 155.306 69.824C156.074 70.592 156.458 71.536 156.458 72.656C156.458 73.712 156.074 74.624 155.306 75.392C154.538 76.16 153.61 76.544 152.522 76.544C151.434 76.544 150.506 76.16 149.738 75.392C148.97 74.624 148.586 73.712 148.586 72.656ZM174.285 92.576H160.365V86.912H174.285V92.576ZM186.039 104H179.367V69.968H200.871V76.256H185.991V84.656H199.239V90.752H186.039V104ZM211.171 104H204.787V80.384H211.171V104ZM204.019 72.656C204.019 71.568 204.403 70.64 205.171 69.872C205.939 69.072 206.867 68.672 207.955 68.672C209.043 68.672 209.971 69.056 210.739 69.824C211.507 70.592 211.891 71.536 211.891 72.656C211.891 73.712 211.507 74.624 210.739 75.392C209.971 76.16 209.043 76.544 207.955 76.544C206.867 76.544 205.939 76.16 205.171 75.392C204.403 74.624 204.019 73.712 204.019 72.656ZM260.345 93.488L266.489 69.968H273.257L263.849 104H257.033L249.257 79.76L241.481 104H234.569L225.113 69.968H232.121L238.361 93.392L245.897 69.968H252.761L260.345 93.488ZM282.681 104H276.297V80.384H282.681V104ZM275.529 72.656C275.529 71.568 275.913 70.64 276.681 69.872C277.449 69.072 278.377 68.672 279.465 68.672C280.553 68.672 281.481 69.056 282.249 69.824C283.017 70.592 283.401 71.536 283.401 72.656C283.401 73.712 283.017 74.624 282.249 75.392C281.481 76.16 280.553 76.544 279.465 76.544C278.377 76.544 277.449 76.16 276.681 75.392C275.913 74.624 275.529 73.712 275.529 72.656ZM302.956 80.288V86.72C302.316 86.592 301.676 86.528 301.036 86.528C299.212 86.528 297.74 87.056 296.62 88.112C295.5 89.136 294.94 90.832 294.94 93.2V104H288.556V80.384H294.748V83.888C295.9 81.424 298.14 80.192 301.468 80.192C301.82 80.192 302.316 80.224 302.956 80.288ZM310.908 89.504H321.468C321.404 88.192 320.924 87.088 320.028 86.192C319.164 85.296 317.884 84.848 316.188 84.848C314.652 84.848 313.404 85.328 312.444 86.288C311.484 87.248 310.972 88.32 310.908 89.504ZM322.092 95.648L327.42 97.232C326.78 99.408 325.516 101.2 323.628 102.608C321.772 104.016 319.452 104.72 316.668 104.72C313.276 104.72 310.396 103.584 308.028 101.312C305.66 99.008 304.476 95.936 304.476 92.096C304.476 88.448 305.628 85.472 307.932 83.168C310.236 80.832 312.956 79.664 316.092 79.664C319.74 79.664 322.588 80.752 324.636 82.928C326.716 85.104 327.756 88.096 327.756 91.904C327.756 92.16 327.74 92.448 327.708 92.768C327.708 93.088 327.708 93.344 327.708 93.536L327.66 93.872H310.764C310.828 95.408 311.436 96.688 312.588 97.712C313.74 98.736 315.116 99.248 316.716 99.248C319.436 99.248 321.228 98.048 322.092 95.648ZM342.768 74.528C341.872 74.528 341.088 74.784 340.416 75.296C339.776 75.776 339.456 76.608 339.456 77.792V80.384H344.784V85.856H339.456V104H333.024V85.856H329.088V80.384H333.024V77.696C333.024 75.04 333.792 72.912 335.328 71.312C336.896 69.712 338.992 68.912 341.616 68.912C343.024 68.912 344.08 69.072 344.784 69.392V74.768C344.24 74.608 343.568 74.528 342.768 74.528ZM362.373 80.288V86.72C361.733 86.592 361.093 86.528 360.453 86.528C358.629 86.528 357.157 87.056 356.037 88.112C354.917 89.136 354.357 90.832 354.357 93.2V104H347.973V80.384H354.165V83.888C355.317 81.424 357.557 80.192 360.885 80.192C361.237 80.192 361.733 80.224 362.373 80.288ZM364.604 97.568C364.604 95.552 365.26 93.936 366.572 92.72C367.884 91.504 369.58 90.736 371.66 90.416L377.468 89.552C378.652 89.392 379.244 88.832 379.244 87.872C379.244 86.976 378.892 86.24 378.188 85.664C377.516 85.088 376.54 84.8 375.26 84.8C373.916 84.8 372.844 85.168 372.044 85.904C371.276 86.64 370.844 87.552 370.748 88.64L365.084 87.44C365.308 85.392 366.316 83.584 368.108 82.016C369.9 80.448 372.268 79.664 375.212 79.664C378.732 79.664 381.324 80.512 382.988 82.208C384.652 83.872 385.484 86.016 385.484 88.64V100.256C385.484 101.664 385.58 102.912 385.772 104H379.916C379.756 103.296 379.676 102.352 379.676 101.168C378.172 103.504 375.852 104.672 372.716 104.672C370.284 104.672 368.316 103.968 366.812 102.56C365.34 101.152 364.604 99.488 364.604 97.568ZM374.06 99.92C375.564 99.92 376.796 99.504 377.756 98.672C378.748 97.808 379.244 96.4 379.244 94.448V93.392L373.916 94.208C371.964 94.496 370.988 95.488 370.988 97.184C370.988 97.952 371.26 98.608 371.804 99.152C372.348 99.664 373.1 99.92 374.06 99.92ZM397.343 104H390.959V80.384H397.055V83.264C397.663 82.176 398.623 81.312 399.935 80.672C401.247 80.032 402.591 79.712 403.967 79.712C407.391 79.712 409.727 81.024 410.975 83.648C412.671 81.024 415.167 79.712 418.463 79.712C420.863 79.712 422.879 80.464 424.511 81.968C426.175 83.472 427.007 85.712 427.007 88.688V104H420.815V89.984C420.815 88.64 420.463 87.568 419.759 86.768C419.087 85.936 418.047 85.52 416.639 85.52C415.327 85.52 414.271 85.968 413.471 86.864C412.671 87.76 412.271 88.864 412.271 90.176V104H405.935V89.984C405.935 88.64 405.583 87.568 404.879 86.768C404.175 85.936 403.135 85.52 401.759 85.52C400.415 85.52 399.343 85.968 398.543 86.864C397.743 87.728 397.343 88.832 397.343 90.176V104ZM437.171 89.504H447.731C447.667 88.192 447.187 87.088 446.291 86.192C445.427 85.296 444.147 84.848 442.451 84.848C440.915 84.848 439.667 85.328 438.707 86.288C437.747 87.248 437.235 88.32 437.171 89.504ZM448.355 95.648L453.683 97.232C453.043 99.408 451.779 101.2 449.891 102.608C448.035 104.016 445.715 104.72 442.931 104.72C439.539 104.72 436.659 103.584 434.291 101.312C431.923 99.008 430.739 95.936 430.739 92.096C430.739 88.448 431.891 85.472 434.195 83.168C436.499 80.832 439.219 79.664 442.355 79.664C446.003 79.664 448.851 80.752 450.899 82.928C452.979 85.104 454.019 88.096 454.019 91.904C454.019 92.16 454.003 92.448 453.971 92.768C453.971 93.088 453.971 93.344 453.971 93.536L453.923 93.872H437.027C437.091 95.408 437.699 96.688 438.851 97.712C440.003 98.736 441.379 99.248 442.979 99.248C445.699 99.248 447.491 98.048 448.355 95.648ZM456.07 97.424L461.542 96.224C461.606 97.248 462.006 98.112 462.742 98.816C463.51 99.488 464.55 99.824 465.862 99.824C466.854 99.824 467.622 99.6 468.166 99.152C468.71 98.704 468.982 98.144 468.982 97.472C468.982 96.288 468.134 95.52 466.438 95.168L463.318 94.448C461.11 93.968 459.446 93.104 458.326 91.856C457.238 90.608 456.694 89.12 456.694 87.392C456.694 85.248 457.526 83.424 459.19 81.92C460.886 80.416 462.998 79.664 465.526 79.664C467.126 79.664 468.534 79.904 469.75 80.384C470.966 80.832 471.91 81.424 472.582 82.16C473.254 82.864 473.766 83.584 474.118 84.32C474.47 85.056 474.694 85.776 474.79 86.48L469.462 87.68C469.334 86.848 468.95 86.112 468.31 85.472C467.702 84.832 466.79 84.512 465.574 84.512C464.742 84.512 464.022 84.736 463.414 85.184C462.838 85.632 462.55 86.192 462.55 86.864C462.55 88.016 463.27 88.72 464.71 88.976L468.07 89.696C470.342 90.176 472.07 91.056 473.254 92.336C474.47 93.616 475.078 95.152 475.078 96.944C475.078 99.056 474.278 100.88 472.678 102.416C471.078 103.952 468.822 104.72 465.91 104.72C464.246 104.72 462.758 104.48 461.446 104C460.134 103.488 459.11 102.848 458.374 102.08C457.67 101.28 457.126 100.496 456.742 99.728C456.39 98.928 456.166 98.16 456.07 97.424Z" fill="#2E2E2E"/>
</svg>
