<svg width="204" height="87" viewBox="0 0 204 87" fill="none" xmlns="http://www.w3.org/2000/svg">
<path d="M35.2374 80.8369L37.5883 80.4017C38.1986 80.2887 38.7599 80.316 39.272 80.4836C39.7831 80.6454 40.2075 80.9283 40.5454 81.3322C40.8823 81.7304 41.1013 82.2174 41.2026 82.7933C41.3038 83.3692 41.265 83.9069 41.0859 84.4065C40.9059 84.9004 40.6045 85.3176 40.1818 85.6582C39.758 85.9932 39.241 86.2171 38.6306 86.3302L36.2798 86.7654L35.2374 80.8369ZM38.5023 85.7942C39.0082 85.7006 39.433 85.517 39.7767 85.2435C40.1194 84.9643 40.3634 84.6247 40.5089 84.2247C40.6533 83.819 40.6838 83.3791 40.6005 82.9048C40.5171 82.4305 40.3391 82.032 40.0666 81.7094C39.7931 81.3811 39.4488 81.1504 39.0337 81.0174C38.6175 80.8787 38.1565 80.8562 37.6506 80.9499L35.9431 81.266L36.7949 86.1103L38.5023 85.7942Z" fill="#232323"/>
<path d="M48.6081 83.9233L48.7034 84.4654L44.6204 85.2213L43.5781 79.2928L47.5373 78.5599L47.6326 79.1019L44.2837 79.7219L44.6545 81.8307L47.6404 81.2779L47.7343 81.8115L44.7483 82.3642L45.1355 84.5662L48.6081 83.9233Z" fill="#232323"/>
<path d="M53.265 83.6733C52.8361 83.7527 52.4112 83.7585 51.9905 83.6907C51.5752 83.6218 51.24 83.4915 50.9849 83.2997L51.1392 82.7726C51.3859 82.9485 51.6944 83.0721 52.0646 83.1435C52.4339 83.2092 52.8027 83.208 53.1712 83.1398C53.6881 83.0441 54.0589 82.8763 54.2836 82.6365C54.5073 82.3911 54.5918 82.1131 54.5372 81.8025C54.4956 81.5654 54.3908 81.3895 54.223 81.2748C54.0607 81.1591 53.8714 81.0834 53.655 81.0476C53.4377 81.0063 53.1396 80.974 52.7608 80.9508C52.3065 80.9184 51.9412 80.8752 51.6649 80.8214C51.3876 80.762 51.1366 80.6423 50.9119 80.4624C50.6927 80.2814 50.5508 80.0074 50.4863 79.6404C50.4337 79.3412 50.463 79.0559 50.5743 78.7847C50.6846 78.5077 50.8863 78.2663 51.1795 78.0605C51.4726 77.8546 51.8556 77.7079 52.3285 77.6204C52.6585 77.5593 52.9886 77.5477 53.3189 77.5857C53.6537 77.617 53.951 77.6931 54.2108 77.8141L54.0924 78.352C53.8217 78.233 53.5419 78.1595 53.253 78.1313C52.9632 78.0975 52.6863 78.1051 52.4223 78.1539C51.9164 78.2476 51.5521 78.42 51.3294 78.6711C51.1112 78.9155 51.0299 79.1959 51.0855 79.512C51.1272 79.7492 51.2297 79.9284 51.3929 80.0498C51.5607 80.1644 51.7561 80.242 51.9789 80.2823C52.2063 80.316 52.5066 80.345 52.8799 80.3691C53.3222 80.398 53.682 80.4422 53.9593 80.5016C54.2411 80.5544 54.4916 80.6712 54.7108 80.8522C54.929 81.0275 55.0699 81.2958 55.1334 81.6572C55.186 81.9564 55.1544 82.245 55.0387 82.523C54.9274 82.7942 54.7224 83.0333 54.4238 83.2402C54.1242 83.4414 53.7379 83.5858 53.265 83.6733Z" fill="#232323"/>
<path d="M57.2225 76.7668L57.8329 76.6538L58.8752 82.5822L58.2648 82.6952L57.2225 76.7668Z" fill="#232323"/>
<path d="M65.8251 78.2349L66.4108 78.1265L66.8083 80.3878C66.5816 80.6804 66.2954 80.9258 65.9498 81.1239C65.6042 81.3219 65.2279 81.4586 64.821 81.534C64.2436 81.6409 63.7011 81.6072 63.1935 81.433C62.686 81.2588 62.26 80.9674 61.9156 80.559C61.5703 80.1449 61.3475 79.6527 61.2472 79.0824C61.147 78.5122 61.1886 77.9739 61.3722 77.4677C61.5547 76.9559 61.8541 76.5273 62.2704 76.1821C62.6866 75.8369 63.1862 75.6103 63.7691 75.5024C64.209 75.421 64.6261 75.4195 65.0203 75.4981C65.4135 75.5711 65.7615 75.7253 66.0641 75.9607L65.7546 76.429C65.2168 76.0506 64.5959 75.9265 63.8921 76.0568C63.4247 76.1433 63.0201 76.329 62.6784 76.6138C62.3412 76.8919 62.0986 77.24 61.9507 77.658C61.8017 78.0703 61.768 78.508 61.8494 78.9709C61.9308 79.4339 62.1115 79.8319 62.3914 80.1648C62.6714 80.4978 63.0172 80.7369 63.4289 80.8822C63.8405 81.0276 64.2801 81.0569 64.7475 80.9704C65.3414 80.8605 65.8177 80.6149 66.1765 80.2336L65.8251 78.2349Z" fill="#232323"/>
<path d="M73.9684 73.6666L75.0108 79.5951L74.5076 79.6882L69.95 75.5649L70.7958 80.3754L70.1854 80.4884L69.1431 74.56L69.6463 74.4668L74.2121 78.5886L73.3663 73.7781L73.9684 73.6666Z" fill="#232323"/>
<path d="M82.409 77.6657L82.5043 78.2078L78.4213 78.9637L77.379 73.0352L81.3382 72.3023L81.4335 72.8443L78.0847 73.4643L78.4554 75.5731L81.4414 75.0203L81.5352 75.5539L78.5492 76.1066L78.9364 78.3086L82.409 77.6657Z" fill="#232323"/>
<path d="M89.4078 76.9297L87.753 75.2685C87.6075 75.3129 87.455 75.3499 87.2956 75.3794L85.7448 75.6665L86.0754 77.5466L85.465 77.6596L84.4227 71.7312L86.5838 71.3311C87.3207 71.1947 87.9298 71.2685 88.4113 71.5525C88.8927 71.8365 89.189 72.2946 89.3002 72.927C89.3816 73.39 89.3351 73.8038 89.1608 74.1684C88.9909 74.5263 88.7067 74.815 88.3081 75.0346L90.0759 76.806L89.4078 76.9297ZM87.1853 74.8489C87.7571 74.743 88.1715 74.5322 88.4283 74.2165C88.685 73.9008 88.7722 73.5086 88.6898 73.04C88.6055 72.5601 88.3897 72.2211 88.0426 72.023C87.6945 71.8193 87.2345 71.7704 86.6626 71.8762L85.1284 72.1603L85.651 75.1329L87.1853 74.8489Z" fill="#232323"/>
<path d="M100.785 74.9196L99.8364 74.2208C99.4413 74.8478 98.8451 75.2351 98.0477 75.3827C97.6738 75.4519 97.3274 75.4519 97.0086 75.3826C96.6943 75.3067 96.4349 75.1711 96.2302 74.9758C96.0245 74.7749 95.8959 74.5276 95.8443 74.234C95.7817 73.8783 95.8356 73.5389 96.0059 73.2159C96.1763 72.8929 96.4981 72.5272 96.9714 72.119C96.6448 71.8763 96.4114 71.663 96.2712 71.4791C96.13 71.2895 96.039 71.079 95.9983 70.8475C95.9318 70.4692 96.0102 70.1399 96.2335 69.8595C96.4567 69.5792 96.791 69.3977 97.2365 69.3153C97.6489 69.2389 97.9944 69.2828 98.2731 69.4469C98.5518 69.611 98.7234 69.8766 98.7879 70.2436C98.8395 70.5372 98.79 70.8204 98.6392 71.0931C98.4874 71.3603 98.1999 71.6787 97.7766 72.0486L99.6552 73.4323C99.7746 73.0779 99.8368 72.6729 99.8418 72.2172L100.347 72.2811C100.336 72.8312 100.245 73.3172 100.075 73.7393L101.054 74.4589L100.785 74.9196ZM97.3154 69.7642C97.0294 69.8171 96.8169 69.9322 96.6777 70.1096C96.544 70.2859 96.4986 70.4954 96.5413 70.7382C96.572 70.9133 96.6453 71.0717 96.7611 71.2135C96.8769 71.3553 97.0878 71.5378 97.3939 71.7609C97.7681 71.4351 98.0196 71.17 98.1483 70.9654C98.277 70.7608 98.323 70.5541 98.2863 70.3452C98.2466 70.1194 98.141 69.9553 97.9697 69.8529C97.7974 69.7449 97.5793 69.7153 97.3154 69.7642ZM97.9928 74.8769C98.6307 74.7588 99.1084 74.4401 99.4259 73.9207L97.3624 72.4051C96.9526 72.755 96.6786 73.0535 96.5404 73.3006C96.4076 73.5467 96.3646 73.8025 96.4112 74.0678C96.4678 74.3897 96.64 74.626 96.9277 74.7768C97.2199 74.9209 97.5749 74.9543 97.9928 74.8769Z" fill="#232323"/>
<path d="M111.308 72.8754L109.653 71.2141C109.507 71.2585 109.355 71.2955 109.196 71.325L107.645 71.6121L107.975 73.4923L107.365 73.6053L106.323 67.6769L108.484 67.2768C109.221 67.1404 109.83 67.2142 110.311 67.4981C110.793 67.7821 111.089 68.2403 111.2 68.8726C111.282 69.3356 111.235 69.7494 111.061 70.114C110.891 70.4719 110.607 70.7606 110.208 70.9802L111.976 72.7517L111.308 72.8754ZM109.085 70.7945C109.657 70.6887 110.071 70.4779 110.328 70.1622C110.585 69.8464 110.672 69.4543 110.59 68.9856C110.505 68.5057 110.29 68.1667 109.943 67.9686C109.594 67.7649 109.134 67.716 108.563 67.8219L107.028 68.1059L107.551 71.0786L109.085 70.7945Z" fill="#232323"/>
<path d="M118.839 70.9213L118.935 71.4634L114.852 72.2192L113.809 66.2908L117.769 65.5579L117.864 66.0999L114.515 66.7199L114.886 68.8287L117.872 68.2759L117.966 68.8095L114.98 69.3622L115.367 71.5642L118.839 70.9213Z" fill="#232323"/>
<path d="M123.496 70.6713C123.067 70.7507 122.643 70.7565 122.222 70.6887C121.807 70.6198 121.471 70.4895 121.216 70.2977L121.371 69.7706C121.617 69.9465 121.926 70.0701 122.296 70.1415C122.665 70.2072 123.034 70.206 123.403 70.1378C123.919 70.0421 124.29 69.8743 124.515 69.6345C124.739 69.389 124.823 69.1111 124.769 68.8005C124.727 68.5634 124.622 68.3875 124.454 68.2728C124.292 68.1571 124.103 68.0814 123.886 68.0456C123.669 68.0043 123.371 67.972 122.992 67.9488C122.538 67.9163 122.173 67.8732 121.896 67.8194C121.619 67.76 121.368 67.6403 121.143 67.4604C120.924 67.2794 120.782 67.0054 120.718 66.6384C120.665 66.3392 120.694 66.0539 120.806 65.7826C120.916 65.5057 121.118 65.2643 121.411 65.0585C121.704 64.8526 122.087 64.7059 122.56 64.6184C122.89 64.5573 123.22 64.5457 123.55 64.5837C123.885 64.615 124.182 64.6911 124.442 64.8121L124.324 65.35C124.053 65.231 123.773 65.1575 123.484 65.1293C123.195 65.0955 122.918 65.1031 122.654 65.1519C122.148 65.2456 121.783 65.418 121.561 65.6691C121.343 65.9135 121.261 66.1938 121.317 66.51C121.359 66.7472 121.461 66.9264 121.624 67.0478C121.792 67.1624 121.987 67.24 122.21 67.2803C122.438 67.314 122.738 67.3429 123.111 67.3671C123.554 67.396 123.913 67.4402 124.191 67.4996C124.473 67.5524 124.723 67.6692 124.942 67.8502C125.16 68.0255 125.301 68.2938 125.365 68.6552C125.417 68.9544 125.386 69.243 125.27 69.521C125.159 69.7922 124.954 70.0313 124.655 70.2382C124.356 70.4394 123.969 70.5838 123.496 70.6713Z" fill="#232323"/>
<path d="M132.484 68.3953L132.579 68.9374L128.496 69.6932L127.454 63.7648L131.413 63.0319L131.508 63.5739L128.16 64.1939L128.53 66.3027L131.516 65.7499L131.61 66.2834L128.624 66.8362L129.011 69.0382L132.484 68.3953Z" fill="#232323"/>
<path d="M138.883 66.1351L135.666 66.7307L135.251 68.4427L134.616 68.5603L136.213 62.1432L136.815 62.0317L140.497 67.4715L139.854 67.5906L138.883 66.1351ZM138.57 65.6682L136.625 62.7403L135.799 66.1813L138.57 65.6682Z" fill="#232323"/>
<path d="M146.921 66.2822L145.266 64.621C145.121 64.6654 144.968 64.7024 144.809 64.7319L143.258 65.019L143.589 66.8991L142.978 67.0121L141.936 61.0837L144.097 60.6837C144.834 60.5472 145.443 60.621 145.925 60.905C146.406 61.189 146.702 61.6472 146.814 62.2795C146.895 62.7425 146.848 63.1563 146.674 63.5209C146.504 63.8788 146.22 64.1675 145.821 64.3871L147.589 66.1585L146.921 66.2822ZM144.699 64.2014C145.27 64.0955 145.685 63.8847 145.942 63.569C146.198 63.2533 146.286 62.8611 146.203 62.3925C146.119 61.9126 145.903 61.5736 145.556 61.3755C145.208 61.1718 144.748 61.1229 144.176 61.2287L142.642 61.5128L143.164 64.4854L144.699 64.2014Z" fill="#232323"/>
<path d="M152.982 65.2127C152.41 65.3186 151.87 65.2844 151.362 65.1102C150.86 64.935 150.437 64.6431 150.093 64.2347C149.753 63.8195 149.533 63.3268 149.433 62.7566C149.332 62.1863 149.371 61.6486 149.549 61.1434C149.732 60.6316 150.031 60.203 150.447 59.8578C150.864 59.5126 151.358 59.287 151.93 59.1811C152.359 59.1017 152.767 59.1018 153.156 59.1814C153.545 59.2611 153.891 59.4186 154.193 59.6541L153.875 60.1239C153.342 59.7387 152.732 59.6098 152.044 59.7371C151.588 59.8215 151.192 60.0057 150.855 60.2895C150.519 60.5732 150.277 60.9213 150.128 61.3337C149.984 61.745 149.953 62.1821 150.035 62.6451C150.116 63.1081 150.294 63.5066 150.568 63.8405C150.848 64.1735 151.194 64.4126 151.606 64.5579C152.018 64.7032 152.452 64.7337 152.908 64.6492C153.601 64.5209 154.128 64.1784 154.49 63.6217L154.948 63.9479C154.745 64.2771 154.472 64.552 154.131 64.7726C153.793 64.9866 153.41 65.1333 152.982 65.2127Z" fill="#232323"/>
<path d="M161.703 57.4243L162.745 63.3527L162.143 63.4642L161.662 60.7287L158.049 61.3975L158.53 64.133L157.92 64.2461L156.877 58.3176L157.488 58.2046L157.952 60.847L161.565 60.1782L161.101 57.5358L161.703 57.4243Z" fill="#232323"/>
<path d="M170.143 61.4234L170.238 61.9654L166.156 62.7213L165.113 56.7929L169.072 56.0599L169.168 56.602L165.819 57.2219L166.19 59.3308L169.176 58.778L169.269 59.3115L166.283 59.8643L166.671 62.0663L170.143 61.4234Z" fill="#232323"/>
<path d="M177.142 60.6874L175.487 59.0262C175.342 59.0706 175.189 59.1076 175.03 59.1371L173.479 59.4242L173.81 61.3043L173.199 61.4173L172.157 55.4889L174.318 55.0888C175.055 54.9524 175.664 55.0262 176.145 55.3102C176.627 55.5942 176.923 56.0523 177.034 56.6847C177.116 57.1477 177.069 57.5615 176.895 57.926C176.725 58.284 176.441 58.5727 176.042 58.7922L177.81 60.5637L177.142 60.6874ZM174.919 58.6066C175.491 58.5007 175.906 58.2899 176.162 57.9742C176.419 57.6585 176.506 57.2663 176.424 56.7977C176.34 56.3178 176.124 55.9788 175.777 55.7807C175.429 55.577 174.969 55.528 174.397 55.6339L172.863 55.9179L173.385 58.8906L174.919 58.6066Z" fill="#232323"/>
<path d="M23.5176 72.7927C23.1505 70.7874 22.6516 68.2783 22.0208 65.2655L10.993 67.0908L8.99824 75.196L0.321165 76.6323L11.3524 35.3334L24.0742 33.2276L32.4713 71.3106L23.5176 72.7927ZM20.3408 57.0618C19.5953 53.3792 18.8268 49.7005 18.0353 46.0256L17.3266 42.6088C16.407 46.0595 15.0495 51.2682 13.2539 58.2348L20.3408 57.0618Z" fill="#FFB21E"/>
<path d="M59.8463 27.3608C59.4753 33.548 59.1699 40.1592 58.9304 47.1945C58.6896 54.2663 58.545 60.869 58.4965 67.0028L46.1205 69.0513L38.7711 40.5816L38.3768 70.3331L29.4923 71.8037C29.9175 64.7014 30.2349 58.0701 30.4447 51.9096C30.6532 45.7856 30.7857 39.203 30.8421 32.1617L43.5639 30.056L50.9199 59.3402L51.3767 28.7627L59.8463 27.3608Z" fill="#FFB21E"/>
<path d="M78.9255 63.6213C78.5584 61.616 78.0594 59.1069 77.4287 56.0941L66.4009 57.9195L64.4061 66.0246L55.7291 67.4609L66.7603 26.162L79.4821 24.0562L87.8792 62.1392L78.9255 63.6213ZM75.7486 47.8904C75.0032 44.2078 74.2347 40.5291 73.4432 36.8542L72.7345 33.4374C71.8149 36.8881 70.4573 42.0968 68.6618 49.0634L75.7486 47.8904Z" fill="#FFB21E"/>
<path d="M98.8673 37.8111L113.629 35.3677L112.858 58.0046L106.774 59.0117L106.377 49.4538C105.568 53.0312 104.247 55.8052 102.416 57.7757C100.584 59.7463 98.389 60.9433 95.8308 61.3667C93.5031 61.752 91.4568 61.2752 89.692 59.9362C87.9502 58.5934 86.6129 56.4768 85.6801 53.5865C84.7703 50.6923 84.3849 47.2039 84.5239 43.1213C84.7461 36.5963 86.1547 31.2342 88.7498 27.0349C91.3448 22.8357 95.2467 20.305 100.455 19.4429C103.428 18.9508 106.018 19.2833 108.224 20.4404C110.454 21.5938 112.309 23.6427 113.79 26.5873C112.724 27.5974 110.639 29.6099 107.535 32.6249L106.644 33.5334C105.794 32.2606 104.781 31.377 103.606 30.8828C102.433 30.3521 101.178 30.1974 99.8409 30.4187C97.6284 30.7849 95.9489 31.9872 94.8024 34.0255C93.6571 36.0274 93.0386 38.3771 92.9467 41.0746C92.8475 43.9908 93.3436 46.2466 94.4351 47.842C95.5496 49.4337 97.3053 50.0311 99.7022 49.6344C100.739 49.4627 101.75 49.0598 102.734 48.4257C103.741 47.7878 104.599 46.8303 105.307 45.5532L98.5657 46.669L98.8673 37.8111Z" fill="#FFB21E"/>
<path d="M141.795 13.742C141.423 19.9291 141.117 26.5586 140.877 33.6304C140.636 40.7021 140.491 47.3049 140.443 53.4386L132.319 54.7833L132.825 39.9108L120.104 42.0165L119.597 56.8891L111.473 58.2338C111.898 51.1316 112.216 44.5002 112.426 38.3397C112.635 32.1793 112.768 25.5784 112.825 18.5372L120.949 17.1925L120.442 32.065L133.164 29.9593L133.671 15.0867L141.795 13.742Z" fill="#FFB21E"/>
<path d="M160.873 50.057C160.506 48.0517 160.007 45.5426 159.376 42.5298L148.348 44.3552L146.353 52.4603L137.676 53.8966L148.707 12.5977L161.429 10.4919L169.826 48.5749L160.873 50.057ZM157.696 34.3261C156.95 30.6435 156.182 26.9648 155.39 23.2899L154.682 19.8731C153.762 23.3238 152.404 28.5325 150.609 35.4991L157.696 34.3261Z" fill="#FFB21E"/>
<path d="M189.336 45.3456C188.969 43.3403 188.47 40.8312 187.839 37.8184L176.812 39.6437L174.817 47.7489L166.14 49.1852L177.171 7.88629L189.893 5.78052L198.29 43.8635L189.336 45.3456ZM186.159 29.6147C185.414 25.9321 184.645 22.2534 183.854 18.5785L183.145 15.1617C182.226 18.6124 180.868 23.8211 179.072 30.7877L186.159 29.6147Z" fill="#FFB21E"/>
<path d="M24.8875 71.1948C24.5204 69.1895 24.0214 66.6804 23.3907 63.6676L12.3628 65.4929L10.3681 73.5981L1.69104 75.0344L12.7223 33.7355L25.4441 31.6297L33.8412 69.7127L24.8875 71.1948ZM21.7106 55.4639C20.9652 51.7813 20.1967 48.1026 19.4051 44.4277L18.6965 41.0109C17.7769 44.4616 16.4193 49.6703 14.6238 56.6369L21.7106 55.4639Z" fill="#FFCE1F"/>
<path d="M61.2162 25.7629C60.8451 31.9501 60.5398 38.5613 60.3003 45.5966C60.0595 52.6684 59.9149 59.2711 59.8664 65.4049L47.4904 67.4534L40.1409 38.9837L39.7467 68.7352L30.8622 70.2058C31.2873 63.1035 31.6048 56.4722 31.8146 50.3117C32.0231 44.1877 32.1556 37.6051 32.212 30.5638L44.9337 28.4581L52.2898 57.7423L52.7466 27.1648L61.2162 25.7629Z" fill="#FFCE1F"/>
<path d="M80.2954 62.0234C79.9283 60.0181 79.4293 57.509 78.7986 54.4962L67.7707 56.3216L65.776 64.4267L57.0989 65.863L68.1302 24.5641L80.852 22.4583L89.249 60.5413L80.2954 62.0234ZM77.1185 46.2925C76.3731 42.6099 75.6046 38.9312 74.813 35.2563L74.1044 31.8395C73.1848 35.2902 71.8272 40.4989 70.0317 47.4655L77.1185 46.2925Z" fill="#FFCE1F"/>
<path d="M100.237 36.2132L114.999 33.7698L114.228 56.4067L108.143 57.4138L107.747 47.8559C106.938 51.4333 105.617 54.2073 103.786 56.1778C101.954 58.1484 99.7589 59.3454 97.2007 59.7688C94.873 60.1541 92.8267 59.6773 91.0619 58.3383C89.3201 56.9955 87.9828 54.8789 87.0499 51.9886C86.1401 49.0944 85.7548 45.606 85.8938 41.5234C86.1159 34.9984 87.5246 29.6363 90.1196 25.437C92.7147 21.2378 96.6165 18.7071 101.825 17.845C104.798 17.3529 107.388 17.6854 109.594 18.8425C111.824 19.9959 113.679 22.0448 115.16 24.9894C114.094 25.9995 112.009 28.012 108.904 31.027L108.014 31.9355C107.164 30.6627 106.151 29.7791 104.976 29.2849C103.803 28.7542 102.547 28.5995 101.211 28.8208C98.9982 29.187 97.3188 30.3893 96.1723 32.4276C95.027 34.4295 94.4085 36.7792 94.3166 39.4767C94.2173 42.3929 94.7134 44.6487 95.805 46.2441C96.9195 47.8358 98.6752 48.4332 101.072 48.0365C102.109 47.8648 103.12 47.4619 104.104 46.8278C105.111 46.1899 105.969 45.2324 106.677 43.9553L99.9355 45.0711L100.237 36.2132Z" fill="#FFCE1F"/>
<path d="M143.164 12.1441C142.793 18.3312 142.487 24.9607 142.247 32.0325C142.006 39.1042 141.861 45.707 141.813 51.8407L133.689 53.1854L134.195 38.3129L121.473 40.4186L120.967 55.2912L112.843 56.6359C113.268 49.5336 113.586 42.9023 113.795 36.7418C114.005 30.5814 114.138 23.9805 114.195 16.9393L122.319 15.5946L121.812 30.4671L134.534 28.3614L135.04 13.4888L143.164 12.1441Z" fill="#FFCE1F"/>
<path d="M162.243 48.4591C161.875 46.4538 161.376 43.9447 160.746 40.9319L149.718 42.7573L147.723 50.8624L139.046 52.2987L150.077 10.9998L162.799 8.89404L171.196 46.977L162.243 48.4591ZM159.066 32.7282C158.32 29.0456 157.552 25.3669 156.76 21.692L156.052 18.2752C155.132 21.7259 153.774 26.9346 151.979 33.9012L159.066 32.7282Z" fill="#FFCE1F"/>
<path d="M190.706 43.7477C190.339 41.7424 189.84 39.2333 189.209 36.2205L178.181 38.0458L176.187 46.151L167.51 47.5873L178.541 6.28839L191.263 4.18262L199.66 42.2656L190.706 43.7477ZM187.529 28.0168C186.784 24.3342 186.015 20.6555 185.224 16.9806L184.515 13.5638C183.595 17.0145 182.238 22.2232 180.442 29.1898L187.529 28.0168Z" fill="#FFCE1F"/>
<path d="M26.7818 69.7744C26.4147 67.7691 25.9157 65.26 25.285 62.2472L14.2571 64.0725L12.2624 72.1777L3.58533 73.614L14.6166 32.3151L27.3383 30.2093L35.7354 68.2923L26.7818 69.7744ZM23.6049 54.0435C22.8595 50.3609 22.091 46.6822 21.2994 43.0073L20.5908 39.5905C19.6712 43.0412 18.3136 48.2499 16.5181 55.2165L23.6049 54.0435Z" fill="#FDEA44"/>
<path d="M63.1105 24.3425C62.7394 30.5297 62.4341 37.1409 62.1945 44.1762C61.9538 51.248 61.8091 57.8507 61.7607 63.9845L49.3846 66.033L42.0352 37.5633L41.641 67.3148L32.7565 68.7854C33.1816 61.6831 33.4991 55.0517 33.7089 48.8913C33.9174 42.7673 34.0498 36.1847 34.1063 29.1434L46.828 27.0377L54.1841 56.3218L54.6408 25.7444L63.1105 24.3425Z" fill="#FDEA44"/>
<path d="M82.1897 60.603C81.8226 58.5977 81.3236 56.0886 80.6929 53.0758L69.665 54.9011L67.6703 63.0063L58.9932 64.4426L70.0245 23.1437L82.7462 21.0379L91.1433 59.1209L82.1897 60.603ZM79.0128 44.8721C78.2674 41.1895 77.4989 37.5108 76.7073 33.8359L75.9987 30.4191C75.0791 33.8698 73.7215 39.0785 71.926 46.0451L79.0128 44.8721Z" fill="#FDEA44"/>
<path d="M102.131 34.7928L116.893 32.3494L116.122 54.9863L110.038 55.9934L109.641 46.4355C108.832 50.0129 107.511 52.7869 105.68 54.7574C103.848 56.728 101.653 57.925 99.095 58.3484C96.7673 58.7337 94.721 58.2569 92.9562 56.9179C91.2144 55.5751 89.8771 53.4585 88.9442 50.5682C88.0344 47.674 87.649 44.1856 87.7881 40.103C88.0102 33.578 89.4189 28.2159 92.0139 24.0166C94.609 19.8174 98.5108 17.2867 103.719 16.4246C106.692 15.9325 109.282 16.265 111.489 17.4221C113.718 18.5755 115.573 20.6244 117.054 23.569C115.989 24.5791 113.903 26.5916 110.799 29.6066L109.908 30.5151C109.058 29.2422 108.045 28.3587 106.87 27.8645C105.697 27.3338 104.442 27.1791 103.105 27.4003C100.893 27.7666 99.2131 28.9689 98.0666 31.0072C96.9213 33.0091 96.3028 35.3588 96.2109 38.0563C96.1116 40.9725 96.6077 43.2283 97.6992 44.8237C98.8138 46.4154 100.57 47.0128 102.966 46.6161C104.003 46.4444 105.014 46.0415 105.998 45.4074C107.005 44.7695 107.863 43.812 108.571 42.5349L101.83 43.6507L102.131 34.7928Z" fill="#FDEA44"/>
<path d="M145.059 10.7237C144.688 16.9108 144.382 23.5403 144.141 30.612C143.9 37.6838 143.755 44.2866 143.707 50.4203L135.583 51.765L136.089 36.8925L123.368 38.9982L122.861 53.8708L114.737 55.2155C115.163 48.1132 115.48 41.4819 115.69 35.3214C115.9 29.161 116.033 22.5601 116.089 15.5189L124.213 14.1742L123.707 29.0467L136.428 26.941L136.935 12.0684L145.059 10.7237Z" fill="#FDEA44"/>
<path d="M164.137 47.0387C163.77 45.0334 163.271 42.5243 162.64 39.5115L151.612 41.3369L149.617 49.442L140.94 50.8783L151.972 9.5794L164.693 7.47363L173.09 45.5566L164.137 47.0387ZM160.96 31.3078C160.214 27.6252 159.446 23.9465 158.654 20.2716L157.946 16.8548C157.026 20.3055 155.669 25.5142 153.873 32.4808L160.96 31.3078Z" fill="#FDEA44"/>
<path d="M192.6 42.3273C192.233 40.3219 191.734 37.8129 191.104 34.8L180.076 36.6254L178.081 44.7306L169.404 46.1668L180.435 4.86798L193.157 2.76221L201.554 40.8452L192.6 42.3273ZM189.423 26.5964C188.678 22.9138 187.91 19.2351 187.118 15.5602L186.409 12.1434C185.49 15.5941 184.132 20.8028 182.337 27.7694L189.423 26.5964Z" fill="#FDEA44"/>
</svg>
