<svg width="201" height="87" viewBox="0 0 201 87" fill="none" xmlns="http://www.w3.org/2000/svg">
<path d="M32.2374 80.8365L34.5883 80.4013C35.1986 80.2883 35.7599 80.3155 36.272 80.4831C36.7831 80.645 37.2075 80.9278 37.5454 81.3317C37.8823 81.7299 38.1013 82.2169 38.2026 82.7928C38.3038 83.3687 38.265 83.9064 38.0859 84.406C37.9059 84.8999 37.6045 85.3171 37.1818 85.6577C36.758 85.9927 36.241 86.2167 35.6306 86.3297L33.2798 86.7649L32.2374 80.8365ZM35.5023 85.7937C36.0082 85.7001 36.433 85.5165 36.7767 85.243C37.1194 84.9639 37.3634 84.6243 37.5089 84.2242C37.6533 83.8185 37.6838 83.3786 37.6005 82.9043C37.5171 82.43 37.3391 82.0315 37.0666 81.7089C36.7931 81.3806 36.4488 81.1499 36.0337 81.0169C35.6175 80.8782 35.1565 80.8557 34.6506 80.9494L32.9431 81.2655L33.7949 86.1098L35.5023 85.7937Z" fill="white"/>
<path d="M45.6081 83.9229L45.7034 84.4649L41.6204 85.2208L40.5781 79.2924L44.5373 78.5594L44.6326 79.1014L41.2837 79.7214L41.6545 81.8302L44.6404 81.2774L44.7343 81.811L41.7483 82.3638L42.1355 84.5657L45.6081 83.9229Z" fill="white"/>
<path d="M50.265 83.6728C49.8361 83.7523 49.4112 83.758 48.9905 83.6902C48.5752 83.6213 48.24 83.491 47.9849 83.2992L48.1392 82.7722C48.3859 82.948 48.6944 83.0716 49.0646 83.143C49.4339 83.2087 49.8027 83.2075 50.1712 83.1393C50.6881 83.0436 51.0589 82.8758 51.2836 82.636C51.5073 82.3906 51.5918 82.1126 51.5372 81.802C51.4956 81.5649 51.3908 81.389 51.223 81.2743C51.0607 81.1586 50.8714 81.0829 50.655 81.0472C50.4377 81.0058 50.1396 80.9735 49.7608 80.9504C49.3065 80.9179 48.9412 80.8747 48.6649 80.8209C48.3876 80.7615 48.1366 80.6418 47.9119 80.4619C47.6927 80.2809 47.5508 80.007 47.4863 79.64C47.4337 79.3407 47.463 79.0554 47.5743 78.7842C47.6846 78.5072 47.8863 78.2658 48.1795 78.06C48.4726 77.8542 48.8556 77.7075 49.3285 77.6199C49.6585 77.5588 49.9886 77.5473 50.3189 77.5852C50.6537 77.6165 50.951 77.6926 51.2108 77.8136L51.0924 78.3515C50.8217 78.2325 50.5419 78.159 50.253 78.1308C49.9632 78.0971 49.6863 78.1046 49.4223 78.1535C48.9164 78.2471 48.5521 78.4195 48.3294 78.6706C48.1112 78.9151 48.0299 79.1954 48.0855 79.5115C48.1272 79.7487 48.2297 79.9279 48.3929 80.0493C48.5607 80.164 48.7561 80.2415 48.9789 80.2818C49.2063 80.3155 49.5066 80.3445 49.8799 80.3686C50.3222 80.3975 50.682 80.4417 50.9593 80.5011C51.2411 80.5539 51.4916 80.6707 51.7108 80.8517C51.929 81.027 52.0699 81.2953 52.1334 81.6567C52.186 81.9559 52.1544 82.2445 52.0387 82.5225C51.9274 82.7938 51.7224 83.0328 51.4238 83.2397C51.1242 83.4409 50.7379 83.5853 50.265 83.6728Z" fill="white"/>
<path d="M54.2225 76.7664L54.8329 76.6533L55.8752 82.5818L55.2648 82.6948L54.2225 76.7664Z" fill="white"/>
<path d="M62.8251 78.2344L63.4108 78.126L63.8083 80.3873C63.5816 80.6799 63.2954 80.9253 62.9498 81.1234C62.6042 81.3214 62.2279 81.4581 61.821 81.5335C61.2436 81.6404 60.7011 81.6067 60.1935 81.4325C59.686 81.2583 59.26 80.967 58.9156 80.5585C58.5703 80.1444 58.3475 79.6522 58.2472 79.0819C58.147 78.5117 58.1886 77.9734 58.3722 77.4672C58.5547 76.9554 58.8541 76.5269 59.2704 76.1816C59.6866 75.8364 60.1862 75.6098 60.7691 75.5019C61.209 75.4205 61.6261 75.419 62.0203 75.4976C62.4135 75.5706 62.7615 75.7248 63.0641 75.9603L62.7546 76.4286C62.2168 76.0501 61.5959 75.926 60.8921 76.0563C60.4247 76.1428 60.0201 76.3285 59.6784 76.6133C59.3412 76.8914 59.0986 77.2395 58.9507 77.6575C58.8017 78.0698 58.768 78.5075 58.8494 78.9705C58.9308 79.4334 59.1115 79.8314 59.3914 80.1643C59.6714 80.4973 60.0172 80.7364 60.4289 80.8817C60.8405 81.0271 61.2801 81.0565 61.7475 80.9699C62.3414 80.86 62.8177 80.6144 63.1765 80.2331L62.8251 78.2344Z" fill="white"/>
<path d="M70.9684 73.6662L72.0108 79.5946L71.5076 79.6877L66.95 75.5644L67.7958 80.3749L67.1854 80.4879L66.1431 74.5595L66.6463 74.4663L71.2121 78.5881L70.3663 73.7776L70.9684 73.6662Z" fill="white"/>
<path d="M79.409 77.6653L79.5043 78.2073L75.4213 78.9632L74.379 73.0348L78.3382 72.3018L78.4335 72.8438L75.0847 73.4638L75.4554 75.5726L78.4414 75.0198L78.5352 75.5534L75.5492 76.1062L75.9364 78.3081L79.409 77.6653Z" fill="white"/>
<path d="M86.4078 76.9292L84.753 75.268C84.6075 75.3124 84.455 75.3494 84.2956 75.3789L82.7448 75.666L83.0754 77.5462L82.465 77.6592L81.4227 71.7307L83.5838 71.3307C84.3207 71.1942 84.9298 71.268 85.4113 71.552C85.8927 71.836 86.189 72.2942 86.3002 72.9265C86.3816 73.3895 86.3351 73.8033 86.1608 74.1679C85.9909 74.5258 85.7067 74.8145 85.3081 75.0341L87.0759 76.8055L86.4078 76.9292ZM84.1853 74.8484C84.7571 74.7425 85.1715 74.5317 85.4283 74.216C85.685 73.9003 85.7722 73.5082 85.6898 73.0395C85.6055 72.5596 85.3897 72.2206 85.0426 72.0225C84.6945 71.8188 84.2345 71.7699 83.6626 71.8757L82.1284 72.1598L82.651 75.1324L84.1853 74.8484Z" fill="white"/>
<path d="M97.7854 74.9191L96.8364 74.2203C96.4413 74.8473 95.8451 75.2346 95.0477 75.3822C94.6738 75.4514 94.3274 75.4514 94.0086 75.3822C93.6943 75.3063 93.4349 75.1707 93.2302 74.9753C93.0245 74.7744 92.8959 74.5271 92.8443 74.2335C92.7817 73.8778 92.8356 73.5385 93.0059 73.2154C93.1763 72.8924 93.4981 72.5268 93.9714 72.1185C93.6448 71.8758 93.4114 71.6625 93.2712 71.4786C93.13 71.289 93.039 71.0785 92.9983 70.847C92.9318 70.4687 93.0102 70.1394 93.2335 69.859C93.4567 69.5787 93.791 69.3973 94.2365 69.3148C94.6489 69.2384 94.9944 69.2823 95.2731 69.4464C95.5518 69.6106 95.7234 69.8761 95.7879 70.2431C95.8395 70.5367 95.79 70.8199 95.6392 71.0927C95.4874 71.3598 95.1999 71.6783 94.7766 72.0481L96.6552 73.4318C96.7746 73.0774 96.8368 72.6724 96.8418 72.2167L97.347 72.2806C97.3359 72.8307 97.2453 73.3167 97.0754 73.7388L98.0536 74.4584L97.7854 74.9191ZM94.3154 69.7637C94.0294 69.8166 93.8169 69.9317 93.6777 70.1091C93.544 70.2854 93.4986 70.495 93.5413 70.7377C93.572 70.9128 93.6453 71.0712 93.7611 71.213C93.8769 71.3548 94.0878 71.5373 94.3939 71.7604C94.7681 71.4346 95.0196 71.1695 95.1483 70.9649C95.277 70.7604 95.323 70.5536 95.2863 70.3447C95.2466 70.1189 95.141 69.9548 94.9697 69.8524C94.7974 69.7444 94.5793 69.7148 94.3154 69.7637ZM94.9928 74.8764C95.6307 74.7583 96.1084 74.4396 96.4259 73.9202L94.3624 72.4046C93.9526 72.7545 93.6786 73.053 93.5404 73.3001C93.4076 73.5462 93.3646 73.802 93.4112 74.0673C93.4678 74.3892 93.64 74.6255 93.9277 74.7763C94.2199 74.9204 94.5749 74.9538 94.9928 74.8764Z" fill="white"/>
<path d="M108.308 72.8749L106.653 71.2136C106.507 71.2581 106.355 71.295 106.196 71.3246L104.645 71.6116L104.975 73.4918L104.365 73.6048L103.323 67.6764L105.484 67.2763C106.221 67.1399 106.83 67.2137 107.311 67.4976C107.793 67.7816 108.089 68.2398 108.2 68.8722C108.282 69.3351 108.235 69.7489 108.061 70.1135C107.891 70.4714 107.607 70.7602 107.208 70.9797L108.976 72.7512L108.308 72.8749ZM106.085 70.7941C106.657 70.6882 107.071 70.4774 107.328 70.1617C107.585 69.846 107.672 69.4538 107.59 68.9852C107.505 68.5052 107.29 68.1662 106.943 67.9682C106.594 67.7644 106.134 67.7155 105.563 67.8214L104.028 68.1054L104.551 71.0781L106.085 70.7941Z" fill="white"/>
<path d="M115.839 70.9208L115.935 71.4629L111.852 72.2188L110.809 66.2904L114.769 65.5574L114.864 66.0994L111.515 66.7194L111.886 68.8282L114.872 68.2754L114.966 68.809L111.98 69.3618L112.367 71.5637L115.839 70.9208Z" fill="white"/>
<path d="M120.496 70.6708C120.067 70.7502 119.643 70.756 119.222 70.6882C118.807 70.6193 118.471 70.489 118.216 70.2972L118.371 69.7702C118.617 69.946 118.926 70.0696 119.296 70.141C119.665 70.2067 120.034 70.2055 120.403 70.1373C120.919 70.0416 121.29 69.8738 121.515 69.634C121.739 69.3886 121.823 69.1106 121.769 68.8C121.727 68.5629 121.622 68.387 121.454 68.2723C121.292 68.1566 121.103 68.0809 120.886 68.0451C120.669 68.0038 120.371 67.9715 119.992 67.9484C119.538 67.9159 119.173 67.8727 118.896 67.8189C118.619 67.7595 118.368 67.6398 118.143 67.4599C117.924 67.2789 117.782 67.005 117.718 66.638C117.665 66.3387 117.694 66.0534 117.806 65.7822C117.916 65.5052 118.118 65.2638 118.411 65.058C118.704 64.8521 119.087 64.7054 119.56 64.6179C119.89 64.5568 120.22 64.5453 120.55 64.5832C120.885 64.6145 121.182 64.6906 121.442 64.8116L121.324 65.3495C121.053 65.2305 120.773 65.157 120.484 65.1288C120.195 65.0951 119.918 65.1026 119.654 65.1515C119.148 65.2451 118.783 65.4175 118.561 65.6686C118.343 65.913 118.261 66.1934 118.317 66.5095C118.359 66.7467 118.461 66.9259 118.624 67.0473C118.792 67.162 118.987 67.2395 119.21 67.2798C119.438 67.3135 119.738 67.3425 120.111 67.3666C120.554 67.3955 120.913 67.4397 121.191 67.4991C121.473 67.5519 121.723 67.6687 121.942 67.8497C122.16 68.025 122.301 68.2933 122.365 68.6547C122.417 68.9539 122.386 69.2425 122.27 69.5205C122.159 69.7918 121.954 70.0308 121.655 70.2377C121.356 70.4389 120.969 70.5833 120.496 70.6708Z" fill="white"/>
<path d="M129.484 68.3948L129.579 68.9369L125.496 69.6928L124.454 63.7643L128.413 63.0314L128.508 63.5734L125.16 64.1934L125.53 66.3022L128.516 65.7494L128.61 66.283L125.624 66.8357L126.011 69.0377L129.484 68.3948Z" fill="white"/>
<path d="M135.883 66.1346L132.666 66.7302L132.251 68.4422L131.616 68.5598L133.213 62.1427L133.815 62.0312L137.497 67.471L136.854 67.5901L135.883 66.1346ZM135.57 65.6677L133.625 62.7399L132.799 66.1808L135.57 65.6677Z" fill="white"/>
<path d="M143.921 66.2817L142.266 64.6205C142.121 64.6649 141.968 64.7019 141.809 64.7314L140.258 65.0185L140.589 66.8987L139.978 67.0117L138.936 61.0832L141.097 60.6832C141.834 60.5467 142.443 60.6205 142.925 60.9045C143.406 61.1885 143.702 61.6467 143.814 62.279C143.895 62.742 143.848 63.1558 143.674 63.5204C143.504 63.8783 143.22 64.167 142.821 64.3866L144.589 66.158L143.921 66.2817ZM141.699 64.2009C142.27 64.095 142.685 63.8842 142.942 63.5685C143.198 63.2528 143.286 62.8607 143.203 62.392C143.119 61.9121 142.903 61.5731 142.556 61.375C142.208 61.1713 141.748 61.1224 141.176 61.2282L139.642 61.5123L140.164 64.4849L141.699 64.2009Z" fill="white"/>
<path d="M149.982 65.2122C149.41 65.3181 148.87 65.2839 148.362 65.1097C147.86 64.9345 147.437 64.6427 147.093 64.2342C146.753 63.8191 146.533 63.3264 146.433 62.7561C146.332 62.1858 146.371 61.6481 146.549 61.1429C146.732 60.6311 147.031 60.2026 147.447 59.8573C147.864 59.5121 148.358 59.2865 148.93 59.1807C149.359 59.1012 149.767 59.1014 150.156 59.181C150.545 59.2606 150.891 59.4181 151.193 59.6536L150.875 60.1234C150.342 59.7383 149.732 59.6093 149.044 59.7366C148.588 59.8211 148.192 60.0052 147.855 60.289C147.519 60.5728 147.277 60.9208 147.128 61.3332C146.984 61.7445 146.953 62.1816 147.035 62.6446C147.116 63.1076 147.294 63.5061 147.568 63.84C147.848 64.173 148.194 64.4121 148.606 64.5574C149.018 64.7028 149.452 64.7332 149.908 64.6487C150.601 64.5204 151.128 64.1779 151.49 63.6212L151.948 63.9474C151.745 64.2766 151.472 64.5515 151.131 64.7721C150.793 64.9861 150.41 65.1328 149.982 65.2122Z" fill="white"/>
<path d="M158.703 57.4238L159.745 63.3522L159.143 63.4637L158.662 60.7282L155.049 61.397L155.53 64.1326L154.92 64.2456L153.877 58.3172L154.488 58.2042L154.952 60.8465L158.565 60.1777L158.101 57.5353L158.703 57.4238Z" fill="white"/>
<path d="M167.143 61.4229L167.238 61.965L163.156 62.7208L162.113 56.7924L166.072 56.0595L166.168 56.6015L162.819 57.2215L163.19 59.3303L166.176 58.7775L166.269 59.311L163.283 59.8638L163.671 62.0658L167.143 61.4229Z" fill="white"/>
<path d="M174.142 60.6869L172.487 59.0257C172.342 59.0701 172.189 59.1071 172.03 59.1366L170.479 59.4237L170.81 61.3038L170.199 61.4168L169.157 55.4884L171.318 55.0883C172.055 54.9519 172.664 55.0257 173.145 55.3097C173.627 55.5937 173.923 56.0518 174.034 56.6842C174.116 57.1472 174.069 57.561 173.895 57.9255C173.725 58.2835 173.441 58.5722 173.042 58.7917L174.81 60.5632L174.142 60.6869ZM171.919 58.6061C172.491 58.5002 172.906 58.2894 173.162 57.9737C173.419 57.658 173.506 57.2658 173.424 56.7972C173.34 56.3173 173.124 55.9783 172.777 55.7802C172.429 55.5765 171.969 55.5275 171.397 55.6334L169.863 55.9174L170.385 58.8901L171.919 58.6061Z" fill="white"/>
<path d="M23.7803 69.7739C23.4132 67.7686 22.9143 65.2595 22.2835 62.2467L11.2557 64.072L9.26093 72.1772L0.583861 73.6135L11.6151 32.3146L24.3369 30.2088L32.734 68.2918L23.7803 69.7739ZM20.6035 54.043C19.858 50.3604 19.0895 46.6817 18.298 43.0068L17.5893 39.59C16.6697 43.0407 15.3121 48.2494 13.5166 55.216L20.6035 54.043Z" fill="white"/>
<path d="M60.109 24.342C59.7379 30.5292 59.4326 37.1404 59.1931 44.1757C58.9523 51.2475 58.8077 57.8502 58.7592 63.984L46.3832 66.0325L39.0338 37.5628L38.6395 67.3143L29.755 68.7849C30.1802 61.6826 30.4976 55.0513 30.7074 48.8908C30.9159 42.7668 31.0484 36.1842 31.1048 29.1429L43.8266 27.0372L51.1826 56.3214L51.6394 25.7439L60.109 24.342Z" fill="white"/>
<path d="M79.1882 60.6025C78.8211 58.5972 78.3221 56.0881 77.6914 53.0753L66.6636 54.9007L64.6688 63.0058L55.9918 64.4421L67.023 23.1432L79.7448 21.0374L88.1419 59.1204L79.1882 60.6025ZM76.0113 44.8716C75.2659 41.189 74.4974 37.5103 73.7059 33.8354L72.9972 30.4186C72.0776 33.8693 70.72 39.078 68.9245 46.0446L76.0113 44.8716Z" fill="white"/>
<path d="M99.13 34.7923L113.891 32.3489L113.121 54.9858L107.036 55.9929L106.64 46.435C105.831 50.0124 104.51 52.7864 102.678 54.7569C100.847 56.7275 98.6517 57.9245 96.0935 58.3479C93.7658 58.7332 91.7195 58.2564 89.9547 56.9174C88.2129 55.5746 86.8756 53.458 85.9428 50.5677C85.033 47.6735 84.6476 44.1851 84.7866 40.1025C85.0088 33.5775 86.4174 28.2154 89.0125 24.0161C91.6075 19.8169 95.5094 17.2862 100.718 16.4241C103.691 15.932 106.281 16.2645 108.487 17.4216C110.717 18.575 112.572 20.6239 114.053 23.5685C112.987 24.5786 110.902 26.5911 107.797 29.6061L106.907 30.5146C106.057 29.2418 105.044 28.3582 103.869 27.864C102.695 27.3333 101.44 27.1786 100.104 27.3999C97.8911 27.7661 96.2116 28.9684 95.0651 31.0067C93.9198 33.0086 93.3013 35.3584 93.2094 38.0558C93.1101 40.972 93.6063 43.2278 94.6978 44.8232C95.8123 46.4149 97.568 47.0123 99.9649 46.6156C101.002 46.4439 102.013 46.041 102.997 45.4069C104.004 44.769 104.861 43.8115 105.57 42.5344L98.8284 43.6502L99.13 34.7923Z" fill="white"/>
<path d="M142.057 10.7232C141.686 16.9103 141.38 23.5398 141.139 30.6116C140.899 37.6833 140.754 44.2861 140.706 50.4198L132.582 51.7645L133.088 36.892L120.366 38.9977L119.86 53.8703L111.736 55.215C112.161 48.1128 112.479 41.4814 112.688 35.3209C112.898 29.1605 113.031 22.5596 113.088 15.5184L121.211 14.1737L120.705 29.0462L133.427 26.9405L133.933 12.0679L142.057 10.7232Z" fill="white"/>
<path d="M161.135 47.0382C160.768 45.0329 160.269 42.5238 159.639 39.511L148.611 41.3364L146.616 49.4415L137.939 50.8778L148.97 9.57892L161.692 7.47315L170.089 45.5561L161.135 47.0382ZM157.958 31.3073C157.213 27.6248 156.445 23.946 155.653 20.2711L154.944 16.8543C154.025 20.305 152.667 25.5137 150.872 32.4803L157.958 31.3073Z" fill="white"/>
<path d="M189.599 42.3268C189.232 40.3215 188.733 37.8124 188.102 34.7996L177.074 36.6249L175.08 44.7301L166.402 46.1664L177.434 4.86749L190.155 2.76172L198.553 40.8447L189.599 42.3268ZM186.422 26.5959C185.677 22.9133 184.908 19.2346 184.117 15.5597L183.408 12.1429C182.488 15.5936 181.131 20.8023 179.335 27.7689L186.422 26.5959Z" fill="white"/>
</svg>
