<svg width="21" height="20" viewBox="0 0 21 20" fill="none" xmlns="http://www.w3.org/2000/svg">
<path d="M15.7853 3.46C15.548 3.46 15.316 3.53038 15.1186 3.66224C14.9213 3.79409 14.7675 3.98151 14.6767 4.20078C14.5858 4.42005 14.5621 4.66133 14.6084 4.89411C14.6547 5.12689 14.769 5.34071 14.9368 5.50853C15.1046 5.67635 15.3184 5.79064 15.5512 5.83694C15.784 5.88324 16.0253 5.85948 16.2445 5.76866C16.4638 5.67783 16.6512 5.52402 16.7831 5.32668C16.9149 5.12935 16.9853 4.89734 16.9853 4.66C16.9853 4.34174 16.8589 4.03652 16.6338 3.81147C16.4088 3.58643 16.1036 3.46 15.7853 3.46V3.46ZM20.3853 5.88C20.3659 5.0503 20.2105 4.2294 19.9253 3.45C19.671 2.78313 19.2753 2.17928 18.7653 1.68C18.2701 1.16743 17.6649 0.774176 16.9953 0.53C16.218 0.236161 15.3962 0.07721 14.5653 0.0599999C13.5053 -5.58794e-08 13.1653 0 10.4453 0C7.72531 0 7.38531 -5.58794e-08 6.32531 0.0599999C5.49446 0.07721 4.67266 0.236161 3.89531 0.53C3.22699 0.776649 2.62225 1.16956 2.12531 1.68C1.61274 2.17518 1.21949 2.78044 0.975312 3.45C0.681473 4.22734 0.522522 5.04915 0.505312 5.88C0.445312 6.94 0.445312 7.28 0.445312 10C0.445312 12.72 0.445312 13.06 0.505312 14.12C0.522522 14.9508 0.681473 15.7727 0.975312 16.55C1.21949 17.2196 1.61274 17.8248 2.12531 18.32C2.62225 18.8304 3.22699 19.2234 3.89531 19.47C4.67266 19.7638 5.49446 19.9228 6.32531 19.94C7.38531 20 7.72531 20 10.4453 20C13.1653 20 13.5053 20 14.5653 19.94C15.3962 19.9228 16.218 19.7638 16.9953 19.47C17.6649 19.2258 18.2701 18.8326 18.7653 18.32C19.2776 17.8226 19.6736 17.2182 19.9253 16.55C20.2105 15.7706 20.3659 14.9497 20.3853 14.12C20.3853 13.06 20.4453 12.72 20.4453 10C20.4453 7.28 20.4453 6.94 20.3853 5.88V5.88ZM18.5853 14C18.578 14.6348 18.4631 15.2637 18.2453 15.86C18.0856 16.2952 17.8292 16.6884 17.4953 17.01C17.171 17.3405 16.7785 17.5964 16.3453 17.76C15.749 17.9778 15.1201 18.0927 14.4853 18.1C13.4853 18.15 13.1153 18.16 10.4853 18.16C7.85531 18.16 7.48531 18.16 6.48531 18.1C5.8262 18.1123 5.16991 18.0109 4.54531 17.8C4.13109 17.6281 3.75667 17.3728 3.44531 17.05C3.1134 16.7287 2.86016 16.3352 2.70531 15.9C2.46117 15.2952 2.32576 14.6519 2.30531 14C2.30531 13 2.24531 12.63 2.24531 10C2.24531 7.37 2.24531 7 2.30531 6C2.30979 5.35106 2.42826 4.70795 2.65531 4.1C2.83136 3.67791 3.10158 3.30166 3.44531 3C3.74913 2.65617 4.1246 2.3831 4.54531 2.2C5.15486 1.98004 5.79731 1.86508 6.44531 1.86C7.44531 1.86 7.81531 1.8 10.4453 1.8C13.0753 1.8 13.4453 1.8 14.4453 1.86C15.0801 1.86728 15.709 1.98225 16.3053 2.2C16.7597 2.36865 17.1676 2.64285 17.4953 3C17.823 3.30718 18.0791 3.68273 18.2453 4.1C18.4676 4.70893 18.5826 5.35178 18.5853 6C18.6353 7 18.6453 7.37 18.6453 10C18.6453 12.63 18.6353 13 18.5853 14ZM10.4453 4.87C9.43112 4.87198 8.44027 5.17453 7.59797 5.73942C6.75566 6.30431 6.09969 7.1062 5.71295 8.04375C5.3262 8.98131 5.22604 10.0125 5.42511 11.0069C5.62418 12.0014 6.11355 12.9145 6.83139 13.631C7.54923 14.3474 8.46332 14.835 9.45817 15.0321C10.453 15.2293 11.484 15.1271 12.4208 14.7385C13.3576 14.35 14.1582 13.6924 14.7214 12.849C15.2847 12.0056 15.5853 11.0142 15.5853 10C15.5866 9.3251 15.4545 8.65661 15.1966 8.03296C14.9386 7.40931 14.5599 6.84281 14.0822 6.36605C13.6045 5.88929 13.0373 5.51168 12.4131 5.25493C11.789 4.99818 11.1202 4.86736 10.4453 4.87V4.87ZM10.4453 13.33C9.7867 13.33 9.14288 13.1347 8.59526 12.7688C8.04765 12.4029 7.62083 11.8828 7.36879 11.2743C7.11675 10.6659 7.05081 9.99631 7.1793 9.35035C7.30779 8.70439 7.62494 8.11104 8.09065 7.64533C8.55636 7.17963 9.14971 6.86247 9.79566 6.73398C10.4416 6.6055 11.1112 6.67144 11.7196 6.92348C12.3281 7.17552 12.8482 7.60234 13.2141 8.14995C13.58 8.69757 13.7753 9.34139 13.7753 10C13.7753 10.4373 13.6892 10.8703 13.5218 11.2743C13.3545 11.6784 13.1092 12.0454 12.8 12.3547C12.4908 12.6639 12.1237 12.9092 11.7196 13.0765C11.3156 13.2439 10.8826 13.33 10.4453 13.33V13.33Z" fill="white"/>
</svg>
