<svg width="21" height="20" viewBox="0 0 21 20" fill="none" xmlns="http://www.w3.org/2000/svg">
<path d="M15.7843 3.46C15.547 3.46 15.315 3.53038 15.1177 3.66224C14.9203 3.79409 14.7665 3.98151 14.6757 4.20078C14.5849 4.42005 14.5611 4.66133 14.6074 4.89411C14.6537 5.12689 14.768 5.34071 14.9358 5.50853C15.1036 5.67635 15.3175 5.79064 15.5502 5.83694C15.783 5.88324 16.0243 5.85948 16.2436 5.76866C16.4628 5.67783 16.6502 5.52402 16.7821 5.32668C16.914 5.12935 16.9843 4.89734 16.9843 4.66C16.9843 4.34174 16.8579 4.03652 16.6329 3.81147C16.4078 3.58643 16.1026 3.46 15.7843 3.46ZM20.3843 5.88C20.3649 5.0503 20.2095 4.2294 19.9243 3.45C19.6701 2.78313 19.2743 2.17928 18.7643 1.68C18.2692 1.16743 17.6639 0.774176 16.9943 0.53C16.217 0.236161 15.3952 0.07721 14.5643 0.0599999C13.5043 -5.58794e-08 13.1643 0 10.4443 0C7.72434 0 7.38434 -5.58794e-08 6.32434 0.0599999C5.49349 0.07721 4.67168 0.236161 3.89434 0.53C3.22601 0.776649 2.62127 1.16956 2.12434 1.68C1.61176 2.17518 1.21851 2.78044 0.974336 3.45C0.680497 4.22734 0.521546 5.04915 0.504336 5.88C0.444336 6.94 0.444336 7.28 0.444336 10C0.444336 12.72 0.444336 13.06 0.504336 14.12C0.521546 14.9508 0.680497 15.7727 0.974336 16.55C1.21851 17.2196 1.61176 17.8248 2.12434 18.32C2.62127 18.8304 3.22601 19.2234 3.89434 19.47C4.67168 19.7638 5.49349 19.9228 6.32434 19.94C7.38434 20 7.72434 20 10.4443 20C13.1643 20 13.5043 20 14.5643 19.94C15.3952 19.9228 16.217 19.7638 16.9943 19.47C17.6639 19.2258 18.2692 18.8326 18.7643 18.32C19.2766 17.8226 19.6727 17.2182 19.9243 16.55C20.2095 15.7706 20.3649 14.9497 20.3843 14.12C20.3843 13.06 20.4443 12.72 20.4443 10C20.4443 7.28 20.4443 6.94 20.3843 5.88ZM18.5843 14C18.5771 14.6348 18.4621 15.2637 18.2443 15.86C18.0847 16.2952 17.8282 16.6884 17.4943 17.01C17.17 17.3405 16.7776 17.5964 16.3443 17.76C15.748 17.9778 15.1191 18.0927 14.4843 18.1C13.4843 18.15 13.1143 18.16 10.4843 18.16C7.85434 18.16 7.48434 18.16 6.48434 18.1C5.82523 18.1123 5.16893 18.0109 4.54434 17.8C4.13012 17.6281 3.75569 17.3728 3.44434 17.05C3.11242 16.7287 2.85918 16.3352 2.70434 15.9C2.46019 15.2952 2.32478 14.6519 2.30434 14C2.30434 13 2.24434 12.63 2.24434 10C2.24434 7.37 2.24434 7 2.30434 6C2.30882 5.35106 2.42729 4.70795 2.65434 4.1C2.83038 3.67791 3.1006 3.30166 3.44434 3C3.74815 2.65617 4.12362 2.3831 4.54434 2.2C5.15389 1.98004 5.79633 1.86508 6.44434 1.86C7.44434 1.86 7.81434 1.8 10.4443 1.8C13.0743 1.8 13.4443 1.8 14.4443 1.86C15.0791 1.86728 15.708 1.98225 16.3043 2.2C16.7588 2.36865 17.1666 2.64285 17.4943 3C17.822 3.30718 18.0781 3.68273 18.2443 4.1C18.4666 4.70893 18.5816 5.35178 18.5843 6C18.6343 7 18.6443 7.37 18.6443 10C18.6443 12.63 18.6343 13 18.5843 14ZM10.4443 4.87C9.43015 4.87198 8.4393 5.17453 7.59699 5.73942C6.75468 6.30431 6.09871 7.1062 5.71197 8.04375C5.32523 8.98131 5.22506 10.0125 5.42413 11.0069C5.6232 12.0014 6.11257 12.9145 6.83041 13.631C7.54825 14.3474 8.46235 14.835 9.4572 15.0321C10.452 15.2293 11.483 15.1271 12.4198 14.7385C13.3566 14.35 14.1572 13.6924 14.7205 12.849C15.2837 12.0056 15.5843 11.0142 15.5843 10C15.5857 9.3251 15.4535 8.65661 15.1956 8.03296C14.9376 7.40931 14.5589 6.84281 14.0812 6.36605C13.6035 5.88929 13.0363 5.51168 12.4121 5.25493C11.788 4.99818 11.1192 4.86736 10.4443 4.87ZM10.4443 13.33C9.78572 13.33 9.1419 13.1347 8.59429 12.7688C8.04667 12.4029 7.61986 11.8828 7.36782 11.2743C7.11578 10.6659 7.04983 9.99631 7.17832 9.35035C7.30681 8.70439 7.62396 8.11104 8.08967 7.64533C8.55538 7.17963 9.14873 6.86247 9.79469 6.73398C10.4406 6.6055 11.1102 6.67144 11.7187 6.92348C12.3271 7.17552 12.8472 7.60234 13.2131 8.14995C13.579 8.69757 13.7743 9.34139 13.7743 10C13.7743 10.4373 13.6882 10.8703 13.5209 11.2743C13.3535 11.6784 13.1082 12.0454 12.799 12.3547C12.4898 12.6639 12.1227 12.9092 11.7187 13.0765C11.3147 13.2439 10.8816 13.33 10.4443 13.33Z" fill="#4F4F4F"/>
</svg>
