<svg width="21" height="24" viewBox="0 0 21 24" fill="none" xmlns="http://www.w3.org/2000/svg">
<g clip-path="url(#clip0_2230_2208)">
<path d="M4.125 21V21.9844C4.125 22.5469 4.32031 23.0234 4.71094 23.4141C5.10156 23.8047 5.57812 24 6.14062 24H14.1094C14.6719 24 15.1484 23.8047 15.5391 23.4141C15.9297 23.0234 16.125 22.5469 16.125 21.9844V21C17 21 17.8828 20.6016 18.7734 19.8047C19.6641 19.0078 20.1094 18.0781 20.1094 17.0156V8.01562C20.1094 6.95313 19.6641 6.01563 18.7734 5.20312C17.8828 4.39062 17 3.98438 16.125 3.98438H15.1406V3C15.1406 2.15625 14.8516 1.44531 14.2734 0.867188C13.6953 0.289063 12.9844 0 12.1406 0H8.10938C7.26562 0 6.55469 0.289063 5.97656 0.867188C5.39844 1.44531 5.10938 2.15625 5.10938 3V3.98438H4.125C3.03125 3.98438 2.09375 4.38281 1.3125 5.17969C0.53125 5.97656 0.140625 6.92187 0.140625 8.01562V17.0156C0.140625 18.1094 0.53125 19.0469 1.3125 19.8281C2.09375 20.6094 3.03125 21 4.125 21ZM14.1094 21.9844H6.14062V21H14.1094V21.9844ZM7.125 3C7.125 2.34375 7.45312 2.01562 8.10938 2.01562H12.1406C12.7969 2.01562 13.125 2.34375 13.125 3V3.98438H7.125V3ZM2.10938 8.01562C2.10938 7.45312 2.3125 6.97656 2.71875 6.58594C3.125 6.19531 3.59375 6 4.125 6H16.125C16.5 6 16.9297 6.21094 17.4141 6.63281C17.8984 7.05469 18.1406 7.51562 18.1406 8.01562V17.0156C18.1406 17.5156 17.8984 17.9687 17.4141 18.375C16.9297 18.7813 16.5 18.9844 16.125 18.9844H4.125C3.59375 18.9844 3.125 18.7891 2.71875 18.3984C2.3125 18.0078 2.10938 17.5469 2.10938 17.0156V8.01562ZM8.10938 10.5C8.10938 10.9375 7.96094 11.2969 7.66406 11.5781C7.36719 11.8594 7.01563 12 6.60938 12C6.20312 12 5.85156 11.8516 5.55469 11.5547C5.25781 11.2578 5.10938 10.9063 5.10938 10.5C5.10938 10.0937 5.25781 9.74219 5.55469 9.44531C5.85156 9.14844 6.20312 9 6.60938 9C7.01563 9 7.36719 9.14062 7.66406 9.42188C7.96094 9.70312 8.10938 10.0625 8.10938 10.5ZM15.1406 10.5C15.1406 10.9063 14.9922 11.2578 14.6953 11.5547C14.3984 11.8516 14.0469 12 13.6406 12C13.2344 12 12.8828 11.8594 12.5859 11.5781C12.2891 11.2969 12.1406 10.9375 12.1406 10.5C12.1406 10.0625 12.2891 9.70312 12.5859 9.42188C12.8828 9.14062 13.2344 9 13.6406 9C14.0469 9 14.3984 9.14844 14.6953 9.44531C14.9922 9.74219 15.1406 10.0937 15.1406 10.5ZM10.125 17.0156C11.5 17.0156 12.6719 16.8047 13.6406 16.3828C14.6094 15.9609 15.2344 15.5781 15.5156 15.2344C15.7969 14.8906 15.9687 14.6094 16.0312 14.3906C16.2813 13.7969 16.1094 13.3594 15.5156 13.0781C14.9219 12.8281 14.4844 13 14.2031 13.5938C14.2031 13.6875 14.1094 13.8281 13.9219 14.0156C13.7344 14.2031 13.2969 14.4141 12.6094 14.6484C11.9219 14.8828 11.0937 15 10.125 15C9.15625 15 8.32813 14.8828 7.64062 14.6484C6.95312 14.4141 6.51562 14.1875 6.32812 13.9688L6.04688 13.5938C5.76562 13 5.32813 12.8281 4.73438 13.0781C4.14062 13.3594 3.96875 13.7969 4.21875 14.3906C4.28125 14.6094 4.45312 14.8906 4.73438 15.2344C5.01562 15.5781 5.64063 15.9609 6.60938 16.3828C7.57812 16.8047 8.75 17.0156 10.125 17.0156Z" fill="#FFCE1F"/>
</g>
<defs>
<clipPath id="clip0_2230_2208">
<rect width="20.25" height="24" fill="white"/>
</clipPath>
</defs>
</svg>
