<svg width="20" height="20" viewBox="0 0 20 20" fill="none" xmlns="http://www.w3.org/2000/svg">
<path d="M18.5211 0.000139829H1.47887C1.2873 -0.00250476 1.09708 0.0323869 0.91908 0.102822C0.741077 0.173257 0.578776 0.277857 0.441446 0.410646C0.304116 0.543436 0.194448 0.701814 0.118704 0.876737C0.0429601 1.05166 0.00262414 1.2397 0 1.43012V18.5699C0.00262414 18.7603 0.0429601 18.9483 0.118704 19.1233C0.194448 19.2982 0.304116 19.4566 0.441446 19.5894C0.578776 19.7221 0.741077 19.8267 0.91908 19.8972C1.09708 19.9676 1.2873 20.0025 1.47887 19.9999H18.5211C18.7127 20.0025 18.9029 19.9676 19.0809 19.8972C19.2589 19.8267 19.4212 19.7221 19.5586 19.5894C19.6959 19.4566 19.8056 19.2982 19.8813 19.1233C19.957 18.9483 19.9974 18.7603 20 18.5699V1.43012C19.9974 1.2397 19.957 1.05166 19.8813 0.876737C19.8056 0.701814 19.6959 0.543436 19.5586 0.410646C19.4212 0.277857 19.2589 0.173257 19.0809 0.102822C18.9029 0.0323869 18.7127 -0.00250476 18.5211 0.000139829V0.000139829ZM6.0664 16.7399H3.04829V7.74003H6.0664V16.7399ZM4.55734 6.48005C4.14111 6.48005 3.74192 6.31569 3.4476 6.02314C3.15328 5.73059 2.98793 5.3338 2.98793 4.92007C2.98793 4.50634 3.15328 4.10955 3.4476 3.817C3.74192 3.52445 4.14111 3.36009 4.55734 3.36009C4.77837 3.33518 5.00219 3.35695 5.21416 3.42398C5.42613 3.491 5.62147 3.60178 5.78738 3.74905C5.95329 3.89632 6.08604 4.07676 6.17693 4.27856C6.26782 4.48036 6.31481 4.69897 6.31481 4.92007C6.31481 5.14117 6.26782 5.35978 6.17693 5.56158C6.08604 5.76338 5.95329 5.94382 5.78738 6.09109C5.62147 6.23836 5.42613 6.34914 5.21416 6.41617C5.00219 6.4832 4.77837 6.50496 4.55734 6.48005V6.48005ZM16.9517 16.7399H13.9336V11.91C13.9336 10.7 13.501 9.91 12.4044 9.91C12.0651 9.91247 11.7346 10.0183 11.4576 10.2132C11.1806 10.4081 10.9703 10.6827 10.8551 11C10.7764 11.235 10.7423 11.4826 10.7545 11.73V16.7299H7.73642C7.73642 16.7299 7.73642 8.55002 7.73642 7.73003H10.7545V9.00001C11.0287 8.52713 11.4275 8.13755 11.9079 7.87323C12.3883 7.60892 12.9322 7.47989 13.4809 7.50003C15.493 7.50003 16.9517 8.79002 16.9517 11.56V16.7399Z" fill="white"/>
</svg>
