<svg width="183" height="79" viewBox="0 0 183 79" fill="none" xmlns="http://www.w3.org/2000/svg">
<path d="M29.0046 73.4773L31.1607 73.0869C31.7205 72.9856 32.2347 73.0126 32.7035 73.168C33.1713 73.3183 33.5593 73.579 33.8675 73.9504C34.1748 74.3166 34.3738 74.7637 34.4645 75.2919C34.5552 75.8201 34.5176 76.3127 34.3517 76.7699C34.1849 77.2219 33.9072 77.6032 33.5185 77.9138C33.1289 78.2193 32.6542 78.4227 32.0944 78.524L29.9383 78.9144L29.0046 73.4773ZM31.9788 78.0324C32.4428 77.9484 32.8328 77.7817 33.1488 77.5323C33.4638 77.2777 33.6888 76.9673 33.8235 76.6012C33.9573 76.23 33.9869 75.8268 33.9122 75.3919C33.8375 74.9569 33.6759 74.5911 33.4273 74.2944C33.1779 73.9925 32.8631 73.7798 32.4831 73.6564C32.1022 73.5278 31.6798 73.5055 31.2158 73.5895L29.6498 73.873L30.4128 78.3159L31.9788 78.0324Z" fill="white"/>
<path d="M41.2474 76.3544L41.3328 76.8515L37.588 77.5295L36.6543 72.0924L40.2855 71.435L40.3709 71.9321L37.2995 72.4881L37.6316 74.4222L40.3702 73.9264L40.4542 74.4157L37.7157 74.9115L38.0625 76.931L41.2474 76.3544Z" fill="white"/>
<path d="M45.5163 76.1422C45.123 76.2134 44.7336 76.2172 44.3482 76.1535C43.9679 76.0888 43.6612 75.9682 43.428 75.7915L43.5714 75.309C43.7968 75.4711 44.0791 75.5855 44.4182 75.6523C44.7563 75.7139 45.0944 75.7141 45.4323 75.6529C45.9064 75.567 46.2468 75.4146 46.4536 75.1957C46.6596 74.9715 46.7381 74.7171 46.6891 74.4322C46.6518 74.2148 46.5564 74.0532 46.4031 73.9474C46.2548 73.8408 46.0815 73.7707 45.8833 73.7372C45.6843 73.6985 45.4112 73.6678 45.0641 73.6453C44.6479 73.6138 44.3133 73.573 44.0602 73.5227C43.8063 73.4672 43.5767 73.3566 43.3714 73.1909C43.1712 73.0242 43.0422 72.7726 42.9844 72.436C42.9372 72.1616 42.9651 71.9002 43.0681 71.652C43.1702 71.3986 43.356 71.1781 43.6254 70.9905C43.8947 70.8029 44.2463 70.6699 44.6801 70.5914C44.9827 70.5366 45.2853 70.5272 45.5879 70.5632C45.8946 70.5931 46.1668 70.6639 46.4044 70.7757L46.294 71.2682C46.0463 71.1582 45.7901 71.0898 45.5255 71.063C45.26 71.031 45.0062 71.0369 44.7641 71.0807C44.3001 71.1647 43.9656 71.3214 43.7606 71.5507C43.5597 71.7739 43.4841 72.0305 43.5339 72.3205C43.5713 72.538 43.6646 72.7026 43.8138 72.8145C43.9671 72.9202 44.1459 72.9919 44.35 73.0297C44.5582 73.0614 44.8334 73.089 45.1754 73.1125C45.5807 73.1406 45.9103 73.1824 46.1642 73.2379C46.4223 73.2872 46.6515 73.3953 46.8517 73.5619C47.051 73.7234 47.1792 73.9698 47.2361 74.3012C47.2832 74.5756 47.2532 74.84 47.1461 75.0943C47.0431 75.3426 46.8544 75.5609 46.5799 75.7494C46.3046 75.9328 45.9501 76.0637 45.5163 76.1422Z" fill="white"/>
<path d="M49.1684 69.8268L49.7282 69.7255L50.662 75.1626L50.1022 75.264L49.1684 69.8268Z" fill="white"/>
<path d="M57.0473 71.2035L57.5844 71.1063L57.9406 73.1802C57.7317 73.4476 57.4685 73.6714 57.1511 73.8517C56.8336 74.032 56.4883 74.1559 56.1151 74.2234C55.5855 74.3193 55.0885 74.2865 54.6239 74.125C54.1593 73.9635 53.77 73.6949 53.4559 73.3193C53.1409 72.9385 52.9385 72.4867 52.8486 71.9637C52.7588 71.4407 52.7989 70.9475 52.969 70.4843C53.1382 70.0158 53.4141 69.6242 53.7969 69.3093C54.1796 68.9944 54.6383 68.7885 55.1729 68.6918C55.5763 68.6187 55.9586 68.6189 56.3196 68.6924C56.6798 68.7607 56.9981 68.9032 57.2745 69.1202L56.9892 69.5482C56.4977 69.1994 55.9292 69.0834 55.2836 69.2003C54.8549 69.2779 54.4835 69.4466 54.1693 69.7064C53.8592 69.96 53.6356 70.2782 53.4985 70.6607C53.3605 71.0381 53.328 71.4391 53.4009 71.8637C53.4738 72.2883 53.638 72.6537 53.8934 72.9598C54.1488 73.266 54.4648 73.4864 54.8416 73.6211C55.2183 73.7558 55.621 73.7843 56.0497 73.7067C56.5944 73.6081 57.0319 73.3847 57.3621 73.0366L57.0473 71.2035Z" fill="white"/>
<path d="M64.5272 67.0463L65.4609 72.4834L64.9994 72.567L60.8374 68.7715L61.5951 73.1833L61.0353 73.2846L60.1015 67.8475L60.563 67.764L64.7326 71.5581L63.9749 67.1463L64.5272 67.0463Z" fill="white"/>
<path d="M72.2483 70.7421L72.3337 71.2392L68.5889 71.9171L67.6552 66.48L71.2865 65.8226L71.3718 66.3197L68.3004 66.8758L68.6325 68.8098L71.3711 68.3141L71.4552 68.8034L68.7166 69.2992L69.0634 71.3187L72.2483 70.7421Z" fill="white"/>
<path d="M78.6653 70.0929L77.1548 68.5644C77.0213 68.6046 76.8814 68.6379 76.7351 68.6644L75.3129 68.9219L75.609 70.6462L75.0492 70.7476L74.1154 65.3105L76.0975 64.9516C76.7733 64.8293 77.3313 64.8991 77.7715 65.1611C78.2118 65.4232 78.4817 65.8441 78.5813 66.4241C78.6542 66.8487 78.6101 67.2278 78.449 67.5613C78.292 67.8887 78.0304 68.1523 77.6643 68.352L79.2781 69.982L78.6653 70.0929ZM76.6359 68.1778C77.1605 68.0829 77.541 67.8912 77.7774 67.6028C78.0139 67.3143 78.0953 66.9552 78.0214 66.5254C77.9459 66.0853 77.7494 65.7738 77.432 65.591C77.1137 65.403 76.6922 65.3565 76.1677 65.4515L74.7606 65.7062L75.2288 68.4326L76.6359 68.1778Z" fill="white"/>
<path d="M89.1001 68.2919L88.2328 67.6481C87.8685 68.2212 87.3206 68.574 86.5893 68.7064C86.2464 68.7685 85.9289 68.7673 85.637 68.7026C85.3493 68.6319 85.112 68.5067 84.9251 68.327C84.7373 68.1421 84.6203 67.915 84.5741 67.6457C84.518 67.3195 84.5687 67.0086 84.7259 66.7132C84.8832 66.4178 85.1795 66.0838 85.6147 65.7114C85.3163 65.4878 85.1032 65.2914 84.9754 65.1224C84.8466 64.9481 84.764 64.7548 84.7276 64.5425C84.668 64.1956 84.741 63.8941 84.9466 63.6379C85.1523 63.3818 85.4593 63.2168 85.8678 63.1428C86.2461 63.0743 86.5626 63.1158 86.8175 63.2672C87.0723 63.4186 87.2286 63.6626 87.2864 63.9992C87.3326 64.2685 87.2862 64.5278 87.147 64.7773C87.0069 65.0215 86.7423 65.3124 86.353 65.6498L88.0696 66.9248C88.1803 66.6004 88.2388 66.2294 88.2451 65.8118L88.7079 65.8722C88.6957 66.3763 88.6109 66.8214 88.4536 67.2076L89.3475 67.8707L89.1001 68.2919ZM85.9385 63.5545C85.6763 63.6019 85.4811 63.7067 85.3529 63.8687C85.2297 64.0298 85.1873 64.2217 85.2255 64.4444C85.2531 64.6049 85.3197 64.7504 85.4253 64.8807C85.5309 65.0111 85.7235 65.1791 86.0033 65.3848C86.3474 65.0875 86.5789 64.8454 86.6976 64.6584C86.8163 64.4714 86.8592 64.2821 86.8262 64.0905C86.7907 63.8834 86.6946 63.7326 86.5379 63.6382C86.3804 63.5385 86.1806 63.5106 85.9385 63.5545ZM86.5409 68.2427C87.1259 68.1368 87.5649 67.8464 87.8578 67.3716L85.972 65.9751C85.5952 66.2942 85.343 66.5668 85.2154 66.7928C85.0929 67.0179 85.0525 67.2521 85.0943 67.4955C85.145 67.7906 85.3019 68.0078 85.565 68.1471C85.8323 68.2802 86.1576 68.3121 86.5409 68.2427Z" fill="white"/>
<path d="M98.7511 66.4566L97.2406 64.9281C97.1071 64.9683 96.9672 65.0016 96.8209 65.0281L95.3987 65.2856L95.6948 67.0099L95.135 67.1113L94.2012 61.6742L96.1833 61.3153C96.8591 61.193 97.4171 61.2628 97.8573 61.5248C98.2976 61.7869 98.5675 62.2078 98.6671 62.7878C98.74 63.2124 98.6959 63.5915 98.5348 63.925C98.3778 64.2524 98.1162 64.516 97.7501 64.7157L99.3639 66.3457L98.7511 66.4566ZM96.7217 64.5415C97.2463 64.4466 97.6268 64.2549 97.8632 63.9665C98.0997 63.678 98.1811 63.3189 98.1073 62.8891C98.0317 62.449 97.8352 62.1375 97.5178 61.9547C97.1995 61.7667 96.778 61.7202 96.2535 61.8152L94.8464 62.0699L95.3146 64.7963L96.7217 64.5415Z" fill="white"/>
<path d="M105.661 64.6931L105.746 65.1902L102.002 65.8682L101.068 60.4311L104.699 59.7737L104.784 60.2708L101.713 60.8268L102.045 62.7609L104.784 62.2651L104.868 62.7544L102.129 63.2502L102.476 65.2697L105.661 64.6931Z" fill="white"/>
<path d="M109.93 64.4809C109.536 64.5521 109.147 64.5559 108.762 64.4922C108.381 64.4275 108.075 64.3069 107.842 64.1302L107.985 63.6477C108.21 63.8098 108.493 63.9242 108.832 63.991C109.17 64.0525 109.508 64.0527 109.846 63.9916C110.32 63.9057 110.66 63.7533 110.867 63.5344C111.073 63.3102 111.152 63.0557 111.103 62.7709C111.065 62.5534 110.97 62.3918 110.817 62.2861C110.668 62.1795 110.495 62.1094 110.297 62.0759C110.098 62.0372 109.825 62.0065 109.478 61.9839C109.061 61.9525 108.727 61.9116 108.474 61.8613C108.22 61.8059 107.99 61.6953 107.785 61.5295C107.585 61.3629 107.456 61.1113 107.398 60.7747C107.351 60.5003 107.379 60.2389 107.482 59.9907C107.584 59.7373 107.769 59.5168 108.039 59.3292C108.308 59.1416 108.66 59.0086 109.094 58.93C109.396 58.8753 109.699 58.8659 110.001 58.9018C110.308 58.9317 110.58 59.0026 110.818 59.1144L110.707 59.6069C110.46 59.4969 110.204 59.4285 109.939 59.4017C109.673 59.3696 109.42 59.3756 109.178 59.4194C108.714 59.5034 108.379 59.66 108.174 59.8894C107.973 60.1126 107.898 60.3692 107.947 60.6592C107.985 60.8767 108.078 61.0413 108.227 61.1531C108.381 61.2589 108.559 61.3306 108.763 61.3684C108.972 61.4001 109.247 61.4277 109.589 61.4512C109.994 61.4793 110.324 61.5211 110.578 61.5766C110.836 61.6259 111.065 61.7339 111.265 61.9006C111.465 62.062 111.593 62.3085 111.65 62.6399C111.697 62.9143 111.667 63.1787 111.56 63.433C111.457 63.6813 111.268 63.8996 110.993 64.0881C110.718 64.2715 110.364 64.4024 109.93 64.4809Z" fill="white"/>
<path d="M118.175 62.4276L118.26 62.9247L114.516 63.6026L113.582 58.1655L117.213 57.5081L117.299 58.0052L114.227 58.5613L114.559 60.4953L117.298 59.9996L117.382 60.4889L114.643 60.9847L114.99 63.0042L118.175 62.4276Z" fill="white"/>
<path d="M124.048 60.3794L121.097 60.9135L120.711 62.481L120.129 62.5865L121.616 56.7111L122.168 56.6111L125.523 61.61L124.933 61.7168L124.048 60.3794ZM123.763 59.9503L121.991 57.2599L121.221 60.4105L123.763 59.9503Z" fill="white"/>
<path d="M131.414 60.5433L129.904 59.0148C129.77 59.055 129.63 59.0883 129.484 59.1148L128.062 59.3723L128.358 61.0967L127.798 61.198L126.864 55.7609L128.846 55.4021C129.522 55.2797 130.08 55.3495 130.521 55.6116C130.961 55.8736 131.231 56.2946 131.33 56.8745C131.403 57.2991 131.359 57.6782 131.198 58.0117C131.041 58.3391 130.779 58.6027 130.413 58.8024L132.027 60.4324L131.414 60.5433ZM129.385 58.6282C129.909 58.5333 130.29 58.3416 130.526 58.0532C130.763 57.7648 130.844 57.4056 130.77 56.9759C130.695 56.5357 130.498 56.2242 130.181 56.0414C129.863 55.8535 129.441 55.8069 128.917 55.9019L127.51 56.1566L127.978 58.883L129.385 58.6282Z" fill="white"/>
<path d="M136.973 59.5851C136.448 59.6801 135.953 59.6468 135.489 59.4853C135.029 59.3229 134.643 59.0539 134.328 58.6783C134.019 58.2966 133.819 57.8442 133.729 57.3212C133.639 56.7982 133.677 56.3056 133.842 55.8432C134.011 55.3748 134.287 54.9831 134.669 54.6682C135.052 54.3533 135.506 54.1484 136.03 54.0535C136.424 53.9822 136.798 53.9838 137.154 54.0582C137.51 54.1326 137.827 54.2782 138.103 54.4951L137.81 54.9245C137.323 54.5696 136.764 54.4492 136.134 54.5634C135.715 54.6391 135.351 54.8065 135.042 55.0653C134.733 55.3242 134.509 55.6423 134.371 56.0197C134.238 56.3961 134.208 56.7967 134.281 57.2213C134.354 57.6459 134.516 58.0117 134.766 58.3188C135.021 58.6249 135.337 58.8454 135.714 58.98C136.091 59.1147 136.489 59.1442 136.907 59.0684C137.543 58.9533 138.027 58.6414 138.361 58.1324L138.779 58.4331C138.592 58.734 138.341 58.985 138.027 59.186C137.718 59.3809 137.366 59.5139 136.973 59.5851Z" fill="white"/>
<path d="M144.994 52.4788L145.927 57.9159L145.375 58.0159L144.944 55.5071L141.631 56.1069L142.062 58.6158L141.502 58.7171L140.568 53.28L141.128 53.1787L141.544 55.6021L144.858 55.0022L144.441 52.5788L144.994 52.4788Z" fill="white"/>
<path d="M152.715 56.1746L152.8 56.6717L149.055 57.3496L148.122 51.9125L151.753 51.2551L151.838 51.7522L148.767 52.3083L149.099 54.2423L151.838 53.7465L151.922 54.2359L149.183 54.7317L149.53 56.7512L152.715 56.1746Z" fill="white"/>
<path d="M159.132 55.5254L157.621 53.9969C157.488 54.0371 157.348 54.0704 157.202 54.0969L155.779 54.3544L156.075 56.0787L155.516 56.1801L154.582 50.743L156.564 50.3841C157.24 50.2618 157.798 50.3316 158.238 50.5936C158.678 50.8556 158.948 51.2766 159.048 51.8566C159.121 52.2812 159.077 52.6603 158.915 52.9938C158.758 53.3212 158.497 53.5848 158.131 53.7845L159.745 55.4145L159.132 55.5254ZM157.102 53.6103C157.627 53.5153 158.007 53.3237 158.244 53.0352C158.48 52.7468 158.562 52.3877 158.488 51.9579C158.412 51.5178 158.216 51.2063 157.898 51.0235C157.58 50.8355 157.159 50.789 156.634 50.884L155.227 51.1387L155.695 53.865L157.102 53.6103Z" fill="white"/>
<path d="M21.2952 63.3081C20.966 61.4689 20.5179 59.1676 19.9507 56.4041L9.83721 58.037L7.97964 65.458L0.0219813 66.7429L10.2819 28.9329L21.9489 27.0492L29.5065 61.9823L21.2952 63.3081ZM18.4408 48.8794C17.7709 45.5016 17.08 42.1273 16.3679 38.7564L15.7308 35.6224C14.8755 38.7816 13.6124 43.5504 11.9415 49.9287L18.4408 48.8794Z" fill="white"/>
<path d="M54.755 21.8021C54.3925 27.4712 54.0886 33.5292 53.8436 39.9762C53.5972 46.4565 53.4407 52.5073 53.3741 58.1287L42.0241 59.9612L35.3918 33.8423L34.9224 61.1079L26.7746 62.4234C27.19 55.9158 27.505 49.8394 27.7196 44.1941C27.9329 38.5823 28.0782 32.5499 28.1555 26.0968L39.8225 24.2131L46.458 51.0785L46.9876 23.0562L54.755 21.8021Z" fill="white"/>
<path d="M72.1093 55.1037C71.7801 53.2645 71.3319 50.9632 70.7648 48.1997L60.6513 49.8326L58.7937 57.2536L50.836 58.5385L61.0959 20.7285L72.763 18.8448L80.3206 53.7779L72.1093 55.1037ZM69.2548 40.675C68.585 37.2972 67.894 33.9229 67.1819 30.5521L66.5448 27.418C65.6895 30.5772 64.4264 35.346 62.7555 41.7243L69.2548 40.675Z" fill="white"/>
<path d="M90.4794 31.5213L104.017 29.3355L103.228 50.0792L97.6485 50.9802L97.3198 42.219C96.5651 45.4947 95.3448 48.0322 93.6589 49.8316C91.9731 51.6309 89.9571 52.72 87.611 53.0988C85.4763 53.4435 83.6026 52.999 81.99 51.7654C80.3986 50.5284 79.1806 48.5838 78.3362 45.9314C77.5129 43.2757 77.1723 40.0772 77.3145 36.336C77.5418 30.3567 78.8523 25.4475 81.2459 21.6084C83.6395 17.7692 87.2246 15.464 92.0014 14.6928C94.7279 14.2526 97.1001 14.5667 99.1181 15.6352C101.157 16.7003 102.85 18.5849 104.197 21.289C103.216 22.2108 101.298 24.0477 98.4416 26.7996L97.6224 27.6291C96.8476 26.4594 95.9227 25.646 94.8478 25.1888C93.7741 24.6982 92.6243 24.5518 91.3985 24.7497C89.3694 25.0773 87.8258 26.1731 86.7677 28.0371C85.7108 29.8677 85.1354 32.0189 85.0414 34.4908C84.9398 37.1631 85.3863 39.2323 86.3809 40.6985C87.3966 42.1612 89.0035 42.7151 91.2016 42.3602C92.1528 42.2067 93.0804 41.8411 93.9847 41.2635C94.91 40.6825 95.6995 39.8081 96.353 38.6402L90.1708 39.6384L90.4794 31.5213Z" fill="white"/>
<path d="M129.909 9.618C129.547 15.2871 129.242 21.3618 128.996 27.8422C128.749 34.3225 128.593 40.3733 128.526 45.9947L121.076 47.1976L121.594 33.5689L109.927 35.4526L109.409 49.0813L101.958 50.2843C102.374 43.7767 102.689 37.7002 102.903 32.055C103.118 26.4098 103.264 20.3606 103.341 13.9076L110.792 12.7047L110.274 26.3334L121.941 24.4497L122.459 10.8209L129.909 9.618Z" fill="white"/>
<path d="M147.262 42.9696C146.933 41.1304 146.485 38.8291 145.918 36.0655L135.804 37.6985L133.947 45.1195L125.989 46.4043L136.249 8.59438L147.916 6.71064L155.474 41.6438L147.262 42.9696ZM144.408 28.5408C143.738 25.1631 143.047 21.7888 142.335 18.4179L141.698 15.2839C140.842 18.4431 139.579 23.2119 137.908 29.5902L144.408 28.5408Z" fill="white"/>
<path d="M173.366 38.7549C173.037 36.9157 172.588 34.6144 172.021 31.8509L161.908 33.4838L160.05 40.9048L152.093 42.1897L162.353 4.37971L174.02 2.49597L181.577 37.4291L173.366 38.7549ZM170.511 24.3262C169.842 20.9485 169.151 17.5741 168.438 14.2033L167.801 11.0692C166.946 14.2284 165.683 18.9972 164.012 25.3755L170.511 24.3262Z" fill="white"/>
</svg>
