<svg width="186" height="79" viewBox="0 0 186 79" fill="none" xmlns="http://www.w3.org/2000/svg">
<path d="M32.0043 73.4775L34.1604 73.0872C34.7202 72.9858 35.2345 73.0129 35.7032 73.1683C36.171 73.3185 36.559 73.5793 36.8672 73.9506C37.1745 74.3168 37.3735 74.764 37.4642 75.2921C37.5549 75.8203 37.5173 76.313 37.3514 76.7702C37.1847 77.2222 36.9069 77.6035 36.5183 77.9141C36.1287 78.2195 35.654 78.4229 35.0942 78.5243L32.9381 78.9146L32.0043 73.4775ZM34.9785 78.0327C35.4425 77.9487 35.8325 77.782 36.1485 77.5325C36.4636 77.2779 36.6885 76.9676 36.8233 76.6015C36.9571 76.2302 36.9867 75.8271 36.912 75.3921C36.8373 74.9572 36.6756 74.5913 36.4271 74.2946C36.1776 73.9927 35.8629 73.7801 35.4829 73.6567C35.102 73.5281 34.6795 73.5058 34.2155 73.5898L32.6495 73.8733L33.4126 78.3162L34.9785 78.0327Z" fill="#232323"/>
<path d="M44.2472 76.3547L44.3325 76.8518L40.5878 77.5297L39.654 72.0926L43.2853 71.4352L43.3707 71.9323L40.2992 72.4884L40.6314 74.4224L43.37 73.9267L43.454 74.416L40.7154 74.9118L41.0622 76.9313L44.2472 76.3547Z" fill="#232323"/>
<path d="M48.5161 76.1425C48.1227 76.2137 47.7333 76.2174 47.348 76.1537C46.9677 76.0891 46.6609 75.9684 46.4278 75.7917L46.5711 75.3093C46.7966 75.4713 47.0788 75.5858 47.4179 75.6525C47.7561 75.7141 48.0941 75.7143 48.4321 75.6531C48.9061 75.5673 49.2466 75.4149 49.4534 75.1959C49.6593 74.9718 49.7378 74.7173 49.6889 74.4325C49.6516 74.215 49.5562 74.0534 49.4028 73.9477C49.2545 73.8411 49.0813 73.771 48.8831 73.7375C48.684 73.6987 48.411 73.6681 48.0639 73.6455C47.6477 73.6141 47.313 73.5732 47.06 73.5229C46.806 73.4674 46.5764 73.3568 46.3712 73.1911C46.1709 73.0245 46.0419 72.7729 45.9841 72.4363C45.937 72.1618 45.9649 71.9005 46.0679 71.6523C46.17 71.3989 46.3557 71.1784 46.6251 70.9908C46.8945 70.8032 47.2461 70.6701 47.6798 70.5916C47.9824 70.5368 48.285 70.5274 48.5876 70.5634C48.8944 70.5933 49.1665 70.6642 49.4042 70.776L49.2937 71.2685C49.046 71.1585 48.7899 71.0901 48.5252 71.0632C48.2597 71.0312 48.0059 71.0371 47.7638 71.0809C47.2998 71.1649 46.9653 71.3216 46.7603 71.5509C46.5594 71.7742 46.4839 72.0308 46.5337 72.3208C46.5711 72.5382 46.6643 72.7029 46.8135 72.8147C46.9669 72.9204 47.1456 72.9922 47.3497 73.03C47.558 73.0617 47.8331 73.0893 48.1752 73.1128C48.5804 73.1409 48.91 73.1826 49.164 73.2381C49.4221 73.2875 49.6512 73.3955 49.8514 73.5621C50.0508 73.7236 50.1789 73.97 50.2358 74.3014C50.283 74.5759 50.253 74.8403 50.1458 75.0946C50.0428 75.3428 49.8541 75.5612 49.5797 75.7497C49.3044 75.933 48.9498 76.0639 48.5161 76.1425Z" fill="#232323"/>
<path d="M52.1682 69.8271L52.728 69.7257L53.6617 75.1628L53.1019 75.2642L52.1682 69.8271Z" fill="#232323"/>
<path d="M60.0471 71.2038L60.5842 71.1065L60.9404 73.1804C60.7315 73.4478 60.4683 73.6716 60.1508 73.8519C59.8334 74.0322 59.488 74.1561 59.1148 74.2237C58.5853 74.3196 58.0882 74.2867 57.6237 74.1252C57.1591 73.9637 56.7698 73.6952 56.4556 73.3196C56.1406 72.9388 55.9382 72.4869 55.8484 71.9639C55.7586 71.4409 55.7987 70.9478 55.9688 70.4845C56.1379 70.0161 56.4139 69.6244 56.7966 69.3095C57.1794 68.9946 57.638 68.7888 58.1726 68.692C58.5761 68.619 58.9584 68.6192 59.3194 68.6926C59.6795 68.7609 59.9978 68.9035 60.2743 69.1204L59.989 69.5485C59.4975 69.1996 58.9289 69.0837 58.2834 69.2005C57.8547 69.2781 57.4832 69.4468 57.169 69.7066C56.859 69.9603 56.6354 70.2784 56.4983 70.6609C56.3603 71.0383 56.3277 71.4393 56.4007 71.8639C56.4736 72.2885 56.6377 72.6539 56.8931 72.9601C57.1485 73.2662 57.4646 73.4866 57.8413 73.6213C58.2181 73.756 58.6208 73.7845 59.0495 73.7069C59.5942 73.6083 60.0316 73.385 60.3619 73.0369L60.0471 71.2038Z" fill="#232323"/>
<path d="M67.5269 67.0466L68.4607 72.4837L67.9992 72.5672L63.8372 68.7717L64.5949 73.1835L64.0351 73.2849L63.1013 67.8478L63.5628 67.7642L67.7323 71.5584L66.9747 67.1465L67.5269 67.0466Z" fill="#232323"/>
<path d="M75.2481 70.7423L75.3334 71.2394L71.5887 71.9174L70.6549 66.4803L74.2862 65.8229L74.3716 66.32L71.3001 66.876L71.6323 68.8101L74.3709 68.3143L74.4549 68.8036L71.7163 69.2994L72.0631 71.3189L75.2481 70.7423Z" fill="#232323"/>
<path d="M81.6651 70.0932L80.1545 68.5647C80.021 68.6048 79.8811 68.6382 79.7349 68.6647L78.3126 68.9221L78.6087 70.6465L78.0489 70.7478L77.1152 65.3107L79.0972 64.9519C79.7731 64.8295 80.3311 64.8994 80.7713 65.1614C81.2115 65.4234 81.4814 65.8444 81.581 66.4243C81.6539 66.849 81.6098 67.228 81.4487 67.5615C81.2917 67.8889 81.0302 68.1525 80.6641 68.3523L82.2779 69.9822L81.6651 70.0932ZM79.6357 68.1781C80.1602 68.0831 80.5407 67.8914 80.7772 67.603C81.0137 67.3146 81.095 66.9555 81.0212 66.5257C80.9456 66.0855 80.7491 65.7741 80.4317 65.5913C80.1134 65.4033 79.692 65.3568 79.1675 65.4517L77.7604 65.7065L78.2286 68.4328L79.6357 68.1781Z" fill="#232323"/>
<path d="M92.0998 68.2922L91.2326 67.6483C90.8682 68.2215 90.3204 68.5743 89.5891 68.7067C89.2461 68.7688 88.9287 68.7675 88.6368 68.7029C88.349 68.6322 88.1117 68.507 87.9248 68.3272C87.7371 68.1423 87.6201 67.9152 87.5738 67.6459C87.5178 67.3197 87.5684 67.0089 87.7257 66.7135C87.883 66.418 88.1792 66.0841 88.6145 65.7116C88.3161 65.488 88.103 65.2917 87.9751 65.1226C87.8464 64.9484 87.7638 64.7551 87.7273 64.5428C87.6677 64.1958 87.7408 63.8943 87.9464 63.6382C88.152 63.382 88.4591 63.217 88.8676 63.143C89.2459 63.0746 89.5624 63.116 89.8172 63.2674C90.072 63.4189 90.2283 63.6629 90.2861 63.9995C90.3324 64.2687 90.2859 64.5281 90.1468 64.7775C90.0067 65.0218 89.742 65.3126 89.3528 65.6501L91.0694 66.925C91.1801 66.6006 91.2386 66.2297 91.2449 65.8121L91.7077 65.8724C91.6954 66.3765 91.6107 66.8217 91.4534 67.2079L92.3473 67.871L92.0998 68.2922ZM88.9383 63.5547C88.676 63.6022 88.4808 63.7069 88.3526 63.869C88.2295 64.0301 88.1871 64.222 88.2253 64.4446C88.2529 64.6051 88.3194 64.7506 88.425 64.881C88.5306 65.0114 88.7233 65.1794 89.003 65.385C89.3472 65.0878 89.5786 64.8457 89.6973 64.6587C89.816 64.4717 89.8589 64.2824 89.826 64.0908C89.7904 63.8836 89.6943 63.7328 89.5377 63.6384C89.3802 63.5388 89.1804 63.5109 88.9383 63.5547ZM89.5406 68.2429C90.1257 68.137 90.5646 67.8466 90.8575 67.3718L88.9718 65.9753C88.595 66.2945 88.3428 66.567 88.2152 66.793C88.0926 67.0181 88.0523 67.2523 88.0941 67.4957C88.1447 67.7909 88.3017 68.0081 88.5648 68.1473C88.8321 68.2804 89.1573 68.3123 89.5406 68.2429Z" fill="#232323"/>
<path d="M101.751 66.4569L100.24 64.9284C100.107 64.9685 99.9669 65.0019 99.8207 65.0284L98.3984 65.2858L98.6946 67.0102L98.1347 67.1115L97.201 61.6744L99.183 61.3156C99.8589 61.1932 100.417 61.2631 100.857 61.5251C101.297 61.7871 101.567 62.2081 101.667 62.788C101.74 63.2127 101.696 63.5917 101.535 63.9252C101.378 64.2526 101.116 64.5162 100.75 64.716L102.364 66.3459L101.751 66.4569ZM99.7215 64.5418C100.246 64.4468 100.627 64.2551 100.863 63.9667C101.099 63.6783 101.181 63.3192 101.107 62.8894C101.031 62.4492 100.835 62.1378 100.518 61.955C100.199 61.767 99.7778 61.7205 99.2533 61.8154L97.8462 62.0702L98.3144 64.7965L99.7215 64.5418Z" fill="#232323"/>
<path d="M108.661 64.6934L108.746 65.1905L105.001 65.8684L104.068 60.4313L107.699 59.7739L107.784 60.271L104.713 60.8271L105.045 62.7611L107.783 62.2653L107.868 62.7547L105.129 63.2505L105.476 65.27L108.661 64.6934Z" fill="#232323"/>
<path d="M112.93 64.4811C112.536 64.5524 112.147 64.5561 111.761 64.4924C111.381 64.4278 111.074 64.3071 110.841 64.1304L110.985 63.648C111.21 63.81 111.492 63.9244 111.831 63.9912C112.17 64.0528 112.508 64.053 112.846 63.9918C113.32 63.906 113.66 63.7536 113.867 63.5346C114.073 63.3105 114.151 63.056 114.102 62.7712C114.065 62.5537 113.97 62.3921 113.816 62.2864C113.668 62.1797 113.495 62.1097 113.297 62.0761C113.098 62.0374 112.824 62.0068 112.477 61.9842C112.061 61.9527 111.727 61.9119 111.473 61.8616C111.22 61.8061 110.99 61.6955 110.785 61.5298C110.584 61.3632 110.455 61.1115 110.398 60.775C110.35 60.5005 110.378 60.2392 110.481 59.9909C110.583 59.7375 110.769 59.517 111.039 59.3295C111.308 59.1419 111.66 59.0088 112.093 58.9303C112.396 58.8755 112.699 58.8661 113.001 58.9021C113.308 58.932 113.58 59.0028 113.818 59.1147L113.707 59.6072C113.46 59.4972 113.203 59.4288 112.939 59.4019C112.673 59.3699 112.419 59.3758 112.177 59.4196C111.713 59.5036 111.379 59.6603 111.174 59.8896C110.973 60.1129 110.897 60.3695 110.947 60.6594C110.985 60.8769 111.078 61.0416 111.227 61.1534C111.38 61.2591 111.559 61.3309 111.763 61.3687C111.972 61.4004 112.247 61.428 112.589 61.4515C112.994 61.4795 113.324 61.5213 113.577 61.5768C113.836 61.6262 114.065 61.7342 114.265 61.9008C114.464 62.0623 114.592 62.3087 114.649 62.6401C114.696 62.9146 114.666 63.179 114.559 63.4333C114.456 63.6815 114.268 63.8999 113.993 64.0884C113.718 64.2717 113.363 64.4026 112.93 64.4811Z" fill="#232323"/>
<path d="M121.175 62.4278L121.26 62.9249L117.515 63.6029L116.582 58.1658L120.213 57.5084L120.298 58.0055L117.227 58.5615L117.559 60.4956L120.298 59.9998L120.382 60.4891L117.643 60.9849L117.99 63.0044L121.175 62.4278Z" fill="#232323"/>
<path d="M127.047 60.3796L124.097 60.9137L123.711 62.4813L123.128 62.5867L124.615 56.7113L125.168 56.6114L128.522 61.6102L127.932 61.717L127.047 60.3796ZM126.763 59.9505L124.991 57.2601L124.221 60.4107L126.763 59.9505Z" fill="#232323"/>
<path d="M134.414 60.5436L132.904 59.0151C132.77 59.0553 132.63 59.0886 132.484 59.1151L131.062 59.3726L131.358 61.0969L130.798 61.1982L129.864 55.7611L131.846 55.4023C132.522 55.28 133.08 55.3498 133.52 55.6118C133.961 55.8738 134.23 56.2948 134.33 56.8748C134.403 57.2994 134.359 57.6784 134.198 58.0119C134.041 58.3393 133.779 58.6029 133.413 58.8027L135.027 60.4326L134.414 60.5436ZM132.385 58.6285C132.909 58.5335 133.29 58.3418 133.526 58.0534C133.763 57.765 133.844 57.4059 133.77 56.9761C133.695 56.536 133.498 56.2245 133.181 56.0417C132.862 55.8537 132.441 55.8072 131.916 55.9021L130.509 56.1569L130.978 58.8832L132.385 58.6285Z" fill="#232323"/>
<path d="M139.972 59.5854C139.448 59.6803 138.953 59.6471 138.489 59.4856C138.029 59.3232 137.642 59.0541 137.328 58.6785C137.018 58.2968 136.818 57.8445 136.729 57.3215C136.639 56.7985 136.676 56.3058 136.841 55.8435C137.011 55.375 137.286 54.9834 137.669 54.6685C138.052 54.3536 138.506 54.1487 139.03 54.0537C139.423 53.9825 139.798 53.9841 140.154 54.0584C140.51 54.1328 140.826 54.2784 141.103 54.4953L140.81 54.9248C140.323 54.5699 139.764 54.4495 139.133 54.5636C138.715 54.6394 138.351 54.8067 138.042 55.0656C137.732 55.3244 137.509 55.6425 137.371 56.0199C137.238 56.3964 137.208 56.7969 137.281 57.2215C137.354 57.6461 137.515 58.012 137.766 58.319C138.021 58.6252 138.337 58.8456 138.714 58.9803C139.091 59.115 139.488 59.1444 139.907 59.0686C140.542 58.9536 141.027 58.6416 141.361 58.1327L141.779 58.4334C141.592 58.7343 141.341 58.9852 141.027 59.1862C140.717 59.3811 140.366 59.5142 139.972 59.5854Z" fill="#232323"/>
<path d="M147.993 52.4791L148.927 57.9162L148.375 58.0161L147.944 55.5073L144.63 56.1072L145.061 58.616L144.502 58.7174L143.568 53.2803L144.128 53.1789L144.544 55.6023L147.857 55.0024L147.441 52.579L147.993 52.4791Z" fill="#232323"/>
<path d="M155.715 56.1748L155.8 56.6719L152.055 57.3499L151.121 51.9128L154.753 51.2554L154.838 51.7525L151.767 52.3085L152.099 54.2426L154.837 53.7468L154.921 54.2361L152.183 54.7319L152.53 56.7514L155.715 56.1748Z" fill="#232323"/>
<path d="M162.132 55.5257L160.621 53.9972C160.487 54.0373 160.348 54.0707 160.201 54.0972L158.779 54.3546L159.075 56.079L158.515 56.1803L157.582 50.7432L159.564 50.3844C160.239 50.262 160.798 50.3319 161.238 50.5939C161.678 50.8559 161.948 51.2769 162.047 51.8568C162.12 52.2814 162.076 52.6605 161.915 52.994C161.758 53.3214 161.497 53.585 161.131 53.7848L162.744 55.4147L162.132 55.5257ZM160.102 53.6105C160.627 53.5156 161.007 53.3239 161.244 53.0355C161.48 52.7471 161.561 52.388 161.488 51.9582C161.412 51.518 161.216 51.2066 160.898 51.0238C160.58 50.8358 160.158 50.7893 159.634 50.8842L158.227 51.139L158.695 53.8653L160.102 53.6105Z" fill="#232323"/>
<path d="M21.2923 66.0622C20.9631 64.2231 20.5149 61.9217 19.9478 59.1582L9.83428 60.7911L7.97671 68.2122L0.0190516 69.497L10.279 31.6871L21.946 29.8033L29.5036 64.7365L21.2923 66.0622ZM18.4378 51.6335C17.768 48.2558 17.077 44.8815 16.3649 41.5106L15.7278 38.3766C14.8725 41.5358 13.6094 46.3045 11.9385 52.6829L18.4378 51.6335Z" fill="#FFB21E"/>
<path d="M54.7521 24.5563C54.3895 30.2254 54.0857 36.2834 53.8406 42.7303C53.5943 49.2106 53.4378 55.2615 53.3711 60.8828L42.0212 62.7154L35.3888 36.5965L34.9195 63.862L26.7716 65.1776C27.1871 58.6699 27.5021 52.5935 27.7167 46.9483C27.93 41.3364 28.0753 35.304 28.1526 28.851L39.8196 26.9672L46.455 53.8326L46.9846 25.8104L54.7521 24.5563Z" fill="#FFB21E"/>
<path d="M72.1064 57.8579C71.7772 56.0187 71.329 53.7173 70.7618 50.9538L60.6483 52.5867L58.7908 60.0078L50.8331 61.2926L61.093 23.4827L72.76 21.5989L80.3177 56.5321L72.1064 57.8579ZM69.2519 43.4291C68.582 40.0514 67.8911 36.6771 67.179 33.3062L66.5419 30.1722C65.6866 33.3314 64.4235 38.1001 62.7526 44.4785L69.2519 43.4291Z" fill="#FFB21E"/>
<path d="M90.4764 34.2754L104.014 32.0897L103.225 52.8334L97.6455 53.7343L97.3169 44.9731C96.5622 48.2489 95.3419 50.7864 93.656 52.5857C91.9701 54.3851 89.9542 55.4741 87.6081 55.8529C85.4733 56.1976 83.5997 55.7532 81.9871 54.5196C80.3956 53.2826 79.1777 51.3379 78.3332 48.6856C77.5099 46.0298 77.1694 42.8313 77.3116 39.0901C77.5389 33.1108 78.8494 28.2016 81.243 24.3625C83.6366 20.5234 87.2217 18.2182 91.9984 17.4469C94.725 17.0067 97.0972 17.3209 99.1152 18.3894C101.154 19.4545 102.847 21.3391 104.194 24.0431C103.213 24.965 101.295 26.8019 98.4387 29.5538L97.6194 30.3832C96.8447 29.2136 95.9198 28.4001 94.8449 27.9429C93.7712 27.4523 92.6214 27.306 91.3955 27.5039C89.3665 27.8315 87.8229 28.9273 86.7648 30.7913C85.7079 32.6219 85.1325 34.7731 85.0385 37.245C84.9369 39.9173 85.3834 41.9865 86.378 43.4526C87.3937 44.9154 89.0006 45.4693 91.1987 45.1144C92.1498 44.9608 93.0775 44.5952 93.9817 44.0177C94.9071 43.4367 95.6965 42.5622 96.3501 41.3944L90.1679 42.3925L90.4764 34.2754Z" fill="#FFB21E"/>
<path d="M129.906 12.3721C129.544 18.0413 129.239 24.116 128.993 30.5963C128.746 37.0766 128.59 43.1275 128.523 48.7488L121.073 49.9518L121.591 36.323L109.924 38.2068L109.406 51.8355L101.956 53.0384C102.371 46.5308 102.686 40.4544 102.901 34.8091C103.115 29.1639 103.261 23.1148 103.338 16.6618L110.789 15.4588L110.271 29.0876L121.938 27.2038L122.456 13.5751L129.906 12.3721Z" fill="#FFB21E"/>
<path d="M147.259 45.7237C146.93 43.8846 146.482 41.5832 145.915 38.8197L135.801 40.4526L133.944 47.8737L125.986 49.1585L136.246 11.3485L147.913 9.46479L155.471 44.3979L147.259 45.7237ZM144.405 31.295C143.735 27.9173 143.044 24.543 142.332 21.1721L141.695 18.0381C140.84 21.1972 139.576 25.966 137.906 32.3444L144.405 31.295Z" fill="#FFB21E"/>
<path d="M173.363 41.5091C173.034 39.6699 172.586 37.3685 172.018 34.605L161.905 36.2379L160.047 43.659L152.09 44.9438L162.35 7.13386L174.017 5.25012L181.574 40.1833L173.363 41.5091ZM170.508 27.0803C169.839 23.7026 169.148 20.3283 168.436 16.9574L167.798 13.8234C166.943 16.9826 165.68 21.7513 164.009 28.1297L170.508 27.0803Z" fill="#FFB21E"/>
<path d="M22.5538 64.6029C22.2246 62.7637 21.7764 60.4624 21.2093 57.6989L11.0958 59.3318L9.23819 66.7528L1.28053 68.0377L11.5404 30.2277L23.2074 28.344L30.7651 63.2771L22.5538 64.6029ZM19.6993 50.1742C19.0295 46.7964 18.3385 43.4221 17.6264 40.0512L16.9893 36.9172C16.134 40.0764 14.8709 44.8452 13.2 51.2235L19.6993 50.1742Z" fill="#FFCE1F"/>
<path d="M56.0135 23.0969C55.651 28.766 55.3472 34.824 55.1021 41.271C54.8558 47.7513 54.6993 53.8021 54.6326 59.4235L43.2826 61.256L36.6503 35.1371L36.181 62.4027L28.0331 63.7182C28.4485 57.2106 28.7636 51.1342 28.9782 45.4889C29.1915 39.8771 29.3368 33.8447 29.414 27.3916L41.081 25.5079L47.7165 52.3733L48.2461 24.351L56.0135 23.0969Z" fill="#FFCE1F"/>
<path d="M73.3678 56.3985C73.0386 54.5593 72.5905 52.258 72.0233 49.4945L61.9098 51.1274L60.0522 58.5484L52.0946 59.8333L62.3545 22.0233L74.0215 20.1396L81.5791 55.0727L73.3678 56.3985ZM70.5133 41.9698C69.8435 38.592 69.1525 35.2177 68.4404 31.8469L67.8034 28.7128C66.948 31.872 65.6849 36.6408 64.0141 43.0191L70.5133 41.9698Z" fill="#FFCE1F"/>
<path d="M91.7379 32.8161L105.275 30.6303L104.487 51.374L98.907 52.275L98.5784 43.5138C97.8237 46.7895 96.6034 49.327 94.9175 51.1264C93.2316 52.9257 91.2156 54.0148 88.8695 54.3936C86.7348 54.7383 84.8612 54.2938 83.2486 53.0602C81.6571 51.8232 80.4392 49.8786 79.5947 47.2262C78.7714 44.5705 78.4309 41.372 78.5731 37.6308C78.8004 31.6515 80.1108 26.7423 82.5044 22.9032C84.898 19.064 88.4832 16.7588 93.2599 15.9876C95.9864 15.5474 98.3587 15.8615 100.377 16.93C102.416 17.9951 104.109 19.8797 105.455 22.5838C104.475 23.5056 102.557 25.3425 99.7002 28.0944L98.8809 28.9239C98.1061 27.7542 97.1813 26.9408 96.1063 26.4836C95.0327 25.993 93.8829 25.8466 92.657 26.0445C90.628 26.3721 89.0844 27.4679 88.0262 29.3319C86.9693 31.1625 86.3939 33.3137 86.3 35.7856C86.1984 38.4579 86.6449 40.5271 87.6394 41.9933C88.6551 43.456 90.2621 44.0099 92.4602 43.655C93.4113 43.5015 94.339 43.1359 95.2432 42.5583C96.1685 41.9773 96.958 41.1029 97.6116 39.935L91.4293 40.9332L91.7379 32.8161Z" fill="#FFCE1F"/>
<path d="M131.168 10.9128C130.805 16.5819 130.501 22.6566 130.254 29.137C130.008 35.6173 129.851 41.6681 129.785 47.2895L122.334 48.4924L122.852 34.8637L111.185 36.7474L110.667 50.3761L103.217 51.5791C103.632 45.0715 103.947 38.995 104.162 33.3498C104.377 27.7046 104.523 21.6554 104.6 15.2024L112.05 13.9995L111.532 27.6282L123.199 25.7445L123.717 12.1157L131.168 10.9128Z" fill="#FFCE1F"/>
<path d="M148.521 44.2644C148.192 42.4252 147.743 40.1239 147.176 37.3603L137.063 38.9933L135.205 46.4143L127.247 47.6991L137.507 9.88918L149.174 8.00544L156.732 42.9386L148.521 44.2644ZM145.666 29.8356C144.996 26.4579 144.305 23.0836 143.593 19.7127L142.956 16.5787C142.101 19.7379 140.838 24.5067 139.167 30.885L145.666 29.8356Z" fill="#FFCE1F"/>
<path d="M174.624 40.0497C174.295 38.2105 173.847 35.9092 173.28 33.1457L163.166 34.7786L161.309 42.1996L153.351 43.4845L163.611 5.67451L175.278 3.79077L182.836 38.7239L174.624 40.0497ZM171.77 25.621C171.1 22.2433 170.409 18.8689 169.697 15.4981L169.06 12.364C168.205 15.5232 166.942 20.292 165.271 26.6703L171.77 25.621Z" fill="#FFCE1F"/>
<path d="M24.2952 63.3078C23.966 61.4687 23.5179 59.1673 22.9507 56.4038L12.8372 58.0367L10.9796 65.4578L3.02198 66.7426L13.2819 28.9327L24.9489 27.0489L32.5065 61.9821L24.2952 63.3078ZM21.4408 48.8791C20.7709 45.5014 20.08 42.1271 19.3679 38.7562L18.7308 35.6222C17.8755 38.7814 16.6124 43.5501 14.9415 49.9285L21.4408 48.8791Z" fill="#FDEA44"/>
<path d="M57.755 21.8019C57.3925 27.471 57.0886 33.529 56.8436 39.9759C56.5972 46.4563 56.4407 52.5071 56.3741 58.1284L45.0241 59.961L38.3918 33.8421L37.9224 61.1076L29.7746 62.4232C30.19 55.9155 30.505 49.8391 30.7196 44.1939C30.9329 38.582 31.0782 32.5496 31.1555 26.0966L42.8225 24.2129L49.458 51.0782L49.9876 23.056L57.755 21.8019Z" fill="#FDEA44"/>
<path d="M75.1093 55.1035C74.7801 53.2643 74.3319 50.9629 73.7648 48.1994L63.6513 49.8323L61.7937 57.2534L53.836 58.5382L64.0959 20.7283L75.763 18.8445L83.3206 53.7777L75.1093 55.1035ZM72.2548 40.6747C71.585 37.297 70.894 33.9227 70.1819 30.5518L69.5448 27.4178C68.6895 30.577 67.4264 35.3457 65.7555 41.7241L72.2548 40.6747Z" fill="#FDEA44"/>
<path d="M93.4794 31.521L107.017 29.3353L106.228 50.079L100.648 50.9799L100.32 42.2187C99.5651 45.4945 98.3448 48.032 96.6589 49.8313C94.9731 51.6307 92.9571 52.7197 90.611 53.0985C88.4763 53.4432 86.6026 52.9988 84.99 51.7652C83.3986 50.5282 82.1806 48.5835 81.3362 45.9312C80.5129 43.2754 80.1723 40.0769 80.3145 36.3357C80.5418 30.3564 81.8523 25.4472 84.2459 21.6081C86.6395 17.769 90.2246 15.4638 95.0014 14.6925C97.7279 14.2523 100.1 14.5665 102.118 15.635C104.157 16.7001 105.85 18.5847 107.197 21.2888C106.216 22.2106 104.298 24.0475 101.442 26.7994L100.622 27.6288C99.8476 26.4592 98.9227 25.6457 97.8478 25.1885C96.7741 24.6979 95.6243 24.5516 94.3985 24.7495C92.3694 25.0771 90.8258 26.1729 89.7677 28.0369C88.7108 29.8675 88.1354 32.0187 88.0414 34.4906C87.9398 37.1629 88.3863 39.2321 89.3809 40.6982C90.3966 42.161 92.0035 42.7149 94.2016 42.36C95.1528 42.2064 96.0804 41.8409 96.9847 41.2633C97.91 40.6823 98.6995 39.8079 99.353 38.64L93.1708 39.6381L93.4794 31.521Z" fill="#FDEA44"/>
<path d="M132.909 9.61775C132.547 15.2869 132.242 21.3616 131.996 27.8419C131.749 34.3222 131.593 40.3731 131.526 45.9944L124.076 47.1974L124.594 33.5686L112.927 35.4524L112.409 49.0811L104.958 50.284C105.374 43.7764 105.689 37.7 105.903 32.0548C106.118 26.4095 106.264 20.3604 106.341 13.9074L113.792 12.7044L113.274 26.3332L124.941 24.4494L125.459 10.8207L132.909 9.61775Z" fill="#FDEA44"/>
<path d="M150.262 42.9693C149.933 41.1302 149.485 38.8288 148.918 36.0653L138.804 37.6982L136.947 45.1193L128.989 46.4041L139.249 8.59414L150.916 6.71039L158.474 41.6435L150.262 42.9693ZM147.408 28.5406C146.738 25.1629 146.047 21.7886 145.335 18.4177L144.698 15.2837C143.842 18.4429 142.579 23.2116 140.908 29.59L147.408 28.5406Z" fill="#FDEA44"/>
<path d="M176.366 38.7547C176.037 36.9155 175.588 34.6141 175.021 31.8506L164.908 33.4835L163.05 40.9046L155.093 42.1894L165.353 4.37947L177.02 2.49572L184.577 37.4289L176.366 38.7547ZM173.511 24.3259C172.842 20.9482 172.151 17.5739 171.438 14.203L170.801 11.069C169.946 14.2282 168.683 18.9969 167.012 25.3753L173.511 24.3259Z" fill="#FDEA44"/>
</svg>
