<svg width="25" height="20" viewBox="0 0 25 20" fill="none" xmlns="http://www.w3.org/2000/svg">
<path d="M20.7778 0H3.66667C2.69421 0 1.76158 0.395088 1.07394 1.09835C0.386309 1.80161 0 2.75544 0 3.75V16.25C0 17.2446 0.386309 18.1984 1.07394 18.9017C1.76158 19.6049 2.69421 20 3.66667 20H20.7778C21.7502 20 22.6829 19.6049 23.3705 18.9017C24.0581 18.1984 24.4444 17.2446 24.4444 16.25V3.75C24.4444 2.75544 24.0581 1.80161 23.3705 1.09835C22.6829 0.395088 21.7502 0 20.7778 0V0ZM3.66667 2.5H20.7778C21.1019 2.5 21.4128 2.6317 21.642 2.86612C21.8712 3.10054 22 3.41848 22 3.75L12.2222 9.85L2.44444 3.75C2.44444 3.41848 2.57321 3.10054 2.80243 2.86612C3.03164 2.6317 3.34251 2.5 3.66667 2.5V2.5ZM22 16.25C22 16.5815 21.8712 16.8995 21.642 17.1339C21.4128 17.3683 21.1019 17.5 20.7778 17.5H3.66667C3.34251 17.5 3.03164 17.3683 2.80243 17.1339C2.57321 16.8995 2.44444 16.5815 2.44444 16.25V6.6L11.5867 12.3125C11.7725 12.4222 11.9832 12.48 12.1978 12.48C12.4123 12.48 12.6231 12.4222 12.8089 12.3125L22 6.6V16.25Z" fill="white"/>
</svg>
