<svg width="20" height="20" viewBox="0 0 20 20" fill="none" xmlns="http://www.w3.org/2000/svg">
<path d="M6.2825 18.7499C13.83 18.7499 17.9587 12.4961 17.9587 7.08239C17.9587 6.90739 17.9588 6.72989 17.9513 6.55489C18.7551 5.973 19.4488 5.25258 20 4.42739C19.2491 4.75845 18.4535 4.97665 17.6388 5.07489C18.4969 4.56194 19.1397 3.75485 19.4475 2.80364C18.6412 3.28129 17.7588 3.61661 16.8387 3.79489C16.2202 3.13617 15.4018 2.69979 14.5101 2.55334C13.6185 2.40689 12.7034 2.55854 11.9067 2.98481C11.1099 3.41108 10.476 4.08818 10.1031 4.91122C9.73012 5.73425 9.63897 6.65731 9.84375 7.53739C8.21218 7.45558 6.61602 7.03172 5.1588 6.29332C3.70159 5.55491 2.41586 4.51844 1.385 3.25114C0.861675 4.15499 0.701967 5.22414 0.938308 6.24147C1.17465 7.2588 1.78932 8.14805 2.6575 8.72864C2.00692 8.70654 1.37065 8.53184 0.8 8.21864V8.27489C0.801122 9.22174 1.12913 10.1392 1.72859 10.8721C2.32805 11.605 3.16218 12.1085 4.09 12.2974C3.73783 12.3944 3.37404 12.4428 3.00875 12.4411C2.75123 12.4419 2.49423 12.4181 2.24125 12.3699C2.50348 13.185 3.01409 13.8976 3.70156 14.408C4.38903 14.9184 5.21892 15.201 6.075 15.2161C4.62069 16.3584 2.82425 16.9779 0.975 16.9749C0.649151 16.9763 0.323529 16.9575 0 16.9186C1.87689 18.1152 4.05662 18.7506 6.2825 18.7499Z" fill="white"/>
</svg>
