<svg width="18" height="18" viewBox="0 0 18 18" fill="none" xmlns="http://www.w3.org/2000/svg">
<path d="M13.2825 8.46754L9.53252 4.71754C9.46119 4.64926 9.37708 4.59574 9.28502 4.56004C9.10242 4.48503 8.89761 4.48503 8.71502 4.56004C8.62295 4.59574 8.53884 4.64926 8.46752 4.71754L4.71752 8.46754C4.64759 8.53747 4.59212 8.62049 4.55427 8.71186C4.51643 8.80322 4.49695 8.90115 4.49695 9.00004C4.49695 9.19977 4.57629 9.39132 4.71752 9.53255C4.85874 9.67377 5.05029 9.75311 5.25002 9.75311C5.44974 9.75311 5.64129 9.67377 5.78252 9.53255L8.25002 7.05754V12.75C8.25002 12.949 8.32903 13.1397 8.46969 13.2804C8.61034 13.421 8.8011 13.5 9.00002 13.5C9.19893 13.5 9.38969 13.421 9.53035 13.2804C9.671 13.1397 9.75002 12.949 9.75002 12.75V7.05754L12.2175 9.53255C12.2872 9.60284 12.3702 9.65864 12.4616 9.69671C12.553 9.73479 12.651 9.75439 12.75 9.75439C12.849 9.75439 12.9471 9.73479 13.0384 9.69671C13.1298 9.65864 13.2128 9.60284 13.2825 9.53255C13.3528 9.46282 13.4086 9.37987 13.4467 9.28848C13.4848 9.19708 13.5044 9.09905 13.5044 9.00004C13.5044 8.90104 13.4848 8.80301 13.4467 8.71161C13.4086 8.62022 13.3528 8.53727 13.2825 8.46754Z" fill="#828282"/>
</svg>
